Asap-Regular.ufo
<glyph name="exclam" format="1">
  <advance width="294"/>
  <unicode hex="0021"/>
  <outline>
    <contour>
      <point x="152" y="702" type="curve" smooth="yes"/>
      <point x="172" y="702" type="line" smooth="yes"/>
      <point x="200" y="702"/>
      <point x="211" y="694"/>
      <point x="211" y="680" type="curve" smooth="yes"/>
      <point x="184" y="224" type="line" smooth="yes"/>
      <point x="183" y="210"/>
      <point x="174" y="202"/>
      <point x="153" y="202" type="curve" smooth="yes"/>
      <point x="142" y="202" type="line" smooth="yes"/>
      <point x="121" y="202"/>
      <point x="112" y="210"/>
      <point x="112" y="224" type="curve" smooth="yes"/>
      <point x="112" y="680" type="line" smooth="yes"/>
      <point x="112" y="694"/>
      <point x="124" y="702"/>
    </contour>
    <contour>
      <point x="140" y="108" type="curve" smooth="yes"/>
      <point x="157" y="108" type="line" smooth="yes"/>
      <point x="185" y="108"/>
      <point x="197" y="100"/>
      <point x="197" y="86" type="curve" smooth="yes"/>
      <point x="197" y="20" type="line" smooth="yes"/>
      <point x="197" y="6"/>
      <point x="185" y="-2"/>
      <point x="157" y="-2" type="curve" smooth="yes"/>
      <point x="140" y="-2" type="line" smooth="yes"/>
      <point x="112" y="-2"/>
      <point x="100" y="6"/>
      <point x="100" y="20" type="curve" smooth="yes"/>
      <point x="100" y="86" type="line" smooth="yes"/>
      <point x="100" y="100"/>
      <point x="112" y="108"/>
    </contour>
  </outline>
</glyph>
<glyph name="quotedbl" format="1">
  <advance width="319"/>
  <unicode hex="0022"/>
  <outline>
    <contour>
      <point x="90" y="702" type="curve" smooth="yes"/>
      <point x="100" y="702" type="line" smooth="yes"/>
      <point x="128" y="702"/>
      <point x="140" y="694"/>
      <point x="140" y="680" type="curve" smooth="yes"/>
      <point x="140" y="671"/>
      <point x="125" y="549"/>
      <point x="117" y="484" type="curve" smooth="yes"/>
      <point x="115" y="476"/>
      <point x="108" y="472"/>
      <point x="95" y="472" type="curve" smooth="yes"/>
      <point x="94" y="472" type="line" smooth="yes"/>
      <point x="81" y="472"/>
      <point x="74" y="476"/>
      <point x="72" y="484" type="curve" smooth="yes"/>
      <point x="50" y="668" type="line"/>
      <point x="50" y="680" type="line" smooth="yes"/>
      <point x="50" y="694"/>
      <point x="62" y="702"/>
    </contour>
    <contour>
      <point x="218" y="702" type="curve" smooth="yes"/>
      <point x="228" y="702" type="line" smooth="yes"/>
      <point x="256" y="702"/>
      <point x="268" y="694"/>
      <point x="268" y="680" type="curve" smooth="yes"/>
      <point x="268" y="671"/>
      <point x="253" y="549"/>
      <point x="245" y="484" type="curve" smooth="yes"/>
      <point x="243" y="476"/>
      <point x="236" y="472"/>
      <point x="223" y="472" type="curve" smooth="yes"/>
      <point x="222" y="472" type="line" smooth="yes"/>
      <point x="209" y="472"/>
      <point x="202" y="476"/>
      <point x="200" y="484" type="curve" smooth="yes"/>
      <point x="178" y="668" type="line"/>
      <point x="178" y="680" type="line" smooth="yes"/>
      <point x="178" y="694"/>
      <point x="190" y="702"/>
    </contour>
  </outline>
</glyph>
<glyph name="numbersign" format="1">
  <advance width="534"/>
  <unicode hex="0023"/>
  <outline>
    <contour>
      <point x="430" y="686" type="curve" smooth="yes"/>
      <point x="435" y="686" type="line" smooth="yes"/>
      <point x="454" y="686"/>
      <point x="463" y="680"/>
      <point x="463" y="671" type="curve" smooth="yes"/>
      <point x="432" y="497" type="line"/>
      <point x="500" y="497" type="line" smooth="yes"/>
      <point x="514" y="497"/>
      <point x="520" y="488"/>
      <point x="520" y="467" type="curve" smooth="yes"/>
      <point x="520" y="450" type="line" smooth="yes"/>
      <point x="520" y="429"/>
      <point x="514" y="420"/>
      <point x="500" y="420" type="curve" smooth="yes"/>
      <point x="417" y="420" type="line"/>
      <point x="392" y="273" type="line"/>
      <point x="468" y="273" type="line" smooth="yes"/>
      <point x="482" y="273"/>
      <point x="488" y="264"/>
      <point x="488" y="243" type="curve" smooth="yes"/>
      <point x="488" y="226" type="line" smooth="yes"/>
      <point x="488" y="205"/>
      <point x="482" y="196"/>
      <point x="468" y="196" type="curve" smooth="yes"/>
      <point x="376" y="196" type="line"/>
      <point x="345" y="20" type="line" smooth="yes"/>
      <point x="342" y="6"/>
      <point x="336" y="-2"/>
      <point x="302" y="-2" type="curve" smooth="yes"/>
      <point x="298" y="-2" type="line" smooth="yes"/>
      <point x="279" y="-2"/>
      <point x="270" y="2"/>
      <point x="270" y="15" type="curve" smooth="yes"/>
      <point x="270" y="22"/>
      <point x="275" y="47"/>
      <point x="302" y="196" type="curve"/>
      <point x="184" y="196" type="line"/>
      <point x="152" y="20" type="line" smooth="yes"/>
      <point x="149" y="6"/>
      <point x="145" y="-2"/>
      <point x="109" y="-2" type="curve" smooth="yes"/>
      <point x="105" y="-2" type="line" smooth="yes"/>
      <point x="86" y="-2"/>
      <point x="77" y="2"/>
      <point x="77" y="15" type="curve" smooth="yes"/>
      <point x="77" y="22"/>
      <point x="82" y="47"/>
      <point x="109" y="196" type="curve"/>
      <point x="33" y="196" type="line" smooth="yes"/>
      <point x="19" y="196"/>
      <point x="13" y="205"/>
      <point x="13" y="226" type="curve" smooth="yes"/>
      <point x="13" y="243" type="line" smooth="yes"/>
      <point x="13" y="264"/>
      <point x="19" y="273"/>
      <point x="33" y="273" type="curve" smooth="yes"/>
      <point x="124" y="273" type="line"/>
      <point x="150" y="420" type="line"/>
      <point x="69" y="420" type="line" smooth="yes"/>
      <point x="55" y="420"/>
      <point x="49" y="429"/>
      <point x="49" y="450" type="curve" smooth="yes"/>
      <point x="49" y="467" type="line" smooth="yes"/>
      <point x="49" y="488"/>
      <point x="55" y="497"/>
      <point x="69" y="497" type="curve" smooth="yes"/>
      <point x="163" y="497" type="line"/>
      <point x="194" y="664" type="line" smooth="yes"/>
      <point x="196" y="678"/>
      <point x="200" y="686"/>
      <point x="238" y="686" type="curve" smooth="yes"/>
      <point x="242" y="686" type="line" smooth="yes"/>
      <point x="261" y="686"/>
      <point x="270" y="680"/>
      <point x="270" y="671" type="curve" smooth="yes"/>
      <point x="237" y="497" type="line"/>
      <point x="356" y="497" type="line"/>
      <point x="386" y="664" type="line" smooth="yes"/>
      <point x="388" y="678"/>
      <point x="392" y="686"/>
    </contour>
    <contour>
      <point x="225" y="420" type="line"/>
      <point x="199" y="273" type="line"/>
      <point x="317" y="273" type="line"/>
      <point x="343" y="420" type="line"/>
    </contour>
  </outline>
</glyph>
<glyph name="dollar" format="1">
  <advance width="496"/>
  <unicode hex="0024"/>
  <outline>
    <contour>
      <point x="253" y="758" type="curve" smooth="yes"/>
      <point x="267" y="758"/>
      <point x="273" y="753"/>
      <point x="273" y="742" type="curve" smooth="yes"/>
      <point x="273" y="702" type="line"/>
      <point x="330" y="701"/>
      <point x="431" y="678"/>
      <point x="431" y="645" type="curve" smooth="yes"/>
      <point x="431" y="630"/>
      <point x="409" y="592"/>
      <point x="399" y="592" type="curve" smooth="yes"/>
      <point x="384" y="592"/>
      <point x="348" y="628"/>
      <point x="273" y="630" type="curve"/>
      <point x="273" y="397" type="line"/>
      <point x="362" y="365"/>
      <point x="464" y="329"/>
      <point x="464" y="191" type="curve" smooth="yes"/>
      <point x="464" y="77"/>
      <point x="390" y="5"/>
      <point x="273" y="-5" type="curve"/>
      <point x="273" y="-55" type="line" smooth="yes"/>
      <point x="273" y="-66"/>
      <point x="267" y="-71"/>
      <point x="253" y="-71" type="curve" smooth="yes"/>
      <point x="239" y="-71"/>
      <point x="233" y="-66"/>
      <point x="233" y="-55" type="curve" smooth="yes"/>
      <point x="233" y="-6" type="line"/>
      <point x="120" y="-3"/>
      <point x="35" y="40"/>
      <point x="35" y="67" type="curve" smooth="yes"/>
      <point x="35" y="83"/>
      <point x="59" y="121"/>
      <point x="70" y="121" type="curve" smooth="yes"/>
      <point x="82" y="121"/>
      <point x="136" y="69"/>
      <point x="233" y="66" type="curve"/>
      <point x="233" y="324" type="line"/>
      <point x="145" y="358"/>
      <point x="48" y="393"/>
      <point x="48" y="522" type="curve" smooth="yes"/>
      <point x="48" y="620"/>
      <point x="120" y="688"/>
      <point x="233" y="700" type="curve"/>
      <point x="233" y="742" type="line" smooth="yes"/>
      <point x="233" y="753"/>
      <point x="239" y="758"/>
    </contour>
    <contour>
      <point x="233" y="412" type="curve"/>
      <point x="233" y="627" type="line"/>
      <point x="176" y="617"/>
      <point x="139" y="581"/>
      <point x="139" y="518" type="curve" smooth="yes"/>
      <point x="139" y="461"/>
      <point x="180" y="434"/>
    </contour>
    <contour>
      <point x="273" y="308" type="curve"/>
      <point x="273" y="69" type="line"/>
      <point x="332" y="80"/>
      <point x="373" y="126"/>
      <point x="373" y="191" type="curve" smooth="yes"/>
      <point x="373" y="254"/>
      <point x="328" y="284"/>
    </contour>
  </outline>
</glyph>
<glyph name="ampersand" format="1">
  <advance width="624"/>
  <unicode hex="0026"/>
  <outline>
    <contour>
      <point x="590" y="71" type="curve" smooth="yes"/>
      <point x="604" y="71"/>
      <point x="611" y="32"/>
      <point x="611" y="24" type="curve" smooth="yes"/>
      <point x="611" y="-3"/>
      <point x="565" y="-6"/>
      <point x="538" y="-6" type="curve" smooth="yes"/>
      <point x="507" y="-6"/>
      <point x="464" y="2"/>
      <point x="436" y="37" type="curve"/>
      <point x="403" y="17"/>
      <point x="347" y="-6"/>
      <point x="273" y="-6" type="curve" smooth="yes"/>
      <point x="174" y="-6"/>
      <point x="50" y="49"/>
      <point x="50" y="203" type="curve" smooth="yes"/>
      <point x="50" y="308"/>
      <point x="116" y="371"/>
      <point x="176" y="387" type="curve"/>
      <point x="176" y="391" type="line"/>
      <point x="120" y="413"/>
      <point x="73" y="464"/>
      <point x="73" y="538" type="curve" smooth="yes"/>
      <point x="73" y="651"/>
      <point x="159" y="706"/>
      <point x="275" y="706" type="curve" smooth="yes"/>
      <point x="308" y="706"/>
      <point x="360" y="701"/>
      <point x="360" y="674" type="curve" smooth="yes"/>
      <point x="360" y="670"/>
      <point x="354" y="625"/>
      <point x="338" y="625" type="curve" smooth="yes"/>
      <point x="330" y="625"/>
      <point x="309" y="634"/>
      <point x="277" y="634" type="curve" smooth="yes"/>
      <point x="173" y="634"/>
      <point x="157" y="566"/>
      <point x="157" y="529" type="curve" smooth="yes"/>
      <point x="157" y="479"/>
      <point x="194" y="408"/>
      <point x="291" y="408" type="curve" smooth="yes"/>
      <point x="409" y="408" type="line"/>
      <point x="421" y="513" type="line" smooth="yes"/>
      <point x="422" y="527"/>
      <point x="432" y="535"/>
      <point x="453" y="535" type="curve" smooth="yes"/>
      <point x="463" y="535" type="line" smooth="yes"/>
      <point x="484" y="535"/>
      <point x="493" y="527"/>
      <point x="493" y="513" type="curve" smooth="yes"/>
      <point x="493" y="408" type="line"/>
      <point x="577" y="408" type="line" smooth="yes"/>
      <point x="591" y="408"/>
      <point x="597" y="399"/>
      <point x="597" y="378" type="curve" smooth="yes"/>
      <point x="597" y="366" type="line" smooth="yes"/>
      <point x="597" y="345"/>
      <point x="591" y="336"/>
      <point x="577" y="336" type="curve" smooth="yes"/>
      <point x="493" y="336" type="line"/>
      <point x="493" y="140" type="line" smooth="yes"/>
      <point x="493" y="80"/>
      <point x="518" y="66"/>
      <point x="547" y="66" type="curve" smooth="yes"/>
      <point x="576" y="66"/>
      <point x="581" y="71"/>
    </contour>
    <contour>
      <point x="137" y="204" type="curve" smooth="yes"/>
      <point x="137" y="95"/>
      <point x="221" y="66"/>
      <point x="281" y="66" type="curve" smooth="yes"/>
      <point x="330" y="66"/>
      <point x="380" y="86"/>
      <point x="411" y="103" type="curve"/>
      <point x="410" y="112"/>
      <point x="409" y="121"/>
      <point x="409" y="132" type="curve" smooth="yes"/>
      <point x="409" y="336" type="line"/>
      <point x="287" y="336" type="line" smooth="yes"/>
      <point x="197" y="336"/>
      <point x="137" y="306"/>
    </contour>
  </outline>
</glyph>
<glyph name="quotesingle" format="1">
  <advance width="183"/>
  <unicode hex="0027"/>
  <outline>
    <contour>
      <point x="90" y="702" type="curve" smooth="yes"/>
      <point x="100" y="702" type="line" smooth="yes"/>
      <point x="128" y="702"/>
      <point x="140" y="694"/>
      <point x="140" y="680" type="curve" smooth="yes"/>
      <point x="140" y="671"/>
      <point x="125" y="549"/>
      <point x="117" y="484" type="curve" smooth="yes"/>
      <point x="115" y="476"/>
      <point x="108" y="472"/>
      <point x="95" y="472" type="curve" smooth="yes"/>
      <point x="94" y="472" type="line" smooth="yes"/>
      <point x="81" y="472"/>
      <point x="74" y="476"/>
      <point x="72" y="484" type="curve" smooth="yes"/>
      <point x="50" y="668" type="line"/>
      <point x="50" y="680" type="line" smooth="yes"/>
      <point x="50" y="694"/>
      <point x="62" y="702"/>
    </contour>
  </outline>
</glyph>
<glyph name="parenleft" format="1">
  <advance width="301"/>
  <unicode hex="0028"/>
  <outline>
    <contour>
      <point x="260" y="783" type="curve" smooth="yes"/>
      <point x="272" y="783"/>
      <point x="290" y="772"/>
      <point x="290" y="758" type="curve" smooth="yes"/>
      <point x="290" y="751"/>
      <point x="287" y="744"/>
      <point x="281" y="736" type="curve" smooth="yes"/>
      <point x="192" y="631"/>
      <point x="136" y="468"/>
      <point x="136" y="286" type="curve" smooth="yes"/>
      <point x="136" y="104"/>
      <point x="192" y="-58"/>
      <point x="280" y="-164" type="curve" smooth="yes"/>
      <point x="286" y="-171"/>
      <point x="289" y="-178"/>
      <point x="289" y="-184" type="curve" smooth="yes"/>
      <point x="289" y="-194"/>
      <point x="276" y="-212"/>
      <point x="261" y="-212" type="curve" smooth="yes"/>
      <point x="254" y="-212"/>
      <point x="246" y="-208"/>
      <point x="239" y="-201" type="curve" smooth="yes"/>
      <point x="128" y="-99"/>
      <point x="55" y="81"/>
      <point x="55" y="286" type="curve" smooth="yes"/>
      <point x="55" y="491"/>
      <point x="128" y="671"/>
      <point x="239" y="773" type="curve" smooth="yes"/>
      <point x="246" y="780"/>
      <point x="253" y="783"/>
    </contour>
  </outline>
</glyph>
<glyph name="parenright" format="1">
  <advance width="301"/>
  <unicode hex="0029"/>
  <outline>
    <contour>
      <point x="40" y="784" type="curve" smooth="yes"/>
      <point x="47" y="784"/>
      <point x="55" y="780"/>
      <point x="62" y="773" type="curve" smooth="yes"/>
      <point x="173" y="671"/>
      <point x="246" y="491"/>
      <point x="246" y="286" type="curve" smooth="yes"/>
      <point x="246" y="81"/>
      <point x="173" y="-99"/>
      <point x="62" y="-201" type="curve" smooth="yes"/>
      <point x="55" y="-208"/>
      <point x="48" y="-211"/>
      <point x="41" y="-211" type="curve" smooth="yes"/>
      <point x="27" y="-211"/>
      <point x="9" y="-197"/>
      <point x="9" y="-185" type="curve" smooth="yes"/>
      <point x="9" y="-180"/>
      <point x="12" y="-175"/>
      <point x="16" y="-170" type="curve" smooth="yes"/>
      <point x="107" y="-65"/>
      <point x="165" y="100"/>
      <point x="165" y="286" type="curve" smooth="yes"/>
      <point x="165" y="468"/>
      <point x="109" y="630"/>
      <point x="21" y="736" type="curve" smooth="yes"/>
      <point x="15" y="743"/>
      <point x="12" y="750"/>
      <point x="12" y="756" type="curve" smooth="yes"/>
      <point x="12" y="766"/>
      <point x="25" y="784"/>
    </contour>
  </outline>
</glyph>
<glyph name="asterisk" format="1">
  <advance width="373"/>
  <unicode hex="002A"/>
  <outline>
    <contour>
      <point x="181" y="709" type="curve" smooth="yes"/>
      <point x="195" y="709"/>
      <point x="201" y="703"/>
      <point x="201" y="689" type="curve" smooth="yes"/>
      <point x="201" y="584" type="line"/>
      <point x="300" y="616" type="line" smooth="yes"/>
      <point x="303" y="617"/>
      <point x="306" y="617"/>
      <point x="309" y="617" type="curve" smooth="yes"/>
      <point x="317" y="617"/>
      <point x="327" y="609"/>
      <point x="327" y="594" type="curve" smooth="yes"/>
      <point x="327" y="586"/>
      <point x="323" y="581"/>
      <point x="313" y="578" type="curve" smooth="yes"/>
      <point x="214" y="546" type="line"/>
      <point x="286" y="447" type="line" smooth="yes"/>
      <point x="289" y="442"/>
      <point x="291" y="438"/>
      <point x="291" y="434" type="curve" smooth="yes"/>
      <point x="291" y="425"/>
      <point x="278" y="414"/>
      <point x="269" y="414" type="curve" smooth="yes"/>
      <point x="263" y="414"/>
      <point x="258" y="417"/>
      <point x="254" y="423" type="curve" smooth="yes"/>
      <point x="181" y="524" type="line"/>
      <point x="108" y="423" type="line" smooth="yes"/>
      <point x="103" y="417"/>
      <point x="98" y="414"/>
      <point x="93" y="414" type="curve" smooth="yes"/>
      <point x="83" y="414"/>
      <point x="71" y="425"/>
      <point x="71" y="434" type="curve" smooth="yes"/>
      <point x="71" y="438"/>
      <point x="72" y="442"/>
      <point x="76" y="447" type="curve" smooth="yes"/>
      <point x="147" y="546" type="line"/>
      <point x="49" y="578" type="line" smooth="yes"/>
      <point x="39" y="581"/>
      <point x="35" y="586"/>
      <point x="35" y="593" type="curve" smooth="yes"/>
      <point x="35" y="608"/>
      <point x="44" y="617"/>
      <point x="53" y="617" type="curve" smooth="yes"/>
      <point x="56" y="617"/>
      <point x="59" y="617"/>
      <point x="62" y="616" type="curve" smooth="yes"/>
      <point x="161" y="584" type="line"/>
      <point x="161" y="689" type="line" smooth="yes"/>
      <point x="161" y="703"/>
      <point x="167" y="709"/>
    </contour>
  </outline>
</glyph>
<glyph name="plus" format="1">
  <advance width="560"/>
  <unicode hex="002B"/>
  <outline>
    <contour>
      <point x="277" y="463" type="curve" smooth="yes"/>
      <point x="284" y="463" type="line" smooth="yes"/>
      <point x="305" y="463"/>
      <point x="314" y="457"/>
      <point x="314" y="443" type="curve" smooth="yes"/>
      <point x="314" y="264" type="line"/>
      <point x="492" y="264" type="line" smooth="yes"/>
      <point x="506" y="264"/>
      <point x="512" y="255"/>
      <point x="512" y="234" type="curve" smooth="yes"/>
      <point x="512" y="227" type="line" smooth="yes"/>
      <point x="512" y="206"/>
      <point x="506" y="197"/>
      <point x="492" y="197" type="curve" smooth="yes"/>
      <point x="314" y="197" type="line"/>
      <point x="314" y="18" type="line" smooth="yes"/>
      <point x="314" y="4"/>
      <point x="305" y="-2"/>
      <point x="284" y="-2" type="curve" smooth="yes"/>
      <point x="277" y="-2" type="line" smooth="yes"/>
      <point x="256" y="-2"/>
      <point x="247" y="4"/>
      <point x="247" y="18" type="curve" smooth="yes"/>
      <point x="247" y="197" type="line"/>
      <point x="68" y="197" type="line" smooth="yes"/>
      <point x="54" y="197"/>
      <point x="48" y="202"/>
      <point x="48" y="223" type="curve" smooth="yes"/>
      <point x="48" y="230" type="line" smooth="yes"/>
      <point x="48" y="251"/>
      <point x="54" y="264"/>
      <point x="68" y="264" type="curve" smooth="yes"/>
      <point x="247" y="264" type="line"/>
      <point x="247" y="443" type="line" smooth="yes"/>
      <point x="247" y="457"/>
      <point x="256" y="463"/>
    </contour>
  </outline>
</glyph>
<glyph name="comma" format="1">
  <advance width="198"/>
  <unicode hex="002C"/>
  <outline>
    <contour>
      <point x="95" y="108" type="curve" smooth="yes"/>
      <point x="104" y="108" type="line" smooth="yes"/>
      <point x="129" y="108"/>
      <point x="144" y="97"/>
      <point x="144" y="80" type="curve" smooth="yes"/>
      <point x="144" y="-40"/>
      <point x="74" y="-116"/>
      <point x="41" y="-116" type="curve" smooth="yes"/>
      <point x="30" y="-116"/>
      <point x="12" y="-113"/>
      <point x="12" y="-101" type="curve" smooth="yes"/>
      <point x="12" y="-95"/>
      <point x="17" y="-85"/>
      <point x="21" y="-77" type="curve" smooth="yes"/>
      <point x="43" y="-33"/>
      <point x="55" y="14"/>
      <point x="55" y="76" type="curve" smooth="yes"/>
      <point x="55" y="95"/>
      <point x="68" y="108"/>
    </contour>
  </outline>
</glyph>
<glyph name="hyphen" format="1">
  <advance width="320"/>
  <unicode hex="002D"/>
  <outline>
    <contour>
      <point x="64" y="300" type="curve" smooth="yes"/>
      <point x="253" y="300" type="line" smooth="yes"/>
      <point x="267" y="300"/>
      <point x="273" y="291"/>
      <point x="273" y="270" type="curve" smooth="yes"/>
      <point x="273" y="260" type="line" smooth="yes"/>
      <point x="273" y="239"/>
      <point x="267" y="230"/>
      <point x="253" y="230" type="curve" smooth="yes"/>
      <point x="64" y="230" type="line" smooth="yes"/>
      <point x="50" y="230"/>
      <point x="44" y="239"/>
      <point x="44" y="260" type="curve" smooth="yes"/>
      <point x="44" y="270" type="line" smooth="yes"/>
      <point x="44" y="291"/>
      <point x="50" y="300"/>
    </contour>
  </outline>
</glyph>
<glyph name="period" format="1">
  <advance width="198"/>
  <unicode hex="002E"/>
  <outline>
    <contour>
      <point x="91" y="108" type="curve" smooth="yes"/>
      <point x="108" y="108" type="line" smooth="yes"/>
      <point x="136" y="108"/>
      <point x="148" y="100"/>
      <point x="148" y="86" type="curve" smooth="yes"/>
      <point x="148" y="20" type="line" smooth="yes"/>
      <point x="148" y="6"/>
      <point x="136" y="-2"/>
      <point x="108" y="-2" type="curve" smooth="yes"/>
      <point x="91" y="-2" type="line" smooth="yes"/>
      <point x="63" y="-2"/>
      <point x="51" y="6"/>
      <point x="51" y="20" type="curve" smooth="yes"/>
      <point x="51" y="86" type="line" smooth="yes"/>
      <point x="51" y="100"/>
      <point x="63" y="108"/>
    </contour>
  </outline>
</glyph>
<glyph name="slash" format="1">
  <advance width="370"/>
  <unicode hex="002F"/>
  <outline>
    <contour>
      <point x="338" y="703" type="curve" smooth="yes"/>
      <point x="342" y="703" type="line" smooth="yes"/>
      <point x="359" y="703"/>
      <point x="366" y="695"/>
      <point x="366" y="683" type="curve" smooth="yes"/>
      <point x="366" y="678"/>
      <point x="365" y="673"/>
      <point x="363" y="668" type="curve" smooth="yes"/>
      <point x="53" y="-53" type="line" smooth="yes"/>
      <point x="46" y="-69"/>
      <point x="37" y="-76"/>
      <point x="20" y="-76" type="curve" smooth="yes"/>
      <point x="16" y="-76" type="line" smooth="yes"/>
      <point x="-1" y="-76"/>
      <point x="-10" y="-68"/>
      <point x="-10" y="-56" type="curve" smooth="yes"/>
      <point x="-10" y="-51"/>
      <point x="-9" y="-46"/>
      <point x="-7" y="-41" type="curve" smooth="yes"/>
      <point x="303" y="680" type="line" smooth="yes"/>
      <point x="310" y="696"/>
      <point x="321" y="703"/>
    </contour>
  </outline>
</glyph>
<glyph name="zero" format="1">
  <advance width="535"/>
  <unicode hex="0030"/>
  <outline>
    <contour>
      <point x="266" y="706" type="curve" smooth="yes"/>
      <point x="387" y="706"/>
      <point x="495" y="599"/>
      <point x="495" y="350" type="curve" smooth="yes"/>
      <point x="495" y="101"/>
      <point x="387" y="-6"/>
      <point x="266" y="-6" type="curve" smooth="yes"/>
      <point x="146" y="-6"/>
      <point x="39" y="101"/>
      <point x="39" y="350" type="curve" smooth="yes"/>
      <point x="39" y="599"/>
      <point x="146" y="706"/>
    </contour>
    <contour>
      <point x="266" y="634" type="curve" smooth="yes"/>
      <point x="194" y="634"/>
      <point x="124" y="559"/>
      <point x="124" y="350" type="curve" smooth="yes"/>
      <point x="124" y="141"/>
      <point x="194" y="66"/>
      <point x="266" y="66" type="curve" smooth="yes"/>
      <point x="338" y="66"/>
      <point x="410" y="141"/>
      <point x="410" y="350" type="curve" smooth="yes"/>
      <point x="410" y="559"/>
      <point x="338" y="634"/>
    </contour>
  </outline>
</glyph>
<glyph name="one" format="1">
  <advance width="535"/>
  <unicode hex="0031"/>
  <outline>
    <contour>
      <point x="58" y="651" type="curve" smooth="yes"/>
      <point x="290" y="702" type="line" smooth="yes"/>
      <point x="305" y="702"/>
      <point x="321" y="693"/>
      <point x="321" y="681" type="curve" smooth="yes"/>
      <point x="321" y="72" type="line"/>
      <point x="469" y="72" type="line" smooth="yes"/>
      <point x="483" y="72"/>
      <point x="489" y="63"/>
      <point x="489" y="42" type="curve" smooth="yes"/>
      <point x="489" y="30" type="line" smooth="yes"/>
      <point x="489" y="9"/>
      <point x="483" y="0"/>
      <point x="469" y="0" type="curve" smooth="yes"/>
      <point x="63" y="0" type="line" smooth="yes"/>
      <point x="49" y="0"/>
      <point x="43" y="9"/>
      <point x="43" y="30" type="curve" smooth="yes"/>
      <point x="43" y="42" type="line" smooth="yes"/>
      <point x="43" y="63"/>
      <point x="49" y="72"/>
      <point x="63" y="72" type="curve" smooth="yes"/>
      <point x="237" y="72" type="line"/>
      <point x="237" y="611" type="line"/>
      <point x="60" y="581" type="line" smooth="yes"/>
      <point x="46" y="581"/>
      <point x="40" y="614"/>
      <point x="40" y="632" type="curve" smooth="yes"/>
      <point x="40" y="643"/>
      <point x="46" y="648"/>
    </contour>
  </outline>
</glyph>
<glyph name="two" format="1">
  <advance width="535"/>
  <unicode hex="0032"/>
  <outline>
    <contour>
      <point x="254" y="706" type="curve" smooth="yes"/>
      <point x="385" y="706"/>
      <point x="467" y="641"/>
      <point x="467" y="536" type="curve" smooth="yes"/>
      <point x="467" y="440"/>
      <point x="440" y="407"/>
      <point x="238" y="160" type="curve" smooth="yes"/>
      <point x="165" y="71" type="line"/>
      <point x="453" y="71" type="line" smooth="yes"/>
      <point x="467" y="71"/>
      <point x="473" y="62"/>
      <point x="473" y="41" type="curve" smooth="yes"/>
      <point x="473" y="30" type="line" smooth="yes"/>
      <point x="473" y="9"/>
      <point x="467" y="0"/>
      <point x="453" y="0" type="curve" smooth="yes"/>
      <point x="71" y="0" type="line" smooth="yes"/>
      <point x="59" y="0"/>
      <point x="51" y="25"/>
      <point x="51" y="44" type="curve" smooth="yes"/>
      <point x="51" y="51"/>
      <point x="52" y="58"/>
      <point x="55" y="61" type="curve" smooth="yes"/>
      <point x="313" y="385" type="line" smooth="yes"/>
      <point x="376" y="468"/>
      <point x="381" y="488"/>
      <point x="381" y="530" type="curve" smooth="yes"/>
      <point x="381" y="594"/>
      <point x="333" y="634"/>
      <point x="256" y="634" type="curve" smooth="yes"/>
      <point x="165" y="634"/>
      <point x="123" y="583"/>
      <point x="106" y="583" type="curve" smooth="yes"/>
      <point x="96" y="583"/>
      <point x="74" y="618"/>
      <point x="74" y="633" type="curve" smooth="yes"/>
      <point x="74" y="675"/>
      <point x="193" y="706"/>
    </contour>
  </outline>
</glyph>
<glyph name="four" format="1">
  <advance width="535"/>
  <unicode hex="0034"/>
  <outline>
    <contour>
      <point x="383" y="702" type="curve" smooth="yes"/>
      <point x="399" y="702" type="line" smooth="yes"/>
      <point x="420" y="702"/>
      <point x="429" y="694"/>
      <point x="429" y="680" type="curve" smooth="yes"/>
      <point x="429" y="239" type="line"/>
      <point x="496" y="239" type="line" smooth="yes"/>
      <point x="510" y="239"/>
      <point x="516" y="230"/>
      <point x="516" y="209" type="curve" smooth="yes"/>
      <point x="516" y="197" type="line" smooth="yes"/>
      <point x="516" y="176"/>
      <point x="510" y="167"/>
      <point x="496" y="167" type="curve" smooth="yes"/>
      <point x="429" y="167" type="line"/>
      <point x="429" y="20" type="line" smooth="yes"/>
      <point x="429" y="6"/>
      <point x="420" y="-2"/>
      <point x="399" y="-2" type="curve" smooth="yes"/>
      <point x="376" y="-2" type="line" smooth="yes"/>
      <point x="355" y="-2"/>
      <point x="346" y="6"/>
      <point x="346" y="20" type="curve" smooth="yes"/>
      <point x="346" y="167" type="line"/>
      <point x="42" y="167" type="line" smooth="yes"/>
      <point x="31" y="167"/>
      <point x="18" y="199"/>
      <point x="18" y="218" type="curve" smooth="yes"/>
      <point x="18" y="223"/>
      <point x="18" y="227"/>
      <point x="20" y="229" type="curve" smooth="yes"/>
      <point x="349" y="688" type="line" smooth="yes"/>
      <point x="356" y="697"/>
      <point x="369" y="702"/>
    </contour>
    <contour>
      <point x="117" y="239" type="line"/>
      <point x="346" y="239" type="line"/>
      <point x="346" y="557" type="line"/>
      <point x="342" y="559" type="line"/>
    </contour>
  </outline>
</glyph>
<glyph name="five" format="1">
  <advance width="535"/>
  <unicode hex="0035"/>
  <outline>
    <contour>
      <point x="144" y="700" type="curve" smooth="yes"/>
      <point x="410" y="700" type="line" smooth="yes"/>
      <point x="424" y="700"/>
      <point x="430" y="691"/>
      <point x="430" y="670" type="curve" smooth="yes"/>
      <point x="430" y="658" type="line" smooth="yes"/>
      <point x="430" y="637"/>
      <point x="424" y="628"/>
      <point x="410" y="628" type="curve" smooth="yes"/>
      <point x="193" y="628" type="line"/>
      <point x="180" y="422" type="line"/>
      <point x="232" y="422" type="line" smooth="yes"/>
      <point x="340" y="422"/>
      <point x="474" y="375"/>
      <point x="474" y="213" type="curve" smooth="yes"/>
      <point x="474" y="39"/>
      <point x="347" y="-6"/>
      <point x="234" y="-6" type="curve" smooth="yes"/>
      <point x="123" y="-6"/>
      <point x="47" y="29"/>
      <point x="47" y="54" type="curve" smooth="yes"/>
      <point x="47" y="73"/>
      <point x="71" y="104"/>
      <point x="82" y="104" type="curve" smooth="yes"/>
      <point x="101" y="104"/>
      <point x="146" y="66"/>
      <point x="233" y="66" type="curve" smooth="yes"/>
      <point x="314" y="66"/>
      <point x="388" y="114"/>
      <point x="388" y="213" type="curve" smooth="yes"/>
      <point x="388" y="302"/>
      <point x="325" y="350"/>
      <point x="208" y="350" type="curve" smooth="yes"/>
      <point x="123" y="350" type="line" smooth="yes"/>
      <point x="101" y="350"/>
      <point x="95" y="359"/>
      <point x="95" y="380" type="curve" smooth="yes"/>
      <point x="112" y="670" type="line" smooth="yes"/>
      <point x="113" y="691"/>
      <point x="123" y="700"/>
    </contour>
  </outline>
</glyph>
<glyph name="six" format="1">
  <advance width="535"/>
  <unicode hex="0036"/>
  <outline>
    <contour>
      <point x="376" y="702" type="curve" smooth="yes"/>
      <point x="397" y="702"/>
      <point x="409" y="661"/>
      <point x="409" y="649" type="curve" smooth="yes"/>
      <point x="409" y="646"/>
      <point x="408" y="641"/>
      <point x="401" y="638" type="curve" smooth="yes"/>
      <point x="265" y="582"/>
      <point x="186" y="484"/>
      <point x="154" y="372" type="curve"/>
      <point x="185" y="390"/>
      <point x="228" y="405"/>
      <point x="289" y="405" type="curve" smooth="yes"/>
      <point x="395" y="405"/>
      <point x="480" y="326"/>
      <point x="480" y="203" type="curve" smooth="yes"/>
      <point x="480" y="76"/>
      <point x="385" y="-5"/>
      <point x="264" y="-5" type="curve" smooth="yes"/>
      <point x="122" y="-5"/>
      <point x="51" y="88"/>
      <point x="51" y="247" type="curve" smooth="yes"/>
      <point x="51" y="536"/>
      <point x="309" y="702"/>
    </contour>
    <contour>
      <point x="264" y="333" type="curve" smooth="yes"/>
      <point x="211" y="333"/>
      <point x="167" y="315"/>
      <point x="139" y="299" type="curve"/>
      <point x="137" y="279"/>
      <point x="135" y="258"/>
      <point x="135" y="239" type="curve" smooth="yes"/>
      <point x="135" y="99"/>
      <point x="206" y="67"/>
      <point x="269" y="67" type="curve" smooth="yes"/>
      <point x="323" y="67"/>
      <point x="395" y="107"/>
      <point x="395" y="199" type="curve" smooth="yes"/>
      <point x="395" y="297"/>
      <point x="330" y="333"/>
    </contour>
  </outline>
</glyph>
<glyph name="seven" format="1">
  <advance width="535"/>
  <unicode hex="0037"/>
  <outline>
    <contour>
      <point x="75" y="700" type="curve" smooth="yes"/>
      <point x="470" y="700" type="line" smooth="yes"/>
      <point x="478" y="700"/>
      <point x="490" y="669"/>
      <point x="490" y="649" type="curve" smooth="yes"/>
      <point x="490" y="645"/>
      <point x="489" y="641"/>
      <point x="488" y="638" type="curve" smooth="yes"/>
      <point x="192" y="14" type="line" smooth="yes"/>
      <point x="187" y="4"/>
      <point x="172" y="-2"/>
      <point x="152" y="-2" type="curve" smooth="yes"/>
      <point x="140" y="-2" type="line" smooth="yes"/>
      <point x="111" y="-2"/>
      <point x="97" y="2"/>
      <point x="97" y="16" type="curve" smooth="yes"/>
      <point x="97" y="19"/>
      <point x="99" y="23"/>
      <point x="101" y="28" type="curve" smooth="yes"/>
      <point x="390" y="628" type="line"/>
      <point x="75" y="628" type="line" smooth="yes"/>
      <point x="61" y="628"/>
      <point x="55" y="637"/>
      <point x="55" y="658" type="curve" smooth="yes"/>
      <point x="55" y="670" type="line" smooth="yes"/>
      <point x="55" y="691"/>
      <point x="61" y="700"/>
    </contour>
  </outline>
</glyph>
<glyph name="nine" format="1">
  <advance width="535"/>
  <unicode hex="0039"/>
  <outline>
    <contour>
      <point x="271" y="705" type="curve" smooth="yes"/>
      <point x="413" y="705"/>
      <point x="484" y="612"/>
      <point x="484" y="453" type="curve" smooth="yes"/>
      <point x="484" y="164"/>
      <point x="226" y="-2"/>
      <point x="159" y="-2" type="curve" smooth="yes"/>
      <point x="138" y="-2"/>
      <point x="126" y="39"/>
      <point x="126" y="51" type="curve" smooth="yes"/>
      <point x="126" y="54"/>
      <point x="127" y="59"/>
      <point x="134" y="62" type="curve" smooth="yes"/>
      <point x="270" y="118"/>
      <point x="349" y="216"/>
      <point x="381" y="328" type="curve"/>
      <point x="350" y="310"/>
      <point x="307" y="295"/>
      <point x="246" y="295" type="curve" smooth="yes"/>
      <point x="140" y="295"/>
      <point x="55" y="374"/>
      <point x="55" y="497" type="curve" smooth="yes"/>
      <point x="55" y="624"/>
      <point x="150" y="705"/>
    </contour>
    <contour>
      <point x="266" y="633" type="curve" smooth="yes"/>
      <point x="212" y="633"/>
      <point x="140" y="593"/>
      <point x="140" y="501" type="curve" smooth="yes"/>
      <point x="140" y="403"/>
      <point x="205" y="367"/>
      <point x="271" y="367" type="curve" smooth="yes"/>
      <point x="324" y="367"/>
      <point x="368" y="385"/>
      <point x="396" y="401" type="curve"/>
      <point x="398" y="421"/>
      <point x="400" y="442"/>
      <point x="400" y="461" type="curve" smooth="yes"/>
      <point x="400" y="601"/>
      <point x="329" y="633"/>
    </contour>
  </outline>
</glyph>
<glyph name="semicolon" format="1">
  <advance width="198"/>
  <unicode hex="003B"/>
  <outline>
    <contour>
      <point x="91" y="525" type="curve" smooth="yes"/>
      <point x="108" y="525" type="line" smooth="yes"/>
      <point x="136" y="525"/>
      <point x="148" y="517"/>
      <point x="148" y="503" type="curve" smooth="yes"/>
      <point x="148" y="437" type="line" smooth="yes"/>
      <point x="148" y="423"/>
      <point x="136" y="415"/>
      <point x="108" y="415" type="curve" smooth="yes"/>
      <point x="91" y="415" type="line" smooth="yes"/>
      <point x="63" y="415"/>
      <point x="51" y="423"/>
      <point x="51" y="437" type="curve" smooth="yes"/>
      <point x="51" y="503" type="line" smooth="yes"/>
      <point x="51" y="517"/>
      <point x="63" y="525"/>
    </contour>
    <contour>
      <point x="95" y="108" type="curve" smooth="yes"/>
      <point x="104" y="108" type="line" smooth="yes"/>
      <point x="129" y="108"/>
      <point x="144" y="97"/>
      <point x="144" y="80" type="curve" smooth="yes"/>
      <point x="144" y="-40"/>
      <point x="74" y="-116"/>
      <point x="41" y="-116" type="curve" smooth="yes"/>
      <point x="30" y="-116"/>
      <point x="12" y="-113"/>
      <point x="12" y="-101" type="curve" smooth="yes"/>
      <point x="12" y="-95"/>
      <point x="17" y="-85"/>
      <point x="21" y="-77" type="curve" smooth="yes"/>
      <point x="43" y="-33"/>
      <point x="55" y="14"/>
      <point x="55" y="76" type="curve" smooth="yes"/>
      <point x="55" y="95"/>
      <point x="68" y="108"/>
    </contour>
  </outline>
</glyph>
<glyph name="less" format="1">
  <advance width="560"/>
  <unicode hex="003C"/>
  <outline>
    <contour>
      <point x="492" y="448" type="curve" smooth="yes"/>
      <point x="504" y="448"/>
      <point x="513" y="439"/>
      <point x="513" y="422" type="curve" smooth="yes"/>
      <point x="513" y="408" type="line" smooth="yes"/>
      <point x="513" y="391"/>
      <point x="505" y="379"/>
      <point x="489" y="373" type="curve" smooth="yes"/>
      <point x="133" y="228" type="line"/>
      <point x="489" y="82" type="line" smooth="yes"/>
      <point x="505" y="75"/>
      <point x="513" y="64"/>
      <point x="513" y="47" type="curve" smooth="yes"/>
      <point x="513" y="33" type="line" smooth="yes"/>
      <point x="513" y="16"/>
      <point x="504" y="7"/>
      <point x="492" y="7" type="curve" smooth="yes"/>
      <point x="487" y="7"/>
      <point x="482" y="8"/>
      <point x="477" y="10" type="curve" smooth="yes"/>
      <point x="66" y="184" type="line" smooth="yes"/>
      <point x="50" y="191"/>
      <point x="41" y="202"/>
      <point x="41" y="219" type="curve" smooth="yes"/>
      <point x="41" y="236" type="line" smooth="yes"/>
      <point x="41" y="253"/>
      <point x="50" y="264"/>
      <point x="66" y="271" type="curve" smooth="yes"/>
      <point x="477" y="445" type="line" smooth="yes"/>
      <point x="482" y="447"/>
      <point x="487" y="448"/>
    </contour>
  </outline>
</glyph>
<glyph name="equal" format="1">
  <advance width="560"/>
  <unicode hex="003D"/>
  <outline>
    <contour>
      <point x="78" y="338" type="curve" smooth="yes"/>
      <point x="482" y="338" type="line" smooth="yes"/>
      <point x="502" y="338"/>
      <point x="512" y="328"/>
      <point x="512" y="308" type="curve" smooth="yes"/>
      <point x="512" y="301" type="line" smooth="yes"/>
      <point x="512" y="282"/>
      <point x="502" y="271"/>
      <point x="482" y="271" type="curve" smooth="yes"/>
      <point x="78" y="271" type="line" smooth="yes"/>
      <point x="59" y="271"/>
      <point x="48" y="282"/>
      <point x="48" y="301" type="curve" smooth="yes"/>
      <point x="48" y="308" type="line" smooth="yes"/>
      <point x="48" y="328"/>
      <point x="59" y="338"/>
    </contour>
    <contour>
      <point x="78" y="175" type="curve" smooth="yes"/>
      <point x="482" y="175" type="line" smooth="yes"/>
      <point x="502" y="175"/>
      <point x="512" y="165"/>
      <point x="512" y="145" type="curve" smooth="yes"/>
      <point x="512" y="137" type="line" smooth="yes"/>
      <point x="512" y="118"/>
      <point x="502" y="107"/>
      <point x="482" y="107" type="curve" smooth="yes"/>
      <point x="78" y="107" type="line" smooth="yes"/>
      <point x="59" y="107"/>
      <point x="48" y="118"/>
      <point x="48" y="137" type="curve" smooth="yes"/>
      <point x="48" y="145" type="line" smooth="yes"/>
      <point x="48" y="165"/>
      <point x="59" y="175"/>
    </contour>
  </outline>
</glyph>
<glyph name="greater" format="1">
  <advance width="560"/>
  <unicode hex="003E"/>
  <outline>
    <contour>
      <point x="67" y="447" type="curve" smooth="yes"/>
      <point x="72" y="447"/>
      <point x="77" y="446"/>
      <point x="82" y="444" type="curve" smooth="yes"/>
      <point x="493" y="270" type="line" smooth="yes"/>
      <point x="509" y="263"/>
      <point x="518" y="252"/>
      <point x="518" y="235" type="curve" smooth="yes"/>
      <point x="518" y="218" type="line" smooth="yes"/>
      <point x="518" y="201"/>
      <point x="509" y="190"/>
      <point x="493" y="183" type="curve" smooth="yes"/>
      <point x="82" y="9" type="line" smooth="yes"/>
      <point x="77" y="7"/>
      <point x="72" y="6"/>
      <point x="67" y="6" type="curve" smooth="yes"/>
      <point x="55" y="6"/>
      <point x="46" y="15"/>
      <point x="46" y="32" type="curve" smooth="yes"/>
      <point x="46" y="46" type="line" smooth="yes"/>
      <point x="46" y="63"/>
      <point x="54" y="74"/>
      <point x="70" y="81" type="curve" smooth="yes"/>
      <point x="426" y="227" type="line"/>
      <point x="70" y="372" type="line" smooth="yes"/>
      <point x="54" y="378"/>
      <point x="46" y="390"/>
      <point x="46" y="407" type="curve" smooth="yes"/>
      <point x="46" y="421" type="line" smooth="yes"/>
      <point x="46" y="438"/>
      <point x="55" y="447"/>
    </contour>
  </outline>
</glyph>
<glyph name="B" format="1">
  <advance width="593"/>
  <unicode hex="0042"/>
  <outline>
    <contour>
      <point x="127" y="700" type="curve" smooth="yes"/>
      <point x="306" y="700" type="line" smooth="yes"/>
      <point x="455" y="700"/>
      <point x="530" y="628"/>
      <point x="530" y="523" type="curve" smooth="yes"/>
      <point x="530" y="456"/>
      <point x="478" y="387"/>
      <point x="420" y="371" type="curve"/>
      <point x="420" y="367" type="line"/>
      <point x="420" y="367"/>
      <point x="560" y="333"/>
      <point x="560" y="201" type="curve" smooth="yes"/>
      <point x="560" y="62"/>
      <point x="467" y="0"/>
      <point x="299" y="0" type="curve" smooth="yes"/>
      <point x="127" y="0" type="line" smooth="yes"/>
      <point x="106" y="0"/>
      <point x="97" y="9"/>
      <point x="97" y="30" type="curve" smooth="yes"/>
      <point x="97" y="670" type="line" smooth="yes"/>
      <point x="97" y="691"/>
      <point x="106" y="700"/>
    </contour>
    <contour>
      <point x="185" y="624" type="line"/>
      <point x="185" y="398" type="line"/>
      <point x="301" y="398" type="line" smooth="yes"/>
      <point x="382" y="398"/>
      <point x="439" y="450"/>
      <point x="439" y="515" type="curve" smooth="yes"/>
      <point x="439" y="589"/>
      <point x="397" y="624"/>
      <point x="297" y="624" type="curve" smooth="yes"/>
    </contour>
    <contour>
      <point x="185" y="322" type="line"/>
      <point x="185" y="76" type="line"/>
      <point x="331" y="76" type="line" smooth="yes"/>
      <point x="420" y="76"/>
      <point x="469" y="126"/>
      <point x="469" y="205" type="curve" smooth="yes"/>
      <point x="469" y="278"/>
      <point x="417" y="322"/>
      <point x="314" y="322" type="curve" smooth="yes"/>
    </contour>
  </outline>
</glyph>
<glyph name="C" format="1">
  <advance width="619"/>
  <unicode hex="0043"/>
  <outline>
    <contour>
      <point x="355" y="700" type="move" name="Anchor-1"/>
    </contour>
    <contour>
      <point x="361" y="0" type="move" name="Anchor-0"/>
    </contour>
    <contour>
      <point x="381" y="706" type="curve" smooth="yes"/>
      <point x="480" y="706"/>
      <point x="572" y="671"/>
      <point x="572" y="644" type="curve" smooth="yes"/>
      <point x="572" y="627"/>
      <point x="551" y="586"/>
      <point x="538" y="586" type="curve" smooth="yes"/>
      <point x="527" y="586"/>
      <point x="479" y="630"/>
      <point x="383" y="630" type="curve" smooth="yes"/>
      <point x="223" y="630"/>
      <point x="148" y="546"/>
      <point x="148" y="349" type="curve" smooth="yes"/>
      <point x="148" y="157"/>
      <point x="222" y="70"/>
      <point x="379" y="70" type="curve" smooth="yes"/>
      <point x="482" y="70"/>
      <point x="538" y="120"/>
      <point x="551" y="120" type="curve" smooth="yes"/>
      <point x="564" y="120"/>
      <point x="586" y="78"/>
      <point x="586" y="66" type="curve" smooth="yes"/>
      <point x="586" y="39"/>
      <point x="496" y="-6"/>
      <point x="379" y="-6" type="curve" smooth="yes"/>
      <point x="160" y="-6"/>
      <point x="57" y="106"/>
      <point x="57" y="350" type="curve" smooth="yes"/>
      <point x="57" y="589"/>
      <point x="167" y="706"/>
    </contour>
  </outline>
</glyph>
<glyph name="D" format="1">
  <advance width="695"/>
  <unicode hex="0044"/>
  <outline>
    <contour>
      <point x="312" y="700" type="move" name="Anchor-1"/>
    </contour>
    <contour>
      <point x="327" y="0" type="move" name="Anchor-0"/>
    </contour>
    <contour>
      <point x="127" y="700" type="curve" smooth="yes"/>
      <point x="329" y="700" type="line" smooth="yes"/>
      <point x="501" y="700"/>
      <point x="638" y="609"/>
      <point x="638" y="350" type="curve" smooth="yes"/>
      <point x="638" y="90"/>
      <point x="501" y="0"/>
      <point x="329" y="0" type="curve" smooth="yes"/>
      <point x="127" y="0" type="line" smooth="yes"/>
      <point x="106" y="0"/>
      <point x="97" y="9"/>
      <point x="97" y="30" type="curve" smooth="yes"/>
      <point x="97" y="670" type="line" smooth="yes"/>
      <point x="97" y="691"/>
      <point x="106" y="700"/>
    </contour>
    <contour>
      <point x="185" y="624" type="line"/>
      <point x="185" y="76" type="line"/>
      <point x="322" y="76" type="line" smooth="yes"/>
      <point x="447" y="76"/>
      <point x="547" y="150"/>
      <point x="547" y="350" type="curve" smooth="yes"/>
      <point x="547" y="549"/>
      <point x="447" y="624"/>
      <point x="322" y="624" type="curve" smooth="yes"/>
    </contour>
  </outline>
</glyph>
<glyph name="F" format="1">
  <advance width="503"/>
  <unicode hex="0046"/>
  <outline>
    <contour>
      <point x="127" y="700" type="curve" smooth="yes"/>
      <point x="442" y="700" type="line" smooth="yes"/>
      <point x="456" y="700"/>
      <point x="462" y="691"/>
      <point x="462" y="670" type="curve" smooth="yes"/>
      <point x="462" y="654" type="line" smooth="yes"/>
      <point x="462" y="633"/>
      <point x="456" y="624"/>
      <point x="442" y="624" type="curve" smooth="yes"/>
      <point x="185" y="624" type="line"/>
      <point x="185" y="396" type="line"/>
      <point x="424" y="396" type="line" smooth="yes"/>
      <point x="438" y="396"/>
      <point x="444" y="387"/>
      <point x="444" y="366" type="curve" smooth="yes"/>
      <point x="444" y="350" type="line" smooth="yes"/>
      <point x="444" y="329"/>
      <point x="438" y="320"/>
      <point x="424" y="320" type="curve" smooth="yes"/>
      <point x="185" y="320" type="line"/>
      <point x="185" y="20" type="line" smooth="yes"/>
      <point x="185" y="6"/>
      <point x="173" y="-2"/>
      <point x="145" y="-2" type="curve" smooth="yes"/>
      <point x="137" y="-2" type="line" smooth="yes"/>
      <point x="109" y="-2"/>
      <point x="97" y="6"/>
      <point x="97" y="20" type="curve" smooth="yes"/>
      <point x="97" y="670" type="line" smooth="yes"/>
      <point x="97" y="691"/>
      <point x="106" y="700"/>
    </contour>
  </outline>
</glyph>
<glyph name="H" format="1">
  <advance width="733"/>
  <unicode hex="0048"/>
  <outline>
    <contour>
      <point x="367" y="700" type="move" name="Anchor-1"/>
    </contour>
    <contour>
      <point x="376" y="0" type="move" name="Anchor-0"/>
    </contour>
    <contour>
      <point x="587" y="702" type="curve" smooth="yes"/>
      <point x="595" y="702" type="line" smooth="yes"/>
      <point x="623" y="702"/>
      <point x="635" y="694"/>
      <point x="635" y="680" type="curve" smooth="yes"/>
      <point x="635" y="20" type="line" smooth="yes"/>
      <point x="635" y="6"/>
      <point x="623" y="-2"/>
      <point x="595" y="-2" type="curve" smooth="yes"/>
      <point x="587" y="-2" type="line" smooth="yes"/>
      <point x="559" y="-2"/>
      <point x="547" y="6"/>
      <point x="547" y="20" type="curve" smooth="yes"/>
      <point x="547" y="321" type="line"/>
      <point x="185" y="321" type="line"/>
      <point x="185" y="20" type="line" smooth="yes"/>
      <point x="185" y="6"/>
      <point x="173" y="-2"/>
      <point x="145" y="-2" type="curve" smooth="yes"/>
      <point x="137" y="-2" type="line" smooth="yes"/>
      <point x="109" y="-2"/>
      <point x="97" y="6"/>
      <point x="97" y="20" type="curve" smooth="yes"/>
      <point x="97" y="680" type="line" smooth="yes"/>
      <point x="97" y="694"/>
      <point x="109" y="702"/>
      <point x="137" y="702" type="curve" smooth="yes"/>
      <point x="145" y="702" type="line" smooth="yes"/>
      <point x="173" y="702"/>
      <point x="185" y="694"/>
      <point x="185" y="680" type="curve" smooth="yes"/>
      <point x="185" y="397" type="line"/>
      <point x="547" y="397" type="line"/>
      <point x="547" y="680" type="line" smooth="yes"/>
      <point x="547" y="694"/>
      <point x="559" y="702"/>
    </contour>
  </outline>
</glyph>
<glyph name="I" format="1">
  <advance width="282"/>
  <unicode hex="0049"/>
  <outline>
    <contour>
      <point x="141" y="700" type="move" name="Anchor-1"/>
    </contour>
    <contour>
      <point x="140" y="0" type="move" name="Anchor-0"/>
    </contour>
    <contour>
      <point x="137" y="702" type="curve" smooth="yes"/>
      <point x="145" y="702" type="line" smooth="yes"/>
      <point x="173" y="702"/>
      <point x="185" y="694"/>
      <point x="185" y="680" type="curve" smooth="yes"/>
      <point x="185" y="20" type="line" smooth="yes"/>
      <point x="185" y="6"/>
      <point x="173" y="-2"/>
      <point x="145" y="-2" type="curve" smooth="yes"/>
      <point x="137" y="-2" type="line" smooth="yes"/>
      <point x="109" y="-2"/>
      <point x="97" y="6"/>
      <point x="97" y="20" type="curve" smooth="yes"/>
      <point x="97" y="680" type="line" smooth="yes"/>
      <point x="97" y="694"/>
      <point x="109" y="702"/>
    </contour>
  </outline>
</glyph>
<glyph name="J" format="1">
  <advance width="402"/>
  <unicode hex="004A"/>
  <outline>
    <contour>
      <point x="271" y="700" type="move" name="Anchor-1"/>
    </contour>
    <contour>
      <point x="0" y="0" type="move" name="Anchor-0"/>
    </contour>
    <contour>
      <point x="271" y="702" type="curve" smooth="yes"/>
      <point x="279" y="702" type="line" smooth="yes"/>
      <point x="307" y="702"/>
      <point x="319" y="694"/>
      <point x="319" y="680" type="curve" smooth="yes"/>
      <point x="319" y="205" type="line" smooth="yes"/>
      <point x="319" y="79"/>
      <point x="261" y="-6"/>
      <point x="107" y="-6" type="curve" smooth="yes"/>
      <point x="69" y="-6"/>
      <point x="6" y="-1"/>
      <point x="6" y="26" type="curve" smooth="yes"/>
      <point x="6" y="30"/>
      <point x="12" y="81"/>
      <point x="28" y="81" type="curve" smooth="yes"/>
      <point x="36" y="81"/>
      <point x="59" y="72"/>
      <point x="91" y="72" type="curve" smooth="yes"/>
      <point x="190" y="72"/>
      <point x="231" y="109"/>
      <point x="231" y="195" type="curve" smooth="yes"/>
      <point x="231" y="680" type="line" smooth="yes"/>
      <point x="231" y="694"/>
      <point x="243" y="702"/>
    </contour>
  </outline>
</glyph>
<glyph name="M" format="1">
  <advance width="843"/>
  <unicode hex="004D"/>
  <outline>
    <contour>
      <point x="680" y="702" type="curve" smooth="yes"/>
      <point x="713" y="702" type="line" smooth="yes"/>
      <point x="741" y="702"/>
      <point x="753" y="694"/>
      <point x="753" y="680" type="curve" smooth="yes"/>
      <point x="753" y="20" type="line" smooth="yes"/>
      <point x="753" y="6"/>
      <point x="741" y="-2"/>
      <point x="713" y="-2" type="curve" smooth="yes"/>
      <point x="706" y="-2" type="line" smooth="yes"/>
      <point x="678" y="-2"/>
      <point x="666" y="6"/>
      <point x="666" y="20" type="curve" smooth="yes"/>
      <point x="666" y="558" type="line"/>
      <point x="664" y="554" type="line"/>
      <point x="465" y="208" type="line" smooth="yes"/>
      <point x="460" y="199"/>
      <point x="454" y="195"/>
      <point x="443" y="195" type="curve" smooth="yes"/>
      <point x="403" y="195" type="line" smooth="yes"/>
      <point x="393" y="195"/>
      <point x="386" y="199"/>
      <point x="381" y="208" type="curve" smooth="yes"/>
      <point x="179" y="560" type="line"/>
      <point x="177" y="564" type="line"/>
      <point x="177" y="20" type="line" smooth="yes"/>
      <point x="177" y="6"/>
      <point x="165" y="-2"/>
      <point x="137" y="-2" type="curve" smooth="yes"/>
      <point x="130" y="-2" type="line" smooth="yes"/>
      <point x="102" y="-2"/>
      <point x="90" y="6"/>
      <point x="90" y="20" type="curve" smooth="yes"/>
      <point x="90" y="680" type="line" smooth="yes"/>
      <point x="90" y="694"/>
      <point x="102" y="702"/>
      <point x="130" y="702" type="curve" smooth="yes"/>
      <point x="166" y="702" type="line" smooth="yes"/>
      <point x="190" y="702"/>
      <point x="202" y="695"/>
      <point x="208" y="684" type="curve" smooth="yes"/>
      <point x="397" y="356" type="line"/>
      <point x="423" y="293" type="line"/>
      <point x="449" y="350" type="line"/>
      <point x="638" y="684" type="line" smooth="yes"/>
      <point x="644" y="695"/>
      <point x="656" y="702"/>
    </contour>
  </outline>
</glyph>
<glyph name="O" format="1">
  <advance width="731"/>
  <unicode hex="004F"/>
  <outline>
    <contour>
      <point x="366" y="700" type="move" name="Anchor-1"/>
    </contour>
    <contour>
      <point x="367" y="0" type="move" name="Anchor-0"/>
    </contour>
    <contour>
      <point x="365" y="706" type="curve" smooth="yes"/>
      <point x="566" y="706"/>
      <point x="674" y="586"/>
      <point x="674" y="352" type="curve" smooth="yes"/>
      <point x="674" y="118"/>
      <point x="566" y="-6"/>
      <point x="365" y="-6" type="curve" smooth="yes"/>
      <point x="165" y="-6"/>
      <point x="57" y="118"/>
      <point x="57" y="352" type="curve" smooth="yes"/>
      <point x="57" y="586"/>
      <point x="165" y="706"/>
    </contour>
    <contour>
      <point x="365" y="630" type="curve" smooth="yes"/>
      <point x="224" y="630"/>
      <point x="148" y="536"/>
      <point x="148" y="352" type="curve" smooth="yes"/>
      <point x="148" y="168"/>
      <point x="224" y="70"/>
      <point x="365" y="70" type="curve" smooth="yes"/>
      <point x="506" y="70"/>
      <point x="583" y="168"/>
      <point x="583" y="352" type="curve" smooth="yes"/>
      <point x="583" y="536"/>
      <point x="506" y="630"/>
    </contour>
  </outline>
</glyph>
<glyph name="P" format="1">
  <advance width="570"/>
  <unicode hex="0050"/>
  <outline>
    <contour>
      <point x="115" y="700" type="curve" smooth="yes"/>
      <point x="318" y="700" type="line" smooth="yes"/>
      <point x="404" y="700"/>
      <point x="541" y="673"/>
      <point x="541" y="504" type="curve" smooth="yes"/>
      <point x="541" y="321"/>
      <point x="380" y="298"/>
      <point x="328" y="298" type="curve" smooth="yes"/>
      <point x="173" y="298" type="line"/>
      <point x="173" y="20" type="line" smooth="yes"/>
      <point x="173" y="6"/>
      <point x="161" y="-2"/>
      <point x="133" y="-2" type="curve" smooth="yes"/>
      <point x="125" y="-2" type="line" smooth="yes"/>
      <point x="97" y="-2"/>
      <point x="85" y="6"/>
      <point x="85" y="20" type="curve" smooth="yes"/>
      <point x="85" y="670" type="line" smooth="yes"/>
      <point x="85" y="691"/>
      <point x="94" y="700"/>
    </contour>
    <contour>
      <point x="173" y="624" type="line"/>
      <point x="173" y="374" type="line"/>
      <point x="329" y="374" type="line" smooth="yes"/>
      <point x="369" y="374"/>
      <point x="450" y="395"/>
      <point x="450" y="504" type="curve" smooth="yes"/>
      <point x="450" y="603"/>
      <point x="374" y="624"/>
      <point x="315" y="624" type="curve" smooth="yes"/>
    </contour>
  </outline>
</glyph>
<glyph name="Q" format="1">
  <advance width="731"/>
  <unicode hex="0051"/>
  <outline>
    <contour>
      <point x="365" y="706" type="curve" smooth="yes"/>
      <point x="566" y="706"/>
      <point x="674" y="581"/>
      <point x="674" y="347" type="curve" smooth="yes"/>
      <point x="674" y="157"/>
      <point x="603" y="40"/>
      <point x="473" y="5" type="curve"/>
      <point x="473" y="1" type="line"/>
      <point x="670" y="-61" type="line" smooth="yes"/>
      <point x="679" y="-64"/>
      <point x="684" y="-69"/>
      <point x="684" y="-76" type="curve" smooth="yes"/>
      <point x="684" y="-88"/>
      <point x="665" y="-148"/>
      <point x="642" y="-148" type="curve" smooth="yes"/>
      <point x="630" y="-148"/>
      <point x="275" y="-6"/>
      <point x="246" y="6" type="curve" smooth="yes"/>
      <point x="120" y="56"/>
      <point x="57" y="168"/>
      <point x="57" y="347" type="curve" smooth="yes"/>
      <point x="57" y="582"/>
      <point x="165" y="706"/>
    </contour>
    <contour>
      <point x="365" y="630" type="curve" smooth="yes"/>
      <point x="227" y="630"/>
      <point x="148" y="530"/>
      <point x="148" y="347" type="curve" smooth="yes"/>
      <point x="148" y="165"/>
      <point x="227" y="67"/>
      <point x="365" y="67" type="curve" smooth="yes"/>
      <point x="504" y="67"/>
      <point x="583" y="166"/>
      <point x="583" y="347" type="curve" smooth="yes"/>
      <point x="583" y="529"/>
      <point x="504" y="630"/>
    </contour>
  </outline>
</glyph>
<glyph name="R" format="1">
  <advance width="610"/>
  <unicode hex="0052"/>
  <outline>
    <contour>
      <point x="305" y="700" type="move" name="Anchor-1"/>
    </contour>
    <contour>
      <point x="305" y="0" type="move" name="Anchor-0"/>
    </contour>
    <contour>
      <point x="127" y="700" type="curve" smooth="yes"/>
      <point x="295" y="700" type="line" smooth="yes"/>
      <point x="451" y="700"/>
      <point x="536" y="649"/>
      <point x="536" y="523" type="curve" smooth="yes"/>
      <point x="536" y="437"/>
      <point x="491" y="382"/>
      <point x="421" y="354" type="curve"/>
      <point x="421" y="350" type="line"/>
      <point x="463" y="336"/>
      <point x="485" y="291"/>
      <point x="511" y="225" type="curve" smooth="yes"/>
      <point x="589" y="28" type="line" smooth="yes"/>
      <point x="591" y="22"/>
      <point x="592" y="17"/>
      <point x="592" y="14" type="curve" smooth="yes"/>
      <point x="592" y="4"/>
      <point x="579" y="-2"/>
      <point x="550" y="-2" type="curve" smooth="yes"/>
      <point x="540" y="-2" type="line" smooth="yes"/>
      <point x="520" y="-2"/>
      <point x="504" y="4"/>
      <point x="500" y="14" type="curve" smooth="yes"/>
      <point x="424" y="210" type="line" smooth="yes"/>
      <point x="394" y="288"/>
      <point x="353" y="308"/>
      <point x="275" y="308" type="curve" smooth="yes"/>
      <point x="185" y="308" type="line"/>
      <point x="185" y="20" type="line" smooth="yes"/>
      <point x="185" y="6"/>
      <point x="173" y="-2"/>
      <point x="145" y="-2" type="curve" smooth="yes"/>
      <point x="137" y="-2" type="line" smooth="yes"/>
      <point x="109" y="-2"/>
      <point x="97" y="6"/>
      <point x="97" y="20" type="curve" smooth="yes"/>
      <point x="97" y="670" type="line" smooth="yes"/>
      <point x="97" y="691"/>
      <point x="106" y="700"/>
    </contour>
    <contour>
      <point x="185" y="624" type="line"/>
      <point x="185" y="384" type="line"/>
      <point x="317" y="384" type="line" smooth="yes"/>
      <point x="389" y="384"/>
      <point x="445" y="441"/>
      <point x="445" y="507" type="curve" smooth="yes"/>
      <point x="445" y="588"/>
      <point x="391" y="624"/>
      <point x="310" y="624" type="curve" smooth="yes"/>
    </contour>
  </outline>
</glyph>
<glyph name="S" format="1">
  <advance width="500"/>
  <unicode hex="0053"/>
  <outline>
    <contour>
      <point x="250" y="700" type="move" name="Anchor-1"/>
    </contour>
    <contour>
      <point x="250" y="0" type="move" name="Anchor-0"/>
    </contour>
    <contour>
      <point x="272" y="706" type="curve" smooth="yes"/>
      <point x="329" y="706"/>
      <point x="433" y="681"/>
      <point x="433" y="645" type="curve" smooth="yes"/>
      <point x="433" y="630"/>
      <point x="411" y="592"/>
      <point x="401" y="592" type="curve" smooth="yes"/>
      <point x="386" y="592"/>
      <point x="349" y="630"/>
      <point x="270" y="630" type="curve" smooth="yes"/>
      <point x="195" y="630"/>
      <point x="141" y="590"/>
      <point x="141" y="517" type="curve" smooth="yes"/>
      <point x="141" y="444"/>
      <point x="205" y="425"/>
      <point x="277" y="398" type="curve" smooth="yes"/>
      <point x="366" y="364"/>
      <point x="466" y="324"/>
      <point x="466" y="188" type="curve" smooth="yes"/>
      <point x="466" y="68"/>
      <point x="379" y="-6"/>
      <point x="244" y="-6" type="curve" smooth="yes"/>
      <point x="127" y="-6"/>
      <point x="37" y="40"/>
      <point x="37" y="67" type="curve" smooth="yes"/>
      <point x="37" y="83"/>
      <point x="61" y="121"/>
      <point x="72" y="121" type="curve" smooth="yes"/>
      <point x="85" y="121"/>
      <point x="141" y="70"/>
      <point x="244" y="70" type="curve" smooth="yes"/>
      <point x="320" y="70"/>
      <point x="375" y="117"/>
      <point x="375" y="188" type="curve" smooth="yes"/>
      <point x="375" y="268"/>
      <point x="301" y="294"/>
      <point x="224" y="324" type="curve" smooth="yes"/>
      <point x="139" y="357"/>
      <point x="50" y="390"/>
      <point x="50" y="521" type="curve" smooth="yes"/>
      <point x="50" y="629"/>
      <point x="138" y="706"/>
    </contour>
  </outline>
</glyph>
<glyph name="T" format="1">
  <advance width="549"/>
  <unicode hex="0054"/>
  <outline>
    <contour>
      <point x="275" y="700" type="move" name="Anchor-1"/>
    </contour>
    <contour>
      <point x="275" y="0" type="move" name="Anchor-0"/>
    </contour>
    <contour>
      <point x="40" y="700" type="curve" smooth="yes"/>
      <point x="509" y="700" type="line" smooth="yes"/>
      <point x="523" y="700"/>
      <point x="529" y="691"/>
      <point x="529" y="670" type="curve" smooth="yes"/>
      <point x="529" y="654" type="line" smooth="yes"/>
      <point x="529" y="633"/>
      <point x="523" y="624"/>
      <point x="509" y="624" type="curve" smooth="yes"/>
      <point x="320" y="624" type="line"/>
      <point x="320" y="20" type="line" smooth="yes"/>
      <point x="320" y="6"/>
      <point x="308" y="-2"/>
      <point x="280" y="-2" type="curve" smooth="yes"/>
      <point x="272" y="-2" type="line" smooth="yes"/>
      <point x="244" y="-2"/>
      <point x="232" y="6"/>
      <point x="232" y="20" type="curve" smooth="yes"/>
      <point x="232" y="624" type="line"/>
      <point x="40" y="624" type="line" smooth="yes"/>
      <point x="26" y="624"/>
      <point x="20" y="633"/>
      <point x="20" y="654" type="curve" smooth="yes"/>
      <point x="20" y="670" type="line" smooth="yes"/>
      <point x="20" y="691"/>
      <point x="26" y="700"/>
    </contour>
  </outline>
</glyph>
<glyph name="U" format="1">
  <advance width="712"/>
  <unicode hex="0055"/>
  <outline>
    <contour>
      <point x="356" y="700" type="move" name="Anchor-1"/>
    </contour>
    <contour>
      <point x="357" y="0" type="move" name="Anchor-0"/>
    </contour>
    <contour>
      <point x="581" y="702" type="curve" smooth="yes"/>
      <point x="589" y="702" type="line" smooth="yes"/>
      <point x="617" y="702"/>
      <point x="629" y="694"/>
      <point x="629" y="680" type="curve" smooth="yes"/>
      <point x="629" y="224" type="line" smooth="yes"/>
      <point x="629" y="80"/>
      <point x="532" y="-6"/>
      <point x="356" y="-6" type="curve" smooth="yes"/>
      <point x="179" y="-6"/>
      <point x="83" y="80"/>
      <point x="83" y="224" type="curve" smooth="yes"/>
      <point x="83" y="680" type="line" smooth="yes"/>
      <point x="83" y="694"/>
      <point x="95" y="702"/>
      <point x="123" y="702" type="curve" smooth="yes"/>
      <point x="131" y="702" type="line" smooth="yes"/>
      <point x="159" y="702"/>
      <point x="171" y="694"/>
      <point x="171" y="680" type="curve" smooth="yes"/>
      <point x="171" y="221" type="line" smooth="yes"/>
      <point x="171" y="132"/>
      <point x="250" y="70"/>
      <point x="356" y="70" type="curve" smooth="yes"/>
      <point x="463" y="70"/>
      <point x="541" y="133"/>
      <point x="541" y="221" type="curve" smooth="yes"/>
      <point x="541" y="680" type="line" smooth="yes"/>
      <point x="541" y="694"/>
      <point x="553" y="702"/>
    </contour>
  </outline>
</glyph>
<glyph name="V" format="1">
  <advance width="617"/>
  <unicode hex="0056"/>
  <outline>
    <contour>
      <point x="547" y="702" type="curve" smooth="yes"/>
      <point x="553" y="702" type="line" smooth="yes"/>
      <point x="583" y="702"/>
      <point x="596" y="696"/>
      <point x="596" y="685" type="curve" smooth="yes"/>
      <point x="596" y="681"/>
      <point x="595" y="677"/>
      <point x="593" y="671" type="curve" smooth="yes"/>
      <point x="364" y="14" type="line" smooth="yes"/>
      <point x="360" y="2"/>
      <point x="344" y="-2"/>
      <point x="324" y="-2" type="curve" smooth="yes"/>
      <point x="293" y="-2" type="line" smooth="yes"/>
      <point x="273" y="-2"/>
      <point x="257" y="2"/>
      <point x="253" y="14" type="curve" smooth="yes"/>
      <point x="24" y="672" type="line" smooth="yes"/>
      <point x="22" y="677"/>
      <point x="21" y="681"/>
      <point x="21" y="685" type="curve" smooth="yes"/>
      <point x="21" y="695"/>
      <point x="34" y="702"/>
      <point x="64" y="702" type="curve" smooth="yes"/>
      <point x="73" y="702" type="line" smooth="yes"/>
      <point x="93" y="702"/>
      <point x="109" y="698"/>
      <point x="113" y="686" type="curve" smooth="yes"/>
      <point x="298" y="152" type="line"/>
      <point x="308" y="100" type="line"/>
      <point x="311" y="100" type="line"/>
      <point x="322" y="153" type="line"/>
      <point x="507" y="686" type="line" smooth="yes"/>
      <point x="511" y="698"/>
      <point x="527" y="702"/>
    </contour>
  </outline>
</glyph>
<glyph name="Y" format="1">
  <advance width="559"/>
  <unicode hex="0059"/>
  <outline>
    <contour>
      <point x="280" y="700" type="move" name="Anchor-1"/>
    </contour>
    <contour>
      <point x="279" y="0" type="move" name="Anchor-0"/>
    </contour>
    <contour>
      <point x="495" y="702" type="curve" smooth="yes"/>
      <point x="502" y="702" type="line" smooth="yes"/>
      <point x="530" y="701"/>
      <point x="541" y="696"/>
      <point x="541" y="685" type="curve" smooth="yes"/>
      <point x="541" y="680"/>
      <point x="537" y="674"/>
      <point x="533" y="667" type="curve" smooth="yes"/>
      <point x="323" y="356" type="line"/>
      <point x="323" y="20" type="line" smooth="yes"/>
      <point x="323" y="6"/>
      <point x="311" y="-2"/>
      <point x="283" y="-2" type="curve" smooth="yes"/>
      <point x="275" y="-2" type="line" smooth="yes"/>
      <point x="247" y="-2"/>
      <point x="235" y="6"/>
      <point x="235" y="20" type="curve" smooth="yes"/>
      <point x="235" y="359" type="line"/>
      <point x="26" y="667" type="line" smooth="yes"/>
      <point x="21" y="674"/>
      <point x="18" y="680"/>
      <point x="18" y="685" type="curve" smooth="yes"/>
      <point x="18" y="696"/>
      <point x="30" y="702"/>
      <point x="64" y="702" type="curve" smooth="yes"/>
      <point x="75" y="702" type="line" smooth="yes"/>
      <point x="96" y="702"/>
      <point x="110" y="699"/>
      <point x="118" y="687" type="curve" smooth="yes"/>
      <point x="282" y="441" type="line"/>
      <point x="450" y="688" type="line" smooth="yes"/>
      <point x="457" y="699"/>
      <point x="475" y="702"/>
    </contour>
  </outline>
</glyph>
<glyph name="Z" format="1">
  <advance width="616"/>
  <unicode hex="005A"/>
  <outline>
    <contour>
      <point x="308" y="700" type="move" name="Anchor-1"/>
    </contour>
    <contour>
      <point x="318" y="0" type="move" name="Anchor-0"/>
    </contour>
    <contour>
      <point x="91" y="700" type="curve" smooth="yes"/>
      <point x="549" y="700" type="line" smooth="yes"/>
      <point x="556" y="700"/>
      <point x="571" y="668"/>
      <point x="571" y="647" type="curve" smooth="yes"/>
      <point x="571" y="642"/>
      <point x="570" y="638"/>
      <point x="568" y="635" type="curve" smooth="yes"/>
      <point x="158" y="76" type="line"/>
      <point x="549" y="76" type="line" smooth="yes"/>
      <point x="563" y="76"/>
      <point x="569" y="66"/>
      <point x="569" y="42" type="curve" smooth="yes"/>
      <point x="569" y="34" type="line" smooth="yes"/>
      <point x="569" y="10"/>
      <point x="563" y="0"/>
      <point x="549" y="0" type="curve" smooth="yes"/>
      <point x="62" y="0" type="line" smooth="yes"/>
      <point x="52" y="0"/>
      <point x="38" y="33"/>
      <point x="38" y="53" type="curve" smooth="yes"/>
      <point x="38" y="58"/>
      <point x="39" y="62"/>
      <point x="41" y="65" type="curve" smooth="yes"/>
      <point x="451" y="624" type="line"/>
      <point x="91" y="624" type="line" smooth="yes"/>
      <point x="77" y="624"/>
      <point x="71" y="634"/>
      <point x="71" y="658" type="curve" smooth="yes"/>
      <point x="71" y="666" type="line" smooth="yes"/>
      <point x="71" y="690"/>
      <point x="77" y="700"/>
    </contour>
  </outline>
</glyph>
<glyph name="bracketleft" format="1">
  <advance width="291"/>
  <unicode hex="005B"/>
  <outline>
    <contour>
      <point x="120" y="768" type="curve" smooth="yes"/>
      <point x="241" y="768" type="line" smooth="yes"/>
      <point x="255" y="768"/>
      <point x="261" y="760"/>
      <point x="261" y="739" type="curve" smooth="yes"/>
      <point x="261" y="734" type="line" smooth="yes"/>
      <point x="261" y="713"/>
      <point x="255" y="705"/>
      <point x="241" y="705" type="curve" smooth="yes"/>
      <point x="164" y="705" type="line"/>
      <point x="164" y="-76" type="line"/>
      <point x="241" y="-76" type="line" smooth="yes"/>
      <point x="255" y="-76"/>
      <point x="261" y="-84"/>
      <point x="261" y="-105" type="curve" smooth="yes"/>
      <point x="261" y="-109" type="line" smooth="yes"/>
      <point x="261" y="-130"/>
      <point x="255" y="-138"/>
      <point x="241" y="-138" type="curve" smooth="yes"/>
      <point x="120" y="-138" type="line" smooth="yes"/>
      <point x="99" y="-138"/>
      <point x="90" y="-129"/>
      <point x="90" y="-108" type="curve" smooth="yes"/>
      <point x="90" y="738" type="line" smooth="yes"/>
      <point x="90" y="759"/>
      <point x="99" y="768"/>
    </contour>
  </outline>
</glyph>
<glyph name="backslash" format="1">
  <advance width="361"/>
  <unicode hex="005C"/>
  <outline>
    <contour>
      <point x="29" y="702" type="curve" smooth="yes"/>
      <point x="33" y="702" type="line" smooth="yes"/>
      <point x="50" y="702"/>
      <point x="61" y="695"/>
      <point x="68" y="679" type="curve" smooth="yes"/>
      <point x="354" y="15" type="line" smooth="yes"/>
      <point x="356" y="10"/>
      <point x="357" y="5"/>
      <point x="357" y="0" type="curve" smooth="yes"/>
      <point x="357" y="-12"/>
      <point x="348" y="-20"/>
      <point x="331" y="-20" type="curve" smooth="yes"/>
      <point x="327" y="-20" type="line" smooth="yes"/>
      <point x="310" y="-20"/>
      <point x="301" y="-13"/>
      <point x="294" y="3" type="curve" smooth="yes"/>
      <point x="8" y="667" type="line" smooth="yes"/>
      <point x="6" y="672"/>
      <point x="5" y="677"/>
      <point x="5" y="682" type="curve" smooth="yes"/>
      <point x="5" y="694"/>
      <point x="12" y="702"/>
    </contour>
  </outline>
</glyph>
<glyph name="bracketright" format="1">
  <advance width="291"/>
  <unicode hex="005D"/>
  <outline>
    <contour>
      <point x="50" y="768" type="curve" smooth="yes"/>
      <point x="171" y="768" type="line" smooth="yes"/>
      <point x="192" y="768"/>
      <point x="201" y="759"/>
      <point x="201" y="738" type="curve" smooth="yes"/>
      <point x="201" y="-108" type="line" smooth="yes"/>
      <point x="201" y="-129"/>
      <point x="192" y="-138"/>
      <point x="171" y="-138" type="curve" smooth="yes"/>
      <point x="50" y="-138" type="line" smooth="yes"/>
      <point x="36" y="-138"/>
      <point x="30" y="-130"/>
      <point x="30" y="-109" type="curve" smooth="yes"/>
      <point x="30" y="-105" type="line" smooth="yes"/>
      <point x="30" y="-84"/>
      <point x="36" y="-76"/>
      <point x="50" y="-76" type="curve" smooth="yes"/>
      <point x="127" y="-76" type="line"/>
      <point x="127" y="705" type="line"/>
      <point x="50" y="705" type="line" smooth="yes"/>
      <point x="36" y="705"/>
      <point x="30" y="713"/>
      <point x="30" y="734" type="curve" smooth="yes"/>
      <point x="30" y="739" type="line" smooth="yes"/>
      <point x="30" y="760"/>
      <point x="36" y="768"/>
    </contour>
  </outline>
</glyph>
<glyph name="asciicircum" format="1">
  <advance width="450"/>
  <unicode hex="005E"/>
  <outline>
    <contour>
      <point x="215" y="684" type="curve" smooth="yes"/>
      <point x="235" y="684" type="line" smooth="yes"/>
      <point x="252" y="684"/>
      <point x="262" y="680"/>
      <point x="269" y="664" type="curve" smooth="yes"/>
      <point x="394" y="355" type="line" smooth="yes"/>
      <point x="396" y="350"/>
      <point x="397" y="345"/>
      <point x="397" y="341" type="curve" smooth="yes"/>
      <point x="397" y="328"/>
      <point x="387" y="320"/>
      <point x="370" y="320" type="curve" smooth="yes"/>
      <point x="366" y="320" type="line" smooth="yes"/>
      <point x="349" y="320"/>
      <point x="337" y="327"/>
      <point x="331" y="343" type="curve" smooth="yes"/>
      <point x="225" y="604" type="line"/>
      <point x="118" y="343" type="line" smooth="yes"/>
      <point x="111" y="327"/>
      <point x="101" y="320"/>
      <point x="84" y="320" type="curve" smooth="yes"/>
      <point x="80" y="320" type="line" smooth="yes"/>
      <point x="63" y="320"/>
      <point x="53" y="328"/>
      <point x="53" y="341" type="curve" smooth="yes"/>
      <point x="53" y="345"/>
      <point x="54" y="350"/>
      <point x="56" y="355" type="curve" smooth="yes"/>
      <point x="181" y="664" type="line" smooth="yes"/>
      <point x="187" y="680"/>
      <point x="198" y="684"/>
    </contour>
  </outline>
</glyph>
<glyph name="underscore" format="1">
  <advance width="534"/>
  <unicode hex="005F"/>
  <outline>
    <contour>
      <point x="-1" y="-90" type="curve" smooth="yes"/>
      <point x="535" y="-90" type="line" smooth="yes"/>
      <point x="549" y="-90"/>
      <point x="555" y="-96"/>
      <point x="555" y="-110" type="curve" smooth="yes"/>
      <point x="555" y="-118" type="line" smooth="yes"/>
      <point x="555" y="-132"/>
      <point x="549" y="-138"/>
      <point x="535" y="-138" type="curve" smooth="yes"/>
      <point x="-1" y="-138" type="line" smooth="yes"/>
      <point x="-15" y="-138"/>
      <point x="-21" y="-132"/>
      <point x="-21" y="-118" type="curve" smooth="yes"/>
      <point x="-21" y="-110" type="line" smooth="yes"/>
      <point x="-21" y="-96"/>
      <point x="-15" y="-90"/>
    </contour>
  </outline>
</glyph>
<glyph name="grave" format="1">
  <advance width="320"/>
  <unicode hex="0060"/>
  <outline>
    <contour>
      <point x="187" y="700" type="move" name="Anchor-3"/>
    </contour>
    <contour>
      <point x="122" y="732" type="curve" smooth="yes"/>
      <point x="154" y="732"/>
      <point x="173" y="725"/>
      <point x="184" y="706" type="curve" smooth="yes"/>
      <point x="230" y="626"/>
      <point x="242" y="605"/>
      <point x="242" y="595" type="curve" smooth="yes"/>
      <point x="242" y="588"/>
      <point x="235" y="585"/>
      <point x="219" y="585" type="curve" smooth="yes"/>
      <point x="198" y="585"/>
      <point x="179" y="591"/>
      <point x="168" y="603" type="curve" smooth="yes"/>
      <point x="84" y="699"/>
      <point x="74" y="708"/>
      <point x="74" y="719" type="curve" smooth="yes"/>
      <point x="74" y="729"/>
      <point x="90" y="732"/>
    </contour>
  </outline>
</glyph>
<glyph name="b" format="1">
  <advance width="569"/>
  <unicode hex="0062"/>
  <outline>
    <contour>
      <point x="125" y="752" type="curve" smooth="yes"/>
      <point x="129" y="752" type="line" smooth="yes"/>
      <point x="157" y="752"/>
      <point x="169" y="744"/>
      <point x="169" y="730" type="curve" smooth="yes"/>
      <point x="169" y="478" type="line"/>
      <point x="208" y="508"/>
      <point x="250" y="529"/>
      <point x="312" y="529" type="curve" smooth="yes"/>
      <point x="431" y="529"/>
      <point x="515" y="435"/>
      <point x="515" y="262" type="curve" smooth="yes"/>
      <point x="515" y="106"/>
      <point x="441" y="-6"/>
      <point x="321" y="-6" type="curve" smooth="yes"/>
      <point x="264" y="-6"/>
      <point x="211" y="18"/>
      <point x="162" y="69" type="curve"/>
      <point x="159" y="49"/>
      <point x="154" y="30"/>
      <point x="146" y="10" type="curve" smooth="yes"/>
      <point x="142" y="1"/>
      <point x="133" y="-2"/>
      <point x="119" y="-2" type="curve" smooth="yes"/>
      <point x="115" y="-2" type="line" smooth="yes"/>
      <point x="94" y="-2"/>
      <point x="85" y="6"/>
      <point x="85" y="20" type="curve" smooth="yes"/>
      <point x="85" y="730" type="line" smooth="yes"/>
      <point x="85" y="744"/>
      <point x="97" y="752"/>
    </contour>
    <contour>
      <point x="293" y="455" type="curve" smooth="yes"/>
      <point x="250" y="455"/>
      <point x="205" y="440"/>
      <point x="169" y="410" type="curve"/>
      <point x="169" y="136" type="line"/>
      <point x="210" y="91"/>
      <point x="260" y="67"/>
      <point x="304" y="67" type="curve" smooth="yes"/>
      <point x="383" y="67"/>
      <point x="427" y="140"/>
      <point x="427" y="269" type="curve" smooth="yes"/>
      <point x="427" y="388"/>
      <point x="382" y="453"/>
    </contour>
  </outline>
</glyph>
<glyph name="d" format="1">
  <advance width="565"/>
  <unicode hex="0064"/>
  <outline>
    <contour>
      <point x="0" y="0" type="move" name="Anchor-1"/>
    </contour>
    <contour>
      <point x="281" y="0" type="move" name="Anchor-0"/>
    </contour>
    <contour>
      <point x="438" y="752" type="curve" smooth="yes"/>
      <point x="442" y="752" type="line" smooth="yes"/>
      <point x="470" y="752"/>
      <point x="482" y="744"/>
      <point x="482" y="730" type="curve" smooth="yes"/>
      <point x="482" y="148" type="line" smooth="yes"/>
      <point x="482" y="66"/>
      <point x="494" y="27"/>
      <point x="494" y="22" type="curve" smooth="yes"/>
      <point x="494" y="3"/>
      <point x="453" y="-1"/>
      <point x="440" y="-1" type="curve" smooth="yes"/>
      <point x="416" y="-1"/>
      <point x="411" y="41"/>
      <point x="405" y="69" type="curve"/>
      <point x="356" y="18"/>
      <point x="303" y="-6"/>
      <point x="246" y="-6" type="curve" smooth="yes"/>
      <point x="126" y="-6"/>
      <point x="52" y="106"/>
      <point x="52" y="261" type="curve" smooth="yes"/>
      <point x="52" y="435"/>
      <point x="136" y="529"/>
      <point x="255" y="529" type="curve" smooth="yes"/>
      <point x="317" y="529"/>
      <point x="359" y="508"/>
      <point x="398" y="478" type="curve"/>
      <point x="398" y="730" type="line" smooth="yes"/>
      <point x="398" y="744"/>
      <point x="410" y="752"/>
    </contour>
    <contour>
      <point x="275" y="455" type="curve" smooth="yes"/>
      <point x="185" y="453"/>
      <point x="140" y="388"/>
      <point x="140" y="269" type="curve" smooth="yes"/>
      <point x="140" y="140"/>
      <point x="184" y="67"/>
      <point x="263" y="67" type="curve" smooth="yes"/>
      <point x="307" y="67"/>
      <point x="357" y="91"/>
      <point x="398" y="136" type="curve"/>
      <point x="398" y="410" type="line"/>
      <point x="362" y="440"/>
      <point x="320" y="455"/>
    </contour>
  </outline>
</glyph>
<glyph name="h" format="1">
  <advance width="565"/>
  <unicode hex="0068"/>
  <outline>
    <contour>
      <point x="134" y="730" type="move" name="Anchor-1"/>
    </contour>
    <contour>
      <point x="282" y="0" type="move" name="Anchor-0"/>
    </contour>
    <contour>
      <point x="132" y="752" type="curve" smooth="yes"/>
      <point x="136" y="752" type="line" smooth="yes"/>
      <point x="164" y="752"/>
      <point x="176" y="744"/>
      <point x="176" y="730" type="curve" smooth="yes"/>
      <point x="176" y="460" type="line"/>
      <point x="211" y="495"/>
      <point x="265" y="529"/>
      <point x="329" y="529" type="curve" smooth="yes"/>
      <point x="393" y="529"/>
      <point x="488" y="503"/>
      <point x="488" y="367" type="curve" smooth="yes"/>
      <point x="488" y="20" type="line" smooth="yes"/>
      <point x="488" y="6"/>
      <point x="476" y="-2"/>
      <point x="448" y="-2" type="curve" smooth="yes"/>
      <point x="444" y="-2" type="line" smooth="yes"/>
      <point x="416" y="-2"/>
      <point x="404" y="6"/>
      <point x="404" y="20" type="curve" smooth="yes"/>
      <point x="404" y="359" type="line" smooth="yes"/>
      <point x="404" y="418"/>
      <point x="370" y="456"/>
      <point x="302" y="456" type="curve" smooth="yes"/>
      <point x="227" y="456"/>
      <point x="176" y="386"/>
      <point x="176" y="386" type="curve"/>
      <point x="176" y="20" type="line" smooth="yes"/>
      <point x="176" y="6"/>
      <point x="164" y="-2"/>
      <point x="136" y="-2" type="curve" smooth="yes"/>
      <point x="132" y="-2" type="line" smooth="yes"/>
      <point x="104" y="-2"/>
      <point x="92" y="6"/>
      <point x="92" y="20" type="curve" smooth="yes"/>
      <point x="92" y="730" type="line" smooth="yes"/>
      <point x="92" y="744"/>
      <point x="104" y="752"/>
    </contour>
  </outline>
</glyph>
<glyph name="i" format="1">
  <advance width="265"/>
  <unicode hex="0069"/>
  <outline>
    <contour>
      <point x="0" y="0" type="move" name="Anchor-1"/>
    </contour>
    <contour>
      <point x="131" y="0" type="move" name="Anchor-0"/>
    </contour>
    <contour>
      <point x="127" y="752" type="curve" smooth="yes"/>
      <point x="139" y="752" type="line" smooth="yes"/>
      <point x="167" y="752"/>
      <point x="179" y="744"/>
      <point x="179" y="730" type="curve" smooth="yes"/>
      <point x="179" y="671" type="line" smooth="yes"/>
      <point x="179" y="657"/>
      <point x="167" y="649"/>
      <point x="139" y="649" type="curve" smooth="yes"/>
      <point x="127" y="649" type="line" smooth="yes"/>
      <point x="99" y="649"/>
      <point x="87" y="657"/>
      <point x="87" y="671" type="curve" smooth="yes"/>
      <point x="87" y="730" type="line" smooth="yes"/>
      <point x="87" y="744"/>
      <point x="99" y="752"/>
    </contour>
    <contour>
      <point x="131" y="525" type="curve" smooth="yes"/>
      <point x="135" y="525" type="line" smooth="yes"/>
      <point x="163" y="525"/>
      <point x="175" y="517"/>
      <point x="175" y="503" type="curve" smooth="yes"/>
      <point x="175" y="20" type="line" smooth="yes"/>
      <point x="175" y="6"/>
      <point x="163" y="-2"/>
      <point x="135" y="-2" type="curve" smooth="yes"/>
      <point x="131" y="-2" type="line" smooth="yes"/>
      <point x="103" y="-2"/>
      <point x="91" y="6"/>
      <point x="91" y="20" type="curve" smooth="yes"/>
      <point x="91" y="503" type="line" smooth="yes"/>
      <point x="91" y="517"/>
      <point x="103" y="525"/>
    </contour>
  </outline>
</glyph>
<glyph name="j" format="1">
  <advance width="276"/>
  <unicode hex="006A"/>
  <outline>
    <contour>
      <point x="137" y="752" type="curve" smooth="yes"/>
      <point x="149" y="752" type="line" smooth="yes"/>
      <point x="177" y="752"/>
      <point x="189" y="744"/>
      <point x="189" y="730" type="curve" smooth="yes"/>
      <point x="189" y="671" type="line" smooth="yes"/>
      <point x="189" y="657"/>
      <point x="177" y="649"/>
      <point x="149" y="649" type="curve" smooth="yes"/>
      <point x="137" y="649" type="line" smooth="yes"/>
      <point x="109" y="649"/>
      <point x="97" y="657"/>
      <point x="97" y="671" type="curve" smooth="yes"/>
      <point x="97" y="730" type="line" smooth="yes"/>
      <point x="97" y="744"/>
      <point x="109" y="752"/>
    </contour>
    <contour>
      <point x="141" y="525" type="curve" smooth="yes"/>
      <point x="145" y="525" type="line" smooth="yes"/>
      <point x="173" y="525"/>
      <point x="185" y="517"/>
      <point x="185" y="503" type="curve" smooth="yes"/>
      <point x="185" y="-74" type="line" smooth="yes"/>
      <point x="185" y="-190"/>
      <point x="106" y="-212"/>
      <point x="56" y="-212" type="curve" smooth="yes"/>
      <point x="29" y="-212"/>
      <point x="-17" y="-209"/>
      <point x="-17" y="-182" type="curve" smooth="yes"/>
      <point x="-17" y="-174"/>
      <point x="-10" y="-135"/>
      <point x="4" y="-135" type="curve" smooth="yes"/>
      <point x="13" y="-135"/>
      <point x="18" y="-140"/>
      <point x="47" y="-140" type="curve" smooth="yes"/>
      <point x="76" y="-140"/>
      <point x="101" y="-126"/>
      <point x="101" y="-66" type="curve" smooth="yes"/>
      <point x="101" y="503" type="line" smooth="yes"/>
      <point x="101" y="517"/>
      <point x="113" y="525"/>
    </contour>
  </outline>
</glyph>
<glyph name="k" format="1">
  <advance width="521"/>
  <unicode hex="006B"/>
  <outline>
    <contour>
      <point x="0" y="0" type="move" name="Anchor-1"/>
    </contour>
    <contour>
      <point x="261" y="0" type="move" name="Anchor-0"/>
    </contour>
    <contour>
      <point x="134" y="752" type="curve" smooth="yes"/>
      <point x="138" y="752" type="line" smooth="yes"/>
      <point x="166" y="752"/>
      <point x="178" y="744"/>
      <point x="178" y="730" type="curve" smooth="yes"/>
      <point x="178" y="283" type="line"/>
      <point x="182" y="283" type="line"/>
      <point x="373" y="511" type="line" smooth="yes"/>
      <point x="382" y="522"/>
      <point x="404" y="525"/>
      <point x="426" y="525" type="curve" smooth="yes"/>
      <point x="430" y="525" type="line" smooth="yes"/>
      <point x="454" y="525"/>
      <point x="465" y="519"/>
      <point x="465" y="512" type="curve" smooth="yes"/>
      <point x="465" y="507"/>
      <point x="462" y="500"/>
      <point x="455" y="492" type="curve" smooth="yes"/>
      <point x="269" y="272" type="line"/>
      <point x="475" y="28" type="line" smooth="yes"/>
      <point x="482" y="20"/>
      <point x="484" y="16"/>
      <point x="484" y="12" type="curve" smooth="yes"/>
      <point x="484" y="1"/>
      <point x="471" y="-2"/>
      <point x="440" y="-2" type="curve" smooth="yes"/>
      <point x="436" y="-2" type="line" smooth="yes"/>
      <point x="414" y="-2"/>
      <point x="392" y="-1"/>
      <point x="382" y="11" type="curve" smooth="yes"/>
      <point x="182" y="248" type="line"/>
      <point x="178" y="248" type="line"/>
      <point x="178" y="20" type="line" smooth="yes"/>
      <point x="178" y="6"/>
      <point x="166" y="-2"/>
      <point x="138" y="-2" type="curve" smooth="yes"/>
      <point x="134" y="-2" type="line" smooth="yes"/>
      <point x="106" y="-2"/>
      <point x="94" y="6"/>
      <point x="94" y="20" type="curve" smooth="yes"/>
      <point x="94" y="730" type="line" smooth="yes"/>
      <point x="94" y="744"/>
      <point x="106" y="752"/>
    </contour>
  </outline>
</glyph>
<glyph name="m" format="1">
  <advance width="848"/>
  <unicode hex="006D"/>
  <outline>
    <contour>
      <point x="616" y="529" type="curve" smooth="yes"/>
      <point x="680" y="529"/>
      <point x="773" y="503"/>
      <point x="773" y="367" type="curve" smooth="yes"/>
      <point x="773" y="20" type="line" smooth="yes"/>
      <point x="773" y="6"/>
      <point x="761" y="-2"/>
      <point x="733" y="-2" type="curve" smooth="yes"/>
      <point x="729" y="-2" type="line" smooth="yes"/>
      <point x="701" y="-2"/>
      <point x="689" y="6"/>
      <point x="689" y="20" type="curve" smooth="yes"/>
      <point x="689" y="359" type="line" smooth="yes"/>
      <point x="689" y="418"/>
      <point x="657" y="456"/>
      <point x="593" y="456" type="curve" smooth="yes"/>
      <point x="532" y="456"/>
      <point x="486" y="405"/>
      <point x="470" y="386" type="curve"/>
      <point x="471" y="379"/>
      <point x="471" y="372"/>
      <point x="471" y="366" type="curve" smooth="yes"/>
      <point x="471" y="20" type="line" smooth="yes"/>
      <point x="471" y="6"/>
      <point x="459" y="-2"/>
      <point x="431" y="-2" type="curve" smooth="yes"/>
      <point x="427" y="-2" type="line" smooth="yes"/>
      <point x="399" y="-2"/>
      <point x="387" y="6"/>
      <point x="387" y="20" type="curve" smooth="yes"/>
      <point x="387" y="359" type="line" smooth="yes"/>
      <point x="387" y="418"/>
      <point x="355" y="456"/>
      <point x="291" y="456" type="curve" smooth="yes"/>
      <point x="218" y="456"/>
      <point x="169" y="387"/>
      <point x="169" y="387" type="curve"/>
      <point x="169" y="20" type="line" smooth="yes"/>
      <point x="169" y="6"/>
      <point x="157" y="-2"/>
      <point x="129" y="-2" type="curve" smooth="yes"/>
      <point x="125" y="-2" type="line" smooth="yes"/>
      <point x="97" y="-2"/>
      <point x="85" y="6"/>
      <point x="85" y="20" type="curve" smooth="yes"/>
      <point x="85" y="371" type="line" smooth="yes"/>
      <point x="85" y="453"/>
      <point x="73" y="492"/>
      <point x="73" y="497" type="curve" smooth="yes"/>
      <point x="73" y="516"/>
      <point x="114" y="520"/>
      <point x="127" y="520" type="curve" smooth="yes"/>
      <point x="151" y="520"/>
      <point x="156" y="480"/>
      <point x="162" y="454" type="curve"/>
      <point x="195" y="492"/>
      <point x="250" y="529"/>
      <point x="314" y="529" type="curve" smooth="yes"/>
      <point x="363" y="529"/>
      <point x="429" y="514"/>
      <point x="457" y="446" type="curve"/>
      <point x="495" y="491"/>
      <point x="553" y="529"/>
    </contour>
  </outline>
</glyph>
<glyph name="n" format="1">
  <advance width="557"/>
  <unicode hex="006E"/>
  <outline>
    <contour>
      <point x="279" y="523" type="move" name="Anchor-1"/>
    </contour>
    <contour>
      <point x="279" y="0" type="move" name="Anchor-0"/>
    </contour>
    <contour>
      <point x="319" y="529" type="curve" smooth="yes"/>
      <point x="421" y="529"/>
      <point x="482" y="468"/>
      <point x="482" y="367" type="curve" smooth="yes"/>
      <point x="482" y="20" type="line" smooth="yes"/>
      <point x="482" y="6"/>
      <point x="470" y="-2"/>
      <point x="442" y="-2" type="curve" smooth="yes"/>
      <point x="438" y="-2" type="line" smooth="yes"/>
      <point x="410" y="-2"/>
      <point x="398" y="6"/>
      <point x="398" y="20" type="curve" smooth="yes"/>
      <point x="398" y="359" type="line" smooth="yes"/>
      <point x="398" y="420"/>
      <point x="361" y="456"/>
      <point x="296" y="456" type="curve" smooth="yes"/>
      <point x="251" y="456"/>
      <point x="203" y="429"/>
      <point x="170" y="386" type="curve"/>
      <point x="170" y="20" type="line" smooth="yes"/>
      <point x="170" y="6"/>
      <point x="158" y="-2"/>
      <point x="130" y="-2" type="curve" smooth="yes"/>
      <point x="126" y="-2" type="line" smooth="yes"/>
      <point x="98" y="-2"/>
      <point x="86" y="6"/>
      <point x="86" y="20" type="curve" smooth="yes"/>
      <point x="86" y="371" type="line" smooth="yes"/>
      <point x="86" y="453"/>
      <point x="74" y="492"/>
      <point x="74" y="497" type="curve" smooth="yes"/>
      <point x="74" y="516"/>
      <point x="115" y="520"/>
      <point x="128" y="520" type="curve" smooth="yes"/>
      <point x="152" y="520"/>
      <point x="157" y="480"/>
      <point x="163" y="454" type="curve"/>
      <point x="205" y="501"/>
      <point x="263" y="529"/>
    </contour>
  </outline>
</glyph>
<glyph name="o" format="1">
  <advance width="569"/>
  <unicode hex="006F"/>
  <outline>
    <contour>
      <point x="285" y="523" type="move" name="Anchor-1"/>
    </contour>
    <contour>
      <point x="291" y="0" type="move" name="Anchor-0"/>
    </contour>
    <contour>
      <point x="287" y="529" type="curve" smooth="yes"/>
      <point x="434" y="529"/>
      <point x="514" y="433"/>
      <point x="514" y="259" type="curve" smooth="yes"/>
      <point x="514" y="86"/>
      <point x="436" y="-6"/>
      <point x="287" y="-6" type="curve" smooth="yes"/>
      <point x="136" y="-6"/>
      <point x="55" y="87"/>
      <point x="55" y="259" type="curve" smooth="yes"/>
      <point x="55" y="432"/>
      <point x="138" y="529"/>
    </contour>
    <contour>
      <point x="284" y="457" type="curve" smooth="yes"/>
      <point x="187" y="457"/>
      <point x="143" y="395"/>
      <point x="143" y="261" type="curve" smooth="yes"/>
      <point x="143" y="128"/>
      <point x="186" y="66"/>
      <point x="284" y="66" type="curve" smooth="yes"/>
      <point x="382" y="66"/>
      <point x="427" y="128"/>
      <point x="427" y="261" type="curve" smooth="yes"/>
      <point x="427" y="394"/>
      <point x="382" y="457"/>
    </contour>
  </outline>
</glyph>
<glyph name="p" format="1">
  <advance width="573"/>
  <unicode hex="0070"/>
  <outline>
    <contour>
      <point x="322" y="529" type="curve" smooth="yes"/>
      <point x="446" y="529"/>
      <point x="516" y="415"/>
      <point x="516" y="261" type="curve" smooth="yes"/>
      <point x="516" y="88"/>
      <point x="432" y="-6"/>
      <point x="313" y="-6" type="curve" smooth="yes"/>
      <point x="251" y="-6"/>
      <point x="209" y="15"/>
      <point x="170" y="45" type="curve"/>
      <point x="170" y="-186" type="line" smooth="yes"/>
      <point x="170" y="-200"/>
      <point x="158" y="-208"/>
      <point x="130" y="-208" type="curve" smooth="yes"/>
      <point x="126" y="-208" type="line" smooth="yes"/>
      <point x="98" y="-208"/>
      <point x="86" y="-200"/>
      <point x="86" y="-186" type="curve" smooth="yes"/>
      <point x="86" y="371" type="line" smooth="yes"/>
      <point x="86" y="453"/>
      <point x="74" y="492"/>
      <point x="74" y="497" type="curve" smooth="yes"/>
      <point x="74" y="516"/>
      <point x="115" y="520"/>
      <point x="128" y="520" type="curve" smooth="yes"/>
      <point x="152" y="520"/>
      <point x="157" y="480"/>
      <point x="163" y="454" type="curve"/>
      <point x="212" y="505"/>
      <point x="265" y="529"/>
    </contour>
    <contour>
      <point x="305" y="456" type="curve" smooth="yes"/>
      <point x="261" y="456"/>
      <point x="211" y="432"/>
      <point x="170" y="387" type="curve"/>
      <point x="170" y="113" type="line"/>
      <point x="206" y="83"/>
      <point x="248" y="68"/>
      <point x="294" y="68" type="curve" smooth="yes"/>
      <point x="383" y="70"/>
      <point x="428" y="135"/>
      <point x="428" y="254" type="curve" smooth="yes"/>
      <point x="428" y="383"/>
      <point x="384" y="456"/>
    </contour>
  </outline>
</glyph>
<glyph name="q" format="1">
  <advance width="566"/>
  <unicode hex="0071"/>
  <outline>
    <contour>
      <point x="246" y="529" type="curve" smooth="yes"/>
      <point x="303" y="529"/>
      <point x="356" y="505"/>
      <point x="405" y="454" type="curve"/>
      <point x="409" y="474"/>
      <point x="413" y="493"/>
      <point x="421" y="513" type="curve" smooth="yes"/>
      <point x="425" y="522"/>
      <point x="434" y="525"/>
      <point x="448" y="525" type="curve" smooth="yes"/>
      <point x="452" y="525" type="line" smooth="yes"/>
      <point x="473" y="525"/>
      <point x="482" y="517"/>
      <point x="482" y="503" type="curve" smooth="yes"/>
      <point x="482" y="-186" type="line" smooth="yes"/>
      <point x="482" y="-200"/>
      <point x="470" y="-208"/>
      <point x="442" y="-208" type="curve" smooth="yes"/>
      <point x="438" y="-208" type="line" smooth="yes"/>
      <point x="410" y="-208"/>
      <point x="398" y="-200"/>
      <point x="398" y="-186" type="curve" smooth="yes"/>
      <point x="398" y="45" type="line"/>
      <point x="359" y="15"/>
      <point x="317" y="-6"/>
      <point x="255" y="-6" type="curve" smooth="yes"/>
      <point x="136" y="-6"/>
      <point x="52" y="88"/>
      <point x="52" y="260" type="curve" smooth="yes"/>
      <point x="52" y="417"/>
      <point x="126" y="529"/>
    </contour>
    <contour>
      <point x="263" y="456" type="curve" smooth="yes"/>
      <point x="184" y="456"/>
      <point x="140" y="383"/>
      <point x="140" y="254" type="curve" smooth="yes"/>
      <point x="140" y="135"/>
      <point x="185" y="70"/>
      <point x="274" y="68" type="curve" smooth="yes"/>
      <point x="320" y="68"/>
      <point x="362" y="83"/>
      <point x="398" y="113" type="curve"/>
      <point x="398" y="387" type="line"/>
      <point x="357" y="432"/>
      <point x="307" y="456"/>
    </contour>
  </outline>
</glyph>
<glyph name="r" format="1">
  <advance width="366"/>
  <unicode hex="0072"/>
  <outline>
    <contour>
      <point x="132" y="520" type="move" name="Anchor-1"/>
    </contour>
    <contour>
      <point x="134" y="-2" type="move" name="Anchor-0"/>
    </contour>
    <contour>
      <point x="283" y="529" type="curve" smooth="yes"/>
      <point x="322" y="529"/>
      <point x="341" y="512"/>
      <point x="341" y="490" type="curve" smooth="yes"/>
      <point x="341" y="471"/>
      <point x="333" y="436"/>
      <point x="321" y="436" type="curve" smooth="yes"/>
      <point x="308" y="436"/>
      <point x="300" y="447"/>
      <point x="266" y="447" type="curve" smooth="yes"/>
      <point x="214" y="447"/>
      <point x="174" y="386"/>
      <point x="174" y="386" type="curve"/>
      <point x="174" y="20" type="line" smooth="yes"/>
      <point x="174" y="6"/>
      <point x="162" y="-2"/>
      <point x="134" y="-2" type="curve" smooth="yes"/>
      <point x="130" y="-2" type="line" smooth="yes"/>
      <point x="102" y="-2"/>
      <point x="90" y="6"/>
      <point x="90" y="20" type="curve" smooth="yes"/>
      <point x="90" y="371" type="line" smooth="yes"/>
      <point x="90" y="453"/>
      <point x="78" y="492"/>
      <point x="78" y="497" type="curve" smooth="yes"/>
      <point x="78" y="516"/>
      <point x="119" y="520"/>
      <point x="132" y="520" type="curve" smooth="yes"/>
      <point x="156" y="520"/>
      <point x="161" y="480"/>
      <point x="167" y="454" type="curve"/>
      <point x="201" y="502"/>
      <point x="241" y="529"/>
    </contour>
  </outline>
</glyph>
<glyph name="t" format="1">
  <advance width="342"/>
  <unicode hex="0074"/>
  <outline>
    <contour>
      <point x="0" y="0" type="move" name="Anchor-1"/>
    </contour>
    <contour>
      <point x="216" y="0" type="move" name="Anchor-0"/>
    </contour>
    <contour>
      <point x="151" y="650" type="curve" smooth="yes"/>
      <point x="161" y="650" type="line" smooth="yes"/>
      <point x="182" y="650"/>
      <point x="191" y="642"/>
      <point x="191" y="628" type="curve" smooth="yes"/>
      <point x="191" y="523" type="line"/>
      <point x="275" y="523" type="line" smooth="yes"/>
      <point x="289" y="523"/>
      <point x="295" y="514"/>
      <point x="295" y="493" type="curve" smooth="yes"/>
      <point x="295" y="481" type="line" smooth="yes"/>
      <point x="295" y="460"/>
      <point x="289" y="451"/>
      <point x="275" y="451" type="curve" smooth="yes"/>
      <point x="191" y="451" type="line"/>
      <point x="191" y="140" type="line" smooth="yes"/>
      <point x="191" y="80"/>
      <point x="216" y="66"/>
      <point x="245" y="66" type="curve" smooth="yes"/>
      <point x="274" y="66"/>
      <point x="279" y="71"/>
      <point x="288" y="71" type="curve" smooth="yes"/>
      <point x="302" y="71"/>
      <point x="309" y="32"/>
      <point x="309" y="24" type="curve" smooth="yes"/>
      <point x="309" y="-3"/>
      <point x="263" y="-6"/>
      <point x="236" y="-6" type="curve" smooth="yes"/>
      <point x="186" y="-6"/>
      <point x="107" y="16"/>
      <point x="107" y="132" type="curve" smooth="yes"/>
      <point x="107" y="451" type="line"/>
      <point x="57" y="451" type="line" smooth="yes"/>
      <point x="43" y="451"/>
      <point x="37" y="460"/>
      <point x="37" y="481" type="curve" smooth="yes"/>
      <point x="37" y="493" type="line" smooth="yes"/>
      <point x="37" y="514"/>
      <point x="43" y="523"/>
      <point x="57" y="523" type="curve" smooth="yes"/>
      <point x="107" y="523" type="line"/>
      <point x="119" y="628" type="line" smooth="yes"/>
      <point x="120" y="642"/>
      <point x="130" y="650"/>
    </contour>
  </outline>
</glyph>
<glyph name="v" format="1">
  <advance width="485"/>
  <unicode hex="0076"/>
  <outline>
    <contour>
      <point x="424" y="525" type="curve" smooth="yes"/>
      <point x="427" y="525" type="line" smooth="yes"/>
      <point x="453" y="525"/>
      <point x="464" y="519"/>
      <point x="464" y="508" type="curve" smooth="yes"/>
      <point x="464" y="504"/>
      <point x="463" y="500"/>
      <point x="461" y="494" type="curve" smooth="yes"/>
      <point x="300" y="14" type="line" smooth="yes"/>
      <point x="296" y="2"/>
      <point x="280" y="-2"/>
      <point x="260" y="-2" type="curve" smooth="yes"/>
      <point x="225" y="-2" type="line" smooth="yes"/>
      <point x="205" y="-2"/>
      <point x="189" y="2"/>
      <point x="185" y="14" type="curve" smooth="yes"/>
      <point x="24" y="495" type="line" smooth="yes"/>
      <point x="23" y="498"/>
      <point x="21" y="504"/>
      <point x="21" y="508" type="curve" smooth="yes"/>
      <point x="21" y="518"/>
      <point x="34" y="525"/>
      <point x="64" y="525" type="curve" smooth="yes"/>
      <point x="69" y="525" type="line" smooth="yes"/>
      <point x="89" y="525"/>
      <point x="105" y="521"/>
      <point x="109" y="509" type="curve" smooth="yes"/>
      <point x="211" y="190" type="line" smooth="yes"/>
      <point x="224" y="150"/>
      <point x="237" y="99"/>
      <point x="246" y="65" type="curve"/>
      <point x="250" y="65" type="line"/>
      <point x="258" y="99"/>
      <point x="268" y="150"/>
      <point x="280" y="188" type="curve" smooth="yes"/>
      <point x="383" y="509" type="line" smooth="yes"/>
      <point x="387" y="521"/>
      <point x="403" y="525"/>
    </contour>
  </outline>
</glyph>
<glyph name="x" format="1">
  <advance width="485"/>
  <unicode hex="0078"/>
  <outline>
    <contour>
      <point x="408" y="525" type="curve" smooth="yes"/>
      <point x="412" y="525" type="line" smooth="yes"/>
      <point x="442" y="525"/>
      <point x="454" y="520"/>
      <point x="454" y="508" type="curve" smooth="yes"/>
      <point x="454" y="503"/>
      <point x="451" y="497"/>
      <point x="446" y="490" type="curve" smooth="yes"/>
      <point x="295" y="270" type="line"/>
      <point x="457" y="33" type="line" smooth="yes"/>
      <point x="462" y="26"/>
      <point x="465" y="20"/>
      <point x="465" y="15" type="curve" smooth="yes"/>
      <point x="465" y="4"/>
      <point x="453" y="-2"/>
      <point x="419" y="-2" type="curve" smooth="yes"/>
      <point x="410" y="-2" type="line" smooth="yes"/>
      <point x="389" y="-2"/>
      <point x="375" y="1"/>
      <point x="367" y="13" type="curve" smooth="yes"/>
      <point x="261" y="172" type="line" smooth="yes"/>
      <point x="249" y="190"/>
      <point x="244" y="200"/>
      <point x="240" y="207" type="curve"/>
      <point x="236" y="200"/>
      <point x="231" y="190"/>
      <point x="219" y="172" type="curve" smooth="yes"/>
      <point x="111" y="12" type="line" smooth="yes"/>
      <point x="103" y="1"/>
      <point x="86" y="-2"/>
      <point x="66" y="-2" type="curve" smooth="yes"/>
      <point x="63" y="-2" type="line" smooth="yes"/>
      <point x="32" y="-2"/>
      <point x="20" y="3"/>
      <point x="20" y="15" type="curve" smooth="yes"/>
      <point x="20" y="20"/>
      <point x="23" y="26"/>
      <point x="28" y="33" type="curve" smooth="yes"/>
      <point x="190" y="268" type="line"/>
      <point x="40" y="490" type="line" smooth="yes"/>
      <point x="35" y="497"/>
      <point x="32" y="503"/>
      <point x="32" y="508" type="curve" smooth="yes"/>
      <point x="32" y="519"/>
      <point x="44" y="525"/>
      <point x="78" y="525" type="curve" smooth="yes"/>
      <point x="87" y="525" type="line" smooth="yes"/>
      <point x="108" y="525"/>
      <point x="122" y="522"/>
      <point x="130" y="510" type="curve" smooth="yes"/>
      <point x="225" y="367" type="line" smooth="yes"/>
      <point x="237" y="349"/>
      <point x="242" y="339"/>
      <point x="246" y="332" type="curve"/>
      <point x="250" y="339"/>
      <point x="255" y="349"/>
      <point x="267" y="367" type="curve" smooth="yes"/>
      <point x="363" y="511" type="line" smooth="yes"/>
      <point x="370" y="522"/>
      <point x="388" y="525"/>
    </contour>
  </outline>
</glyph>
<glyph name="braceleft" format="1">
  <advance width="274"/>
  <unicode hex="007B"/>
  <outline>
    <contour>
      <point x="174" y="768" type="curve" smooth="yes"/>
      <point x="224" y="768" type="line" smooth="yes"/>
      <point x="238" y="768"/>
      <point x="244" y="760"/>
      <point x="244" y="739" type="curve" smooth="yes"/>
      <point x="244" y="735" type="line" smooth="yes"/>
      <point x="244" y="714"/>
      <point x="238" y="706"/>
      <point x="224" y="706" type="curve" smooth="yes"/>
      <point x="202" y="706" type="line" smooth="yes"/>
      <point x="174" y="706"/>
      <point x="168" y="684"/>
      <point x="168" y="645" type="curve" smooth="yes"/>
      <point x="168" y="469" type="line" smooth="yes"/>
      <point x="168" y="371"/>
      <point x="107" y="326"/>
      <point x="90" y="314" type="curve"/>
      <point x="105" y="307"/>
      <point x="168" y="262"/>
      <point x="168" y="161" type="curve" smooth="yes"/>
      <point x="168" y="-14" type="line" smooth="yes"/>
      <point x="168" y="-53"/>
      <point x="174" y="-76"/>
      <point x="202" y="-76" type="curve" smooth="yes"/>
      <point x="224" y="-76" type="line" smooth="yes"/>
      <point x="238" y="-76"/>
      <point x="244" y="-84"/>
      <point x="244" y="-105" type="curve" smooth="yes"/>
      <point x="244" y="-109" type="line" smooth="yes"/>
      <point x="244" y="-130"/>
      <point x="238" y="-138"/>
      <point x="224" y="-138" type="curve" smooth="yes"/>
      <point x="174" y="-138" type="line" smooth="yes"/>
      <point x="148" y="-138"/>
      <point x="96" y="-119"/>
      <point x="96" y="-22" type="curve" smooth="yes"/>
      <point x="96" y="145" type="line" smooth="yes"/>
      <point x="96" y="211"/>
      <point x="89" y="254"/>
      <point x="45" y="274" type="curve" smooth="yes"/>
      <point x="29" y="281"/>
      <point x="20" y="290"/>
      <point x="20" y="308" type="curve" smooth="yes"/>
      <point x="20" y="322" type="line" smooth="yes"/>
      <point x="20" y="340"/>
      <point x="29" y="349"/>
      <point x="45" y="356" type="curve" smooth="yes"/>
      <point x="89" y="376"/>
      <point x="96" y="418"/>
      <point x="96" y="485" type="curve" smooth="yes"/>
      <point x="96" y="652" type="line" smooth="yes"/>
      <point x="96" y="747"/>
      <point x="148" y="768"/>
    </contour>
  </outline>
</glyph>
<glyph name="asciitilde" format="1">
  <advance width="547"/>
  <unicode hex="007E"/>
  <outline>
    <contour>
      <point x="419" y="307" type="curve" smooth="yes"/>
      <point x="435" y="316"/>
      <point x="451" y="312"/>
      <point x="460" y="303" type="curve" smooth="yes"/>
      <point x="478" y="285"/>
      <point x="471" y="272"/>
      <point x="457" y="261" type="curve" smooth="yes"/>
      <point x="422" y="239"/>
      <point x="384" y="220"/>
      <point x="336" y="220" type="curve" smooth="yes"/>
      <point x="292" y="220"/>
      <point x="270" y="228"/>
      <point x="249" y="236" type="curve" smooth="yes"/>
      <point x="230" y="244"/>
      <point x="218" y="250"/>
      <point x="194" y="250" type="curve" smooth="yes"/>
      <point x="168" y="250"/>
      <point x="144" y="239"/>
      <point x="129" y="231" type="curve" smooth="yes"/>
      <point x="110" y="220"/>
      <point x="94" y="223"/>
      <point x="81" y="238" type="curve" smooth="yes"/>
      <point x="68" y="253"/>
      <point x="74" y="266"/>
      <point x="87" y="274" type="curve" smooth="yes"/>
      <point x="120" y="294"/>
      <point x="161" y="314"/>
      <point x="209" y="314" type="curve" smooth="yes"/>
      <point x="253" y="314"/>
      <point x="272" y="303"/>
      <point x="292" y="295" type="curve" smooth="yes"/>
      <point x="309" y="288"/>
      <point x="327" y="284"/>
      <point x="350" y="284" type="curve" smooth="yes"/>
      <point x="376" y="284"/>
      <point x="399" y="295"/>
    </contour>
  </outline>
</glyph>
<glyph name="exclamdown" format="1">
  <advance width="294"/>
  <unicode hex="00A1"/>
  <outline>
    <contour>
      <point x="136" y="525" type="curve" smooth="yes"/>
      <point x="153" y="525" type="line" smooth="yes"/>
      <point x="181" y="525"/>
      <point x="193" y="517"/>
      <point x="193" y="503" type="curve" smooth="yes"/>
      <point x="193" y="437" type="line" smooth="yes"/>
      <point x="193" y="423"/>
      <point x="181" y="415"/>
      <point x="153" y="415" type="curve" smooth="yes"/>
      <point x="136" y="415" type="line" smooth="yes"/>
      <point x="108" y="415"/>
      <point x="96" y="423"/>
      <point x="96" y="437" type="curve" smooth="yes"/>
      <point x="96" y="503" type="line" smooth="yes"/>
      <point x="96" y="517"/>
      <point x="108" y="525"/>
    </contour>
    <contour>
      <point x="140" y="321" type="curve" smooth="yes"/>
      <point x="151" y="321" type="line" smooth="yes"/>
      <point x="172" y="321"/>
      <point x="181" y="313"/>
      <point x="181" y="299" type="curve" smooth="yes"/>
      <point x="181" y="-157" type="line" smooth="yes"/>
      <point x="181" y="-171"/>
      <point x="169" y="-179"/>
      <point x="141" y="-179" type="curve" smooth="yes"/>
      <point x="121" y="-179" type="line" smooth="yes"/>
      <point x="93" y="-179"/>
      <point x="82" y="-171"/>
      <point x="82" y="-157" type="curve" smooth="yes"/>
      <point x="82" y="-132"/>
      <point x="100" y="147"/>
      <point x="109" y="299" type="curve" smooth="yes"/>
      <point x="110" y="313"/>
      <point x="119" y="321"/>
    </contour>
  </outline>
</glyph>
<glyph name="cent" format="1">
  <advance width="486"/>
  <unicode hex="00A2"/>
  <outline>
    <contour>
      <point x="289" y="583" type="curve" smooth="yes"/>
      <point x="303" y="583"/>
      <point x="309" y="578"/>
      <point x="309" y="567" type="curve" smooth="yes"/>
      <point x="309" y="528" type="line"/>
      <point x="376" y="525"/>
      <point x="434" y="504"/>
      <point x="434" y="483" type="curve" smooth="yes"/>
      <point x="434" y="467"/>
      <point x="415" y="429"/>
      <point x="402" y="429" type="curve" smooth="yes"/>
      <point x="396" y="429"/>
      <point x="364" y="451"/>
      <point x="309" y="456" type="curve"/>
      <point x="309" y="66" type="line"/>
      <point x="371" y="70"/>
      <point x="409" y="96"/>
      <point x="416" y="96" type="curve" smooth="yes"/>
      <point x="430" y="96"/>
      <point x="450" y="59"/>
      <point x="450" y="45" type="curve" smooth="yes"/>
      <point x="450" y="23"/>
      <point x="388" y="-3"/>
      <point x="309" y="-6" type="curve"/>
      <point x="309" y="-59" type="line" smooth="yes"/>
      <point x="309" y="-70"/>
      <point x="303" y="-75"/>
      <point x="289" y="-75" type="curve" smooth="yes"/>
      <point x="275" y="-75"/>
      <point x="269" y="-70"/>
      <point x="269" y="-59" type="curve" smooth="yes"/>
      <point x="269" y="-5" type="line"/>
      <point x="127" y="3"/>
      <point x="55" y="82"/>
      <point x="55" y="264" type="curve" smooth="yes"/>
      <point x="55" y="462"/>
      <point x="161" y="522"/>
      <point x="269" y="528" type="curve"/>
      <point x="269" y="567" type="line" smooth="yes"/>
      <point x="269" y="578"/>
      <point x="275" y="583"/>
    </contour>
    <contour>
      <point x="269" y="67" type="curve"/>
      <point x="269" y="456" type="line"/>
      <point x="193" y="449"/>
      <point x="144" y="396"/>
      <point x="144" y="266" type="curve" smooth="yes"/>
      <point x="144" y="137"/>
      <point x="178" y="77"/>
    </contour>
  </outline>
</glyph>
<glyph name="sterling" format="1">
  <advance width="491"/>
  <unicode hex="00A3"/>
  <outline>
    <contour>
      <point x="324" y="706" type="curve" smooth="yes"/>
      <point x="362" y="706"/>
      <point x="425" y="701"/>
      <point x="425" y="674" type="curve" smooth="yes"/>
      <point x="425" y="670"/>
      <point x="419" y="625"/>
      <point x="403" y="625" type="curve" smooth="yes"/>
      <point x="395" y="625"/>
      <point x="372" y="634"/>
      <point x="340" y="634" type="curve" smooth="yes"/>
      <point x="244" y="634"/>
      <point x="203" y="594"/>
      <point x="203" y="503" type="curve" smooth="yes"/>
      <point x="203" y="411" type="line"/>
      <point x="350" y="411" type="line" smooth="yes"/>
      <point x="364" y="411"/>
      <point x="370" y="402"/>
      <point x="370" y="381" type="curve" smooth="yes"/>
      <point x="370" y="369" type="line" smooth="yes"/>
      <point x="370" y="348"/>
      <point x="364" y="339"/>
      <point x="350" y="339" type="curve" smooth="yes"/>
      <point x="203" y="339" type="line"/>
      <point x="203" y="249" type="line" smooth="yes"/>
      <point x="203" y="111"/>
      <point x="167" y="85"/>
      <point x="146" y="72" type="curve"/>
      <point x="426" y="72" type="line" smooth="yes"/>
      <point x="440" y="72"/>
      <point x="446" y="63"/>
      <point x="446" y="42" type="curve" smooth="yes"/>
      <point x="446" y="30" type="line" smooth="yes"/>
      <point x="446" y="9"/>
      <point x="440" y="0"/>
      <point x="426" y="0" type="curve" smooth="yes"/>
      <point x="53" y="0" type="line" smooth="yes"/>
      <point x="39" y="0"/>
      <point x="33" y="9"/>
      <point x="33" y="30" type="curve" smooth="yes"/>
      <point x="33" y="46" type="line" smooth="yes"/>
      <point x="33" y="89"/>
      <point x="119" y="73"/>
      <point x="119" y="159" type="curve" smooth="yes"/>
      <point x="119" y="339" type="line"/>
      <point x="64" y="339" type="line" smooth="yes"/>
      <point x="50" y="339"/>
      <point x="44" y="348"/>
      <point x="44" y="369" type="curve" smooth="yes"/>
      <point x="44" y="381" type="line" smooth="yes"/>
      <point x="44" y="402"/>
      <point x="50" y="411"/>
      <point x="64" y="411" type="curve" smooth="yes"/>
      <point x="119" y="411" type="line"/>
      <point x="119" y="498" type="line" smooth="yes"/>
      <point x="119" y="624"/>
      <point x="175" y="706"/>
    </contour>
  </outline>
</glyph>
<glyph name="currency" format="1">
  <advance width="534"/>
  <unicode hex="00A4"/>
  <outline>
    <contour>
      <point x="112" y="501" type="curve" smooth="yes"/>
      <point x="119" y="501"/>
      <point x="127" y="497"/>
      <point x="134" y="489" type="curve" smooth="yes"/>
      <point x="158" y="465" type="line"/>
      <point x="188" y="487"/>
      <point x="224" y="500"/>
      <point x="263" y="500" type="curve" smooth="yes"/>
      <point x="302" y="500"/>
      <point x="338" y="487"/>
      <point x="367" y="466" type="curve"/>
      <point x="391" y="490" type="line" smooth="yes"/>
      <point x="397" y="496"/>
      <point x="404" y="500"/>
      <point x="411" y="500" type="curve" smooth="yes"/>
      <point x="416" y="500"/>
      <point x="424" y="497"/>
      <point x="430" y="491" type="curve" smooth="yes"/>
      <point x="432" y="489" type="line" smooth="yes"/>
      <point x="438" y="483"/>
      <point x="441" y="478"/>
      <point x="441" y="472" type="curve" smooth="yes"/>
      <point x="441" y="465"/>
      <point x="438" y="458"/>
      <point x="430" y="450" type="curve" smooth="yes"/>
      <point x="406" y="426" type="line"/>
      <point x="428" y="397"/>
      <point x="441" y="361"/>
      <point x="441" y="322" type="curve" smooth="yes"/>
      <point x="441" y="282"/>
      <point x="428" y="246"/>
      <point x="406" y="217" type="curve"/>
      <point x="430" y="193" type="line" smooth="yes"/>
      <point x="437" y="186"/>
      <point x="441" y="179"/>
      <point x="441" y="172" type="curve" smooth="yes"/>
      <point x="441" y="167"/>
      <point x="436" y="158"/>
      <point x="431" y="153" type="curve" smooth="yes"/>
      <point x="430" y="152" type="line" smooth="yes"/>
      <point x="425" y="147"/>
      <point x="419" y="143"/>
      <point x="412" y="143" type="curve" smooth="yes"/>
      <point x="405" y="143"/>
      <point x="398" y="146"/>
      <point x="391" y="154" type="curve" smooth="yes"/>
      <point x="367" y="178" type="line"/>
      <point x="337" y="157"/>
      <point x="302" y="145"/>
      <point x="263" y="145" type="curve" smooth="yes"/>
      <point x="224" y="145"/>
      <point x="188" y="157"/>
      <point x="159" y="178" type="curve"/>
      <point x="134" y="153" type="line" smooth="yes"/>
      <point x="127" y="146"/>
      <point x="120" y="143"/>
      <point x="113" y="143" type="curve" smooth="yes"/>
      <point x="108" y="143"/>
      <point x="101" y="146"/>
      <point x="95" y="152" type="curve" smooth="yes"/>
      <point x="93" y="154" type="line" smooth="yes"/>
      <point x="88" y="159"/>
      <point x="85" y="164"/>
      <point x="85" y="171" type="curve" smooth="yes"/>
      <point x="85" y="178"/>
      <point x="89" y="186"/>
      <point x="96" y="193" type="curve" smooth="yes"/>
      <point x="120" y="217" type="line"/>
      <point x="98" y="246"/>
      <point x="86" y="282"/>
      <point x="86" y="322" type="curve" smooth="yes"/>
      <point x="86" y="361"/>
      <point x="98" y="397"/>
      <point x="120" y="427" type="curve"/>
      <point x="96" y="450" type="line" smooth="yes"/>
      <point x="89" y="457"/>
      <point x="86" y="464"/>
      <point x="86" y="472" type="curve" smooth="yes"/>
      <point x="86" y="476"/>
      <point x="88" y="483"/>
      <point x="92" y="488" type="curve" smooth="yes"/>
      <point x="96" y="493" type="line" smooth="yes"/>
      <point x="100" y="498"/>
      <point x="106" y="501"/>
    </contour>
    <contour>
      <point x="263" y="439" type="curve" smooth="yes"/>
      <point x="199" y="439"/>
      <point x="147" y="386"/>
      <point x="147" y="322" type="curve" smooth="yes"/>
      <point x="147" y="258"/>
      <point x="199" y="206"/>
      <point x="263" y="206" type="curve" smooth="yes"/>
      <point x="327" y="206"/>
      <point x="380" y="258"/>
      <point x="380" y="322" type="curve" smooth="yes"/>
      <point x="380" y="386"/>
      <point x="327" y="439"/>
    </contour>
  </outline>
</glyph>
<glyph name="yen" format="1">
  <advance width="559"/>
  <unicode hex="00A5"/>
  <outline>
    <contour>
      <point x="541" y="685" type="curve" smooth="yes"/>
      <point x="541" y="680"/>
      <point x="537" y="674"/>
      <point x="533" y="667" type="curve" smooth="yes"/>
      <point x="368" y="423" type="line"/>
      <point x="492" y="423" type="line" smooth="yes"/>
      <point x="506" y="423"/>
      <point x="512" y="414"/>
      <point x="512" y="393" type="curve" smooth="yes"/>
      <point x="512" y="385" type="line" smooth="yes"/>
      <point x="512" y="364"/>
      <point x="506" y="355"/>
      <point x="492" y="355" type="curve" smooth="yes"/>
      <point x="323" y="355" type="line"/>
      <point x="323" y="259" type="line"/>
      <point x="492" y="259" type="line" smooth="yes"/>
      <point x="506" y="259"/>
      <point x="512" y="250"/>
      <point x="512" y="229" type="curve" smooth="yes"/>
      <point x="512" y="221" type="line" smooth="yes"/>
      <point x="512" y="200"/>
      <point x="506" y="191"/>
      <point x="492" y="191" type="curve" smooth="yes"/>
      <point x="323" y="191" type="line"/>
      <point x="323" y="20" type="line" smooth="yes"/>
      <point x="323" y="6"/>
      <point x="311" y="-2"/>
      <point x="283" y="-2" type="curve" smooth="yes"/>
      <point x="275" y="-2" type="line" smooth="yes"/>
      <point x="247" y="-2"/>
      <point x="235" y="6"/>
      <point x="235" y="20" type="curve" smooth="yes"/>
      <point x="235" y="191" type="line"/>
      <point x="68" y="191" type="line" smooth="yes"/>
      <point x="54" y="191"/>
      <point x="48" y="200"/>
      <point x="48" y="221" type="curve" smooth="yes"/>
      <point x="48" y="229" type="line" smooth="yes"/>
      <point x="48" y="250"/>
      <point x="54" y="259"/>
      <point x="68" y="259" type="curve" smooth="yes"/>
      <point x="235" y="259" type="line"/>
      <point x="235" y="355" type="line"/>
      <point x="68" y="355" type="line" smooth="yes"/>
      <point x="54" y="355"/>
      <point x="48" y="364"/>
      <point x="48" y="385" type="curve" smooth="yes"/>
      <point x="48" y="393" type="line" smooth="yes"/>
      <point x="48" y="414"/>
      <point x="54" y="423"/>
      <point x="68" y="423" type="curve" smooth="yes"/>
      <point x="192" y="423" type="line"/>
      <point x="26" y="667" type="line" smooth="yes"/>
      <point x="21" y="674"/>
      <point x="18" y="680"/>
      <point x="18" y="685" type="curve" smooth="yes"/>
      <point x="18" y="696"/>
      <point x="30" y="702"/>
      <point x="64" y="702" type="curve" smooth="yes"/>
      <point x="75" y="702" type="line" smooth="yes"/>
      <point x="96" y="702"/>
      <point x="110" y="699"/>
      <point x="118" y="687" type="curve" smooth="yes"/>
      <point x="282" y="441" type="line"/>
      <point x="450" y="688" type="line" smooth="yes"/>
      <point x="457" y="699"/>
      <point x="475" y="702"/>
      <point x="495" y="702" type="curve" smooth="yes"/>
      <point x="502" y="702" type="line" smooth="yes"/>
      <point x="530" y="701"/>
      <point x="541" y="696"/>
    </contour>
  </outline>
</glyph>
<glyph name="brokenbar" format="1">
  <advance width="250"/>
  <unicode hex="00A6"/>
  <outline>
    <contour>
      <point x="120" y="770" type="curve" smooth="yes"/>
      <point x="130" y="770" type="line" smooth="yes"/>
      <point x="147" y="770"/>
      <point x="154" y="762"/>
      <point x="154" y="748" type="curve" smooth="yes"/>
      <point x="154" y="425" type="line" smooth="yes"/>
      <point x="154" y="411"/>
      <point x="147" y="403"/>
      <point x="130" y="403" type="curve" smooth="yes"/>
      <point x="120" y="403" type="line" smooth="yes"/>
      <point x="103" y="403"/>
      <point x="96" y="411"/>
      <point x="96" y="425" type="curve" smooth="yes"/>
      <point x="96" y="748" type="line" smooth="yes"/>
      <point x="96" y="762"/>
      <point x="103" y="770"/>
    </contour>
    <contour>
      <point x="120" y="226" type="curve" smooth="yes"/>
      <point x="130" y="226" type="line" smooth="yes"/>
      <point x="147" y="226"/>
      <point x="154" y="218"/>
      <point x="154" y="204" type="curve" smooth="yes"/>
      <point x="154" y="-118" type="line" smooth="yes"/>
      <point x="154" y="-132"/>
      <point x="147" y="-140"/>
      <point x="130" y="-140" type="curve" smooth="yes"/>
      <point x="120" y="-140" type="line" smooth="yes"/>
      <point x="103" y="-140"/>
      <point x="96" y="-132"/>
      <point x="96" y="-118" type="curve" smooth="yes"/>
      <point x="96" y="204" type="line" smooth="yes"/>
      <point x="96" y="218"/>
      <point x="103" y="226"/>
    </contour>
  </outline>
</glyph>
<glyph name="dieresis" format="1">
  <advance width="320"/>
  <unicode hex="00A8"/>
  <outline>
    <contour>
      <point x="158" y="700" type="move" name="Anchor-3"/>
    </contour>
    <contour>
      <point x="91" y="702" type="curve" smooth="yes"/>
      <point x="119" y="702"/>
      <point x="131" y="694"/>
      <point x="131" y="680" type="curve" smooth="yes"/>
      <point x="131" y="629" type="line" smooth="yes"/>
      <point x="131" y="616"/>
      <point x="119" y="607"/>
      <point x="87" y="607" type="curve" smooth="yes"/>
      <point x="59" y="607"/>
      <point x="47" y="615"/>
      <point x="47" y="629" type="curve" smooth="yes"/>
      <point x="47" y="680" type="line" smooth="yes"/>
      <point x="47" y="693"/>
      <point x="59" y="702"/>
    </contour>
    <contour>
      <point x="235" y="702" type="curve" smooth="yes"/>
      <point x="263" y="702"/>
      <point x="275" y="694"/>
      <point x="275" y="680" type="curve" smooth="yes"/>
      <point x="275" y="629" type="line" smooth="yes"/>
      <point x="275" y="616"/>
      <point x="263" y="607"/>
      <point x="231" y="607" type="curve" smooth="yes"/>
      <point x="203" y="607"/>
      <point x="191" y="615"/>
      <point x="191" y="629" type="curve" smooth="yes"/>
      <point x="191" y="680" type="line" smooth="yes"/>
      <point x="191" y="693"/>
      <point x="203" y="702"/>
    </contour>
  </outline>
</glyph>
<glyph name="copyright" format="1">
  <advance width="739"/>
  <unicode hex="00A9"/>
  <outline>
    <contour>
      <point x="369" y="710" type="curve" smooth="yes"/>
      <point x="568" y="710"/>
      <point x="729" y="553"/>
      <point x="729" y="354" type="curve" smooth="yes"/>
      <point x="729" y="155"/>
      <point x="568" y="-5"/>
      <point x="369" y="-5" type="curve" smooth="yes"/>
      <point x="170" y="-5"/>
      <point x="10" y="155"/>
      <point x="10" y="354" type="curve" smooth="yes"/>
      <point x="10" y="553"/>
      <point x="170" y="710"/>
    </contour>
    <contour>
      <point x="369" y="662" type="curve" smooth="yes"/>
      <point x="198" y="662"/>
      <point x="58" y="526"/>
      <point x="58" y="354" type="curve" smooth="yes"/>
      <point x="58" y="183"/>
      <point x="198" y="43"/>
      <point x="369" y="43" type="curve" smooth="yes"/>
      <point x="541" y="43"/>
      <point x="681" y="183"/>
      <point x="681" y="354" type="curve" smooth="yes"/>
      <point x="681" y="526"/>
      <point x="541" y="662"/>
    </contour>
    <contour>
      <point x="387" y="562" type="curve" smooth="yes"/>
      <point x="446" y="562"/>
      <point x="501" y="541"/>
      <point x="501" y="525" type="curve" smooth="yes"/>
      <point x="501" y="515"/>
      <point x="488" y="490"/>
      <point x="480" y="490" type="curve" smooth="yes"/>
      <point x="474" y="490"/>
      <point x="445" y="517"/>
      <point x="388" y="517" type="curve" smooth="yes"/>
      <point x="292" y="517"/>
      <point x="247" y="466"/>
      <point x="247" y="349" type="curve" smooth="yes"/>
      <point x="247" y="234"/>
      <point x="292" y="182"/>
      <point x="385" y="182" type="curve" smooth="yes"/>
      <point x="447" y="182"/>
      <point x="480" y="212"/>
      <point x="488" y="212" type="curve" smooth="yes"/>
      <point x="496" y="212"/>
      <point x="509" y="187"/>
      <point x="509" y="180" type="curve" smooth="yes"/>
      <point x="509" y="164"/>
      <point x="455" y="137"/>
      <point x="385" y="137" type="curve" smooth="yes"/>
      <point x="255" y="137"/>
      <point x="193" y="204"/>
      <point x="193" y="349" type="curve" smooth="yes"/>
      <point x="193" y="492"/>
      <point x="259" y="562"/>
    </contour>
  </outline>
</glyph>
<glyph name="ordfeminine" format="1">
  <advance width="319"/>
  <unicode hex="00AA"/>
  <outline>
    <contour>
      <point x="153" y="706" type="curve" smooth="yes"/>
      <point x="214" y="706"/>
      <point x="251" y="677"/>
      <point x="251" y="628" type="curve" smooth="yes"/>
      <point x="251" y="517" type="line" smooth="yes"/>
      <point x="251" y="477"/>
      <point x="257" y="458"/>
      <point x="257" y="455" type="curve" smooth="yes"/>
      <point x="257" y="446"/>
      <point x="236" y="444"/>
      <point x="230" y="444" type="curve" smooth="yes"/>
      <point x="218" y="444"/>
      <point x="215" y="465"/>
      <point x="213" y="479" type="curve"/>
      <point x="194" y="458"/>
      <point x="167" y="441"/>
      <point x="129" y="441" type="curve" smooth="yes"/>
      <point x="82" y="441"/>
      <point x="45" y="465"/>
      <point x="45" y="515" type="curve" smooth="yes"/>
      <point x="45" y="599"/>
      <point x="133" y="604"/>
      <point x="210" y="605" type="curve"/>
      <point x="210" y="629" type="line" smooth="yes"/>
      <point x="210" y="651"/>
      <point x="196" y="670"/>
      <point x="155" y="670" type="curve" smooth="yes"/>
      <point x="110" y="670"/>
      <point x="83" y="650"/>
      <point x="78" y="650" type="curve" smooth="yes"/>
      <point x="71" y="650"/>
      <point x="60" y="668"/>
      <point x="60" y="674" type="curve" smooth="yes"/>
      <point x="60" y="687"/>
      <point x="104" y="706"/>
    </contour>
    <contour>
      <point x="210" y="511" type="curve"/>
      <point x="210" y="570" type="line"/>
      <point x="158" y="570"/>
      <point x="90" y="570"/>
      <point x="90" y="518" type="curve" smooth="yes"/>
      <point x="90" y="491"/>
      <point x="104" y="478"/>
      <point x="131" y="478" type="curve" smooth="yes"/>
      <point x="168" y="478"/>
      <point x="190" y="493"/>
    </contour>
  </outline>
</glyph>
<glyph name="guillemotleft" format="1">
  <advance width="471"/>
  <unicode hex="00AB"/>
  <outline>
    <contour>
      <point x="209" y="454" type="curve" smooth="yes"/>
      <point x="221" y="454"/>
      <point x="244" y="439"/>
      <point x="244" y="422" type="curve" smooth="yes"/>
      <point x="244" y="416"/>
      <point x="241" y="409"/>
      <point x="236" y="402" type="curve" smooth="yes"/>
      <point x="125" y="258" type="line"/>
      <point x="236" y="113" type="line" smooth="yes"/>
      <point x="241" y="106"/>
      <point x="244" y="100"/>
      <point x="244" y="94" type="curve" smooth="yes"/>
      <point x="244" y="82"/>
      <point x="225" y="61"/>
      <point x="209" y="61" type="curve" smooth="yes"/>
      <point x="201" y="61"/>
      <point x="194" y="66"/>
      <point x="187" y="74" type="curve" smooth="yes"/>
      <point x="57" y="230" type="line" smooth="yes"/>
      <point x="48" y="241"/>
      <point x="44" y="249"/>
      <point x="44" y="258" type="curve" smooth="yes"/>
      <point x="44" y="267"/>
      <point x="48" y="275"/>
      <point x="57" y="286" type="curve" smooth="yes"/>
      <point x="187" y="442" type="line" smooth="yes"/>
      <point x="194" y="450"/>
      <point x="201" y="454"/>
    </contour>
    <contour>
      <point x="381" y="454" type="curve" smooth="yes"/>
      <point x="393" y="454"/>
      <point x="416" y="439"/>
      <point x="416" y="422" type="curve" smooth="yes"/>
      <point x="416" y="416"/>
      <point x="413" y="409"/>
      <point x="408" y="402" type="curve" smooth="yes"/>
      <point x="297" y="258" type="line"/>
      <point x="408" y="113" type="line" smooth="yes"/>
      <point x="413" y="106"/>
      <point x="416" y="100"/>
      <point x="416" y="94" type="curve" smooth="yes"/>
      <point x="416" y="82"/>
      <point x="397" y="61"/>
      <point x="381" y="61" type="curve" smooth="yes"/>
      <point x="373" y="61"/>
      <point x="366" y="66"/>
      <point x="359" y="74" type="curve" smooth="yes"/>
      <point x="229" y="230" type="line" smooth="yes"/>
      <point x="220" y="241"/>
      <point x="216" y="249"/>
      <point x="216" y="258" type="curve" smooth="yes"/>
      <point x="216" y="267"/>
      <point x="220" y="275"/>
      <point x="229" y="286" type="curve" smooth="yes"/>
      <point x="359" y="442" type="line" smooth="yes"/>
      <point x="366" y="450"/>
      <point x="373" y="454"/>
    </contour>
  </outline>
</glyph>
<glyph name="logicalnot" format="1">
  <advance width="560"/>
  <unicode hex="00AC"/>
  <outline>
    <contour>
      <point x="58" y="338" type="curve" smooth="yes"/>
      <point x="492" y="338" type="line" smooth="yes"/>
      <point x="513" y="338"/>
      <point x="522" y="329"/>
      <point x="522" y="308" type="curve" smooth="yes"/>
      <point x="522" y="99" type="line" smooth="yes"/>
      <point x="522" y="85"/>
      <point x="513" y="77"/>
      <point x="492" y="77" type="curve" smooth="yes"/>
      <point x="479" y="77" type="line" smooth="yes"/>
      <point x="458" y="77"/>
      <point x="449" y="85"/>
      <point x="449" y="99" type="curve" smooth="yes"/>
      <point x="449" y="265" type="line"/>
      <point x="58" y="265" type="line" smooth="yes"/>
      <point x="44" y="265"/>
      <point x="38" y="274"/>
      <point x="38" y="295" type="curve" smooth="yes"/>
      <point x="38" y="308" type="line" smooth="yes"/>
      <point x="38" y="329"/>
      <point x="44" y="338"/>
    </contour>
  </outline>
</glyph>
<glyph name="registered" format="1">
  <advance width="739"/>
  <unicode hex="00AE"/>
  <outline>
    <contour>
      <point x="369" y="710" type="curve" smooth="yes"/>
      <point x="568" y="710"/>
      <point x="729" y="553"/>
      <point x="729" y="354" type="curve" smooth="yes"/>
      <point x="729" y="155"/>
      <point x="568" y="-5"/>
      <point x="369" y="-5" type="curve" smooth="yes"/>
      <point x="170" y="-5"/>
      <point x="10" y="155"/>
      <point x="10" y="354" type="curve" smooth="yes"/>
      <point x="10" y="553"/>
      <point x="170" y="710"/>
    </contour>
    <contour>
      <point x="369" y="662" type="curve" smooth="yes"/>
      <point x="198" y="662"/>
      <point x="58" y="526"/>
      <point x="58" y="354" type="curve" smooth="yes"/>
      <point x="58" y="183"/>
      <point x="198" y="43"/>
      <point x="369" y="43" type="curve" smooth="yes"/>
      <point x="541" y="43"/>
      <point x="681" y="183"/>
      <point x="681" y="354" type="curve" smooth="yes"/>
      <point x="681" y="526"/>
      <point x="541" y="662"/>
    </contour>
    <contour>
      <point x="267" y="559" type="curve" smooth="yes"/>
      <point x="366" y="559" type="line" smooth="yes"/>
      <point x="458" y="559"/>
      <point x="508" y="529"/>
      <point x="508" y="455" type="curve" smooth="yes"/>
      <point x="508" y="404"/>
      <point x="481" y="371"/>
      <point x="440" y="355" type="curve"/>
      <point x="440" y="353" type="line"/>
      <point x="465" y="344"/>
      <point x="477" y="318"/>
      <point x="493" y="279" type="curve" smooth="yes"/>
      <point x="539" y="163" type="line" smooth="yes"/>
      <point x="540" y="159"/>
      <point x="541" y="156"/>
      <point x="541" y="154" type="curve" smooth="yes"/>
      <point x="541" y="149"/>
      <point x="533" y="145"/>
      <point x="516" y="145" type="curve" smooth="yes"/>
      <point x="510" y="145" type="line" smooth="yes"/>
      <point x="498" y="145"/>
      <point x="489" y="149"/>
      <point x="487" y="154" type="curve" smooth="yes"/>
      <point x="442" y="270" type="line" smooth="yes"/>
      <point x="424" y="316"/>
      <point x="400" y="328"/>
      <point x="354" y="328" type="curve" smooth="yes"/>
      <point x="301" y="328" type="line"/>
      <point x="301" y="158" type="line" smooth="yes"/>
      <point x="301" y="150"/>
      <point x="294" y="145"/>
      <point x="277" y="145" type="curve" smooth="yes"/>
      <point x="273" y="145" type="line" smooth="yes"/>
      <point x="256" y="145"/>
      <point x="249" y="150"/>
      <point x="249" y="158" type="curve" smooth="yes"/>
      <point x="249" y="541" type="line" smooth="yes"/>
      <point x="249" y="554"/>
      <point x="254" y="559"/>
    </contour>
    <contour>
      <point x="301" y="514" type="line"/>
      <point x="301" y="373" type="line"/>
      <point x="379" y="373" type="line" smooth="yes"/>
      <point x="421" y="373"/>
      <point x="454" y="406"/>
      <point x="454" y="445" type="curve" smooth="yes"/>
      <point x="454" y="493"/>
      <point x="422" y="514"/>
      <point x="375" y="514" type="curve" smooth="yes"/>
    </contour>
  </outline>
</glyph>
<glyph name="degree" format="1">
  <advance width="345"/>
  <unicode hex="00B0"/>
  <outline>
    <contour>
      <point x="170" y="706" type="curve" smooth="yes"/>
      <point x="243" y="706"/>
      <point x="303" y="646"/>
      <point x="303" y="573" type="curve" smooth="yes"/>
      <point x="303" y="500"/>
      <point x="243" y="441"/>
      <point x="170" y="441" type="curve" smooth="yes"/>
      <point x="97" y="441"/>
      <point x="38" y="500"/>
      <point x="38" y="573" type="curve" smooth="yes"/>
      <point x="38" y="646"/>
      <point x="97" y="706"/>
    </contour>
    <contour>
      <point x="170" y="661" type="curve" smooth="yes"/>
      <point x="124" y="661"/>
      <point x="87" y="621"/>
      <point x="87" y="573" type="curve" smooth="yes"/>
      <point x="87" y="525"/>
      <point x="124" y="486"/>
      <point x="170" y="486" type="curve" smooth="yes"/>
      <point x="216" y="486"/>
      <point x="254" y="525"/>
      <point x="254" y="573" type="curve" smooth="yes"/>
      <point x="254" y="621"/>
      <point x="216" y="661"/>
    </contour>
  </outline>
</glyph>
<glyph name="twosuperior" format="1">
  <advance width="320"/>
  <unicode hex="00B2"/>
  <outline>
    <contour>
      <point x="152" y="705" type="curve" smooth="yes"/>
      <point x="228" y="705"/>
      <point x="275" y="668"/>
      <point x="275" y="607" type="curve" smooth="yes"/>
      <point x="275" y="567"/>
      <point x="266" y="545"/>
      <point x="215" y="479" type="curve" smooth="yes"/>
      <point x="101" y="339" type="line"/>
      <point x="267" y="339" type="line" smooth="yes"/>
      <point x="275" y="339"/>
      <point x="278" y="334"/>
      <point x="278" y="322" type="curve" smooth="yes"/>
      <point x="278" y="315" type="line" smooth="yes"/>
      <point x="278" y="303"/>
      <point x="275" y="298"/>
      <point x="267" y="298" type="curve" smooth="yes"/>
      <point x="47" y="298" type="line" smooth="yes"/>
      <point x="40" y="298"/>
      <point x="35" y="312"/>
      <point x="35" y="323" type="curve" smooth="yes"/>
      <point x="35" y="327"/>
      <point x="36" y="331"/>
      <point x="37" y="333" type="curve" smooth="yes"/>
      <point x="186" y="520" type="line" smooth="yes"/>
      <point x="222" y="569"/>
      <point x="225" y="580"/>
      <point x="225" y="604" type="curve" smooth="yes"/>
      <point x="225" y="640"/>
      <point x="198" y="663"/>
      <point x="153" y="663" type="curve" smooth="yes"/>
      <point x="101" y="663"/>
      <point x="77" y="634"/>
      <point x="67" y="634" type="curve" smooth="yes"/>
      <point x="61" y="634"/>
      <point x="48" y="654"/>
      <point x="48" y="663" type="curve" smooth="yes"/>
      <point x="48" y="687"/>
      <point x="117" y="705"/>
    </contour>
  </outline>
</glyph>
<glyph name="acute" format="1">
  <advance width="320"/>
  <unicode hex="00B4"/>
  <outline>
    <contour>
      <point x="120" y="700" type="move" name="Anchor-3"/>
    </contour>
    <contour>
      <point x="194" y="732" type="curve" smooth="yes"/>
      <point x="226" y="732"/>
      <point x="242" y="729"/>
      <point x="242" y="719" type="curve" smooth="yes"/>
      <point x="242" y="708"/>
      <point x="232" y="699"/>
      <point x="148" y="603" type="curve" smooth="yes"/>
      <point x="137" y="591"/>
      <point x="118" y="585"/>
      <point x="97" y="585" type="curve" smooth="yes"/>
      <point x="81" y="585"/>
      <point x="74" y="588"/>
      <point x="74" y="595" type="curve" smooth="yes"/>
      <point x="74" y="605"/>
      <point x="86" y="626"/>
      <point x="132" y="706" type="curve" smooth="yes"/>
      <point x="143" y="725"/>
      <point x="162" y="732"/>
    </contour>
  </outline>
</glyph>
<glyph name="uni00B5" format="1">
  <advance width="566"/>
  <unicode hex="00B5"/>
  <outline>
    <contour>
      <point x="481" y="503" type="curve" smooth="yes"/>
      <point x="481" y="148" type="line" smooth="yes"/>
      <point x="481" y="66"/>
      <point x="493" y="27"/>
      <point x="493" y="22" type="curve" smooth="yes"/>
      <point x="493" y="3"/>
      <point x="452" y="-1"/>
      <point x="439" y="-1" type="curve" smooth="yes"/>
      <point x="415" y="-1"/>
      <point x="410" y="41"/>
      <point x="404" y="69" type="curve"/>
      <point x="362" y="22"/>
      <point x="304" y="-6"/>
      <point x="248" y="-6" type="curve" smooth="yes"/>
      <point x="218" y="-6"/>
      <point x="191" y="0"/>
      <point x="169" y="9" type="curve"/>
      <point x="169" y="-186" type="line" smooth="yes"/>
      <point x="169" y="-200"/>
      <point x="157" y="-208"/>
      <point x="129" y="-208" type="curve" smooth="yes"/>
      <point x="125" y="-208" type="line" smooth="yes"/>
      <point x="97" y="-208"/>
      <point x="85" y="-200"/>
      <point x="85" y="-186" type="curve" smooth="yes"/>
      <point x="85" y="503" type="line" smooth="yes"/>
      <point x="85" y="517"/>
      <point x="97" y="525"/>
      <point x="125" y="525" type="curve" smooth="yes"/>
      <point x="129" y="525" type="line" smooth="yes"/>
      <point x="157" y="525"/>
      <point x="169" y="517"/>
      <point x="169" y="503" type="curve" smooth="yes"/>
      <point x="169" y="164" type="line" smooth="yes"/>
      <point x="169" y="103"/>
      <point x="206" y="67"/>
      <point x="271" y="67" type="curve" smooth="yes"/>
      <point x="316" y="67"/>
      <point x="364" y="94"/>
      <point x="397" y="137" type="curve"/>
      <point x="397" y="503" type="line" smooth="yes"/>
      <point x="397" y="517"/>
      <point x="409" y="525"/>
      <point x="437" y="525" type="curve" smooth="yes"/>
      <point x="441" y="525" type="line" smooth="yes"/>
      <point x="469" y="525"/>
      <point x="481" y="517"/>
    </contour>
  </outline>
</glyph>
<glyph name="paragraph" format="1">
  <advance width="515"/>
  <unicode hex="00B6"/>
  <outline>
    <contour>
      <point x="268" y="700" type="curve" smooth="yes"/>
      <point x="481" y="700" type="line" smooth="yes"/>
      <point x="495" y="700"/>
      <point x="501" y="693"/>
      <point x="501" y="676" type="curve" smooth="yes"/>
      <point x="501" y="662" type="line" smooth="yes"/>
      <point x="501" y="645"/>
      <point x="495" y="638"/>
      <point x="481" y="638" type="curve" smooth="yes"/>
      <point x="445" y="638" type="line"/>
      <point x="445" y="-151" type="line" smooth="yes"/>
      <point x="445" y="-165"/>
      <point x="438" y="-173"/>
      <point x="421" y="-173" type="curve" smooth="yes"/>
      <point x="407" y="-173" type="line" smooth="yes"/>
      <point x="390" y="-173"/>
      <point x="383" y="-165"/>
      <point x="383" y="-151" type="curve" smooth="yes"/>
      <point x="383" y="638" type="line"/>
      <point x="305" y="638" type="line"/>
      <point x="305" y="-151" type="line" smooth="yes"/>
      <point x="305" y="-165"/>
      <point x="298" y="-173"/>
      <point x="281" y="-173" type="curve" smooth="yes"/>
      <point x="267" y="-173" type="line" smooth="yes"/>
      <point x="250" y="-173"/>
      <point x="243" y="-165"/>
      <point x="243" y="-151" type="curve" smooth="yes"/>
      <point x="243" y="247" type="line"/>
      <point x="130" y="260"/>
      <point x="41" y="356"/>
      <point x="41" y="473" type="curve" smooth="yes"/>
      <point x="41" y="598"/>
      <point x="143" y="700"/>
    </contour>
  </outline>
</glyph>
<glyph name="periodcentered" format="1">
  <advance width="267"/>
  <unicode hex="00B7"/>
  <outline>
    <contour>
      <point x="141" y="412" type="curve" smooth="yes"/>
      <point x="170" y="412"/>
      <point x="193" y="389"/>
      <point x="193" y="360" type="curve" smooth="yes"/>
      <point x="193" y="331"/>
      <point x="170" y="309"/>
      <point x="141" y="309" type="curve" smooth="yes"/>
      <point x="112" y="309"/>
      <point x="90" y="331"/>
      <point x="90" y="360" type="curve" smooth="yes"/>
      <point x="90" y="389"/>
      <point x="112" y="412"/>
    </contour>
  </outline>
</glyph>
<glyph name="cedilla" format="1">
  <advance width="320"/>
  <unicode hex="00B8"/>
  <outline>
    <contour>
      <point x="156" y="-203" type="move" name="Anchor-2"/>
    </contour>
    <contour>
      <point x="186" y="-49" type="line"/>
      <point x="190" y="-49" type="line" smooth="yes"/>
      <point x="212" y="-49"/>
      <point x="275" y="-56"/>
      <point x="275" y="-121" type="curve" smooth="yes"/>
      <point x="275" y="-199"/>
      <point x="210" y="-210"/>
      <point x="160" y="-210" type="curve" smooth="yes"/>
      <point x="115" y="-210"/>
      <point x="45" y="-194"/>
      <point x="45" y="-167" type="curve" smooth="yes"/>
      <point x="45" y="-155"/>
      <point x="49" y="-141"/>
      <point x="64" y="-141" type="curve" smooth="yes"/>
      <point x="80" y="-141"/>
      <point x="109" y="-161"/>
      <point x="147" y="-161" type="curve" smooth="yes"/>
      <point x="171" y="-161"/>
      <point x="204" y="-157"/>
      <point x="204" y="-126" type="curve" smooth="yes"/>
      <point x="204" y="-81"/>
      <point x="138" y="-95"/>
      <point x="138" y="-68" type="curve" smooth="yes"/>
      <point x="138" y="-60"/>
      <point x="140" y="-53"/>
      <point x="157" y="0" type="curve"/>
      <point x="200" y="0" type="line"/>
    </contour>
  </outline>
</glyph>
<glyph name="onesuperior" format="1">
  <advance width="217"/>
  <unicode hex="00B9"/>
  <outline>
    <contour>
      <point x="51" y="674" type="curve" smooth="yes"/>
      <point x="157" y="702" type="line" smooth="yes"/>
      <point x="166" y="702"/>
      <point x="175" y="697"/>
      <point x="175" y="690" type="curve" smooth="yes"/>
      <point x="175" y="311" type="line" smooth="yes"/>
      <point x="175" y="301"/>
      <point x="163" y="297"/>
      <point x="153" y="297" type="curve" smooth="yes"/>
      <point x="148" y="297" type="line" smooth="yes"/>
      <point x="138" y="297"/>
      <point x="127" y="301"/>
      <point x="127" y="311" type="curve" smooth="yes"/>
      <point x="127" y="649" type="line"/>
      <point x="53" y="633" type="line" smooth="yes"/>
      <point x="44" y="633"/>
      <point x="41" y="652"/>
      <point x="41" y="663" type="curve" smooth="yes"/>
      <point x="41" y="669"/>
      <point x="44" y="672"/>
    </contour>
  </outline>
</glyph>
<glyph name="ordmasculine" format="1">
  <advance width="337"/>
  <unicode hex="00BA"/>
  <outline>
    <contour>
      <point x="170" y="706" type="curve" smooth="yes"/>
      <point x="242" y="706"/>
      <point x="282" y="659"/>
      <point x="282" y="572" type="curve" smooth="yes"/>
      <point x="282" y="487"/>
      <point x="243" y="441"/>
      <point x="170" y="441" type="curve" smooth="yes"/>
      <point x="95" y="441"/>
      <point x="55" y="487"/>
      <point x="55" y="572" type="curve" smooth="yes"/>
      <point x="55" y="658"/>
      <point x="96" y="706"/>
    </contour>
    <contour>
      <point x="168" y="670" type="curve" smooth="yes"/>
      <point x="120" y="670"/>
      <point x="98" y="640"/>
      <point x="98" y="573" type="curve" smooth="yes"/>
      <point x="98" y="508"/>
      <point x="120" y="477"/>
      <point x="168" y="477" type="curve" smooth="yes"/>
      <point x="217" y="477"/>
      <point x="239" y="508"/>
      <point x="239" y="573" type="curve" smooth="yes"/>
      <point x="239" y="639"/>
      <point x="217" y="670"/>
    </contour>
  </outline>
</glyph>
<glyph name="guillemotright" format="1">
  <advance width="471"/>
  <unicode hex="00BB"/>
  <outline>
    <contour>
      <point x="89" y="454" type="curve" smooth="yes"/>
      <point x="97" y="454"/>
      <point x="104" y="450"/>
      <point x="111" y="442" type="curve" smooth="yes"/>
      <point x="241" y="286" type="line" smooth="yes"/>
      <point x="250" y="275"/>
      <point x="254" y="267"/>
      <point x="254" y="258" type="curve" smooth="yes"/>
      <point x="254" y="249"/>
      <point x="250" y="241"/>
      <point x="241" y="230" type="curve" smooth="yes"/>
      <point x="111" y="74" type="line" smooth="yes"/>
      <point x="104" y="66"/>
      <point x="97" y="61"/>
      <point x="89" y="61" type="curve" smooth="yes"/>
      <point x="73" y="61"/>
      <point x="54" y="82"/>
      <point x="54" y="94" type="curve" smooth="yes"/>
      <point x="54" y="100"/>
      <point x="57" y="106"/>
      <point x="62" y="113" type="curve" smooth="yes"/>
      <point x="173" y="258" type="line"/>
      <point x="62" y="402" type="line" smooth="yes"/>
      <point x="57" y="409"/>
      <point x="54" y="416"/>
      <point x="54" y="422" type="curve" smooth="yes"/>
      <point x="54" y="439"/>
      <point x="77" y="454"/>
    </contour>
    <contour>
      <point x="261" y="454" type="curve" smooth="yes"/>
      <point x="269" y="454"/>
      <point x="276" y="450"/>
      <point x="283" y="442" type="curve" smooth="yes"/>
      <point x="413" y="286" type="line" smooth="yes"/>
      <point x="422" y="275"/>
      <point x="426" y="267"/>
      <point x="426" y="258" type="curve" smooth="yes"/>
      <point x="426" y="249"/>
      <point x="422" y="241"/>
      <point x="413" y="230" type="curve" smooth="yes"/>
      <point x="283" y="74" type="line" smooth="yes"/>
      <point x="276" y="66"/>
      <point x="269" y="61"/>
      <point x="261" y="61" type="curve" smooth="yes"/>
      <point x="245" y="61"/>
      <point x="226" y="82"/>
      <point x="226" y="94" type="curve" smooth="yes"/>
      <point x="226" y="100"/>
      <point x="229" y="106"/>
      <point x="234" y="113" type="curve" smooth="yes"/>
      <point x="345" y="258" type="line"/>
      <point x="234" y="402" type="line" smooth="yes"/>
      <point x="229" y="409"/>
      <point x="226" y="416"/>
      <point x="226" y="422" type="curve" smooth="yes"/>
      <point x="226" y="439"/>
      <point x="249" y="454"/>
    </contour>
  </outline>
</glyph>
<glyph name="onequarter" format="1">
  <advance width="671"/>
  <unicode hex="00BC"/>
  <outline>
    <contour>
      <point x="530" y="703" type="curve" smooth="yes"/>
      <point x="543" y="703" type="line" smooth="yes"/>
      <point x="552" y="703"/>
      <point x="557" y="701"/>
      <point x="557" y="696" type="curve" smooth="yes"/>
      <point x="557" y="693"/>
      <point x="555" y="690"/>
      <point x="553" y="686" type="curve" smooth="yes"/>
      <point x="147" y="15" type="line" smooth="yes"/>
      <point x="140" y="3"/>
      <point x="131" y="-2"/>
      <point x="117" y="-2" type="curve" smooth="yes"/>
      <point x="104" y="-2" type="line" smooth="yes"/>
      <point x="95" y="-2"/>
      <point x="90" y="0"/>
      <point x="90" y="5" type="curve" smooth="yes"/>
      <point x="90" y="7"/>
      <point x="91" y="11"/>
      <point x="94" y="15" type="curve" smooth="yes"/>
      <point x="500" y="686" type="line" smooth="yes"/>
      <point x="507" y="698"/>
      <point x="516" y="703"/>
    </contour>
    <contour>
      <point x="51" y="674" type="curve" smooth="yes"/>
      <point x="157" y="702" type="line" smooth="yes"/>
      <point x="166" y="702"/>
      <point x="175" y="697"/>
      <point x="175" y="690" type="curve" smooth="yes"/>
      <point x="175" y="311" type="line" smooth="yes"/>
      <point x="175" y="301"/>
      <point x="163" y="297"/>
      <point x="153" y="297" type="curve" smooth="yes"/>
      <point x="148" y="297" type="line" smooth="yes"/>
      <point x="138" y="297"/>
      <point x="127" y="301"/>
      <point x="127" y="311" type="curve" smooth="yes"/>
      <point x="127" y="649" type="line"/>
      <point x="53" y="633" type="line" smooth="yes"/>
      <point x="44" y="633"/>
      <point x="41" y="652"/>
      <point x="41" y="663" type="curve" smooth="yes"/>
      <point x="41" y="669"/>
      <point x="44" y="672"/>
    </contour>
    <contour>
      <point x="552" y="404" type="curve" smooth="yes"/>
      <point x="561" y="404" type="line" smooth="yes"/>
      <point x="573" y="404"/>
      <point x="578" y="399"/>
      <point x="578" y="391" type="curve" smooth="yes"/>
      <point x="578" y="129" type="line"/>
      <point x="617" y="129" type="line" smooth="yes"/>
      <point x="625" y="129"/>
      <point x="628" y="124"/>
      <point x="628" y="112" type="curve" smooth="yes"/>
      <point x="628" y="105" type="line" smooth="yes"/>
      <point x="628" y="93"/>
      <point x="625" y="87"/>
      <point x="617" y="87" type="curve" smooth="yes"/>
      <point x="578" y="87" type="line"/>
      <point x="578" y="11" type="line" smooth="yes"/>
      <point x="578" y="3"/>
      <point x="573" y="-2"/>
      <point x="561" y="-2" type="curve" smooth="yes"/>
      <point x="548" y="-2" type="line" smooth="yes"/>
      <point x="536" y="-2"/>
      <point x="530" y="3"/>
      <point x="530" y="11" type="curve" smooth="yes"/>
      <point x="530" y="87" type="line"/>
      <point x="355" y="87" type="line" smooth="yes"/>
      <point x="349" y="87"/>
      <point x="341" y="106"/>
      <point x="341" y="117" type="curve" smooth="yes"/>
      <point x="341" y="119"/>
      <point x="341" y="122"/>
      <point x="342" y="124" type="curve" smooth="yes"/>
      <point x="532" y="396" type="line" smooth="yes"/>
      <point x="536" y="401"/>
      <point x="544" y="404"/>
    </contour>
    <contour>
      <point x="529" y="324" type="line"/>
      <point x="398" y="129" type="line"/>
      <point x="530" y="129" type="line"/>
      <point x="530" y="260" type="line"/>
      <point x="532" y="322" type="line"/>
    </contour>
  </outline>
</glyph>
<glyph name="onehalf" format="1">
  <advance width="746"/>
  <unicode hex="00BD"/>
  <outline>
    <contour>
      <point x="530" y="703" type="curve" smooth="yes"/>
      <point x="543" y="703" type="line" smooth="yes"/>
      <point x="552" y="703"/>
      <point x="557" y="701"/>
      <point x="557" y="696" type="curve" smooth="yes"/>
      <point x="557" y="693"/>
      <point x="555" y="690"/>
      <point x="553" y="686" type="curve" smooth="yes"/>
      <point x="147" y="15" type="line" smooth="yes"/>
      <point x="140" y="3"/>
      <point x="131" y="-2"/>
      <point x="117" y="-2" type="curve" smooth="yes"/>
      <point x="104" y="-2" type="line" smooth="yes"/>
      <point x="95" y="-2"/>
      <point x="90" y="0"/>
      <point x="90" y="5" type="curve" smooth="yes"/>
      <point x="90" y="7"/>
      <point x="91" y="11"/>
      <point x="94" y="15" type="curve" smooth="yes"/>
      <point x="500" y="686" type="line" smooth="yes"/>
      <point x="507" y="698"/>
      <point x="516" y="703"/>
    </contour>
    <contour>
      <point x="51" y="674" type="curve" smooth="yes"/>
      <point x="157" y="702" type="line" smooth="yes"/>
      <point x="166" y="702"/>
      <point x="175" y="697"/>
      <point x="175" y="690" type="curve" smooth="yes"/>
      <point x="175" y="311" type="line" smooth="yes"/>
      <point x="175" y="301"/>
      <point x="163" y="297"/>
      <point x="153" y="297" type="curve" smooth="yes"/>
      <point x="148" y="297" type="line" smooth="yes"/>
      <point x="138" y="297"/>
      <point x="127" y="301"/>
      <point x="127" y="311" type="curve" smooth="yes"/>
      <point x="127" y="649" type="line"/>
      <point x="53" y="633" type="line" smooth="yes"/>
      <point x="44" y="633"/>
      <point x="41" y="652"/>
      <point x="41" y="663" type="curve" smooth="yes"/>
      <point x="41" y="669"/>
      <point x="44" y="672"/>
    </contour>
    <contour>
      <point x="563" y="407" type="curve" smooth="yes"/>
      <point x="639" y="407"/>
      <point x="686" y="370"/>
      <point x="686" y="309" type="curve" smooth="yes"/>
      <point x="686" y="272"/>
      <point x="681" y="253"/>
      <point x="635" y="192" type="curve" smooth="yes"/>
      <point x="512" y="41" type="line"/>
      <point x="678" y="41" type="line" smooth="yes"/>
      <point x="686" y="41"/>
      <point x="689" y="36"/>
      <point x="689" y="24" type="curve" smooth="yes"/>
      <point x="689" y="17" type="line" smooth="yes"/>
      <point x="689" y="5"/>
      <point x="686" y="0"/>
      <point x="678" y="0" type="curve" smooth="yes"/>
      <point x="458" y="0" type="line" smooth="yes"/>
      <point x="451" y="0"/>
      <point x="446" y="14"/>
      <point x="446" y="25" type="curve" smooth="yes"/>
      <point x="446" y="29"/>
      <point x="447" y="33"/>
      <point x="448" y="35" type="curve" smooth="yes"/>
      <point x="588" y="211" type="line" smooth="yes"/>
      <point x="633" y="269"/>
      <point x="636" y="281"/>
      <point x="636" y="306" type="curve" smooth="yes"/>
      <point x="636" y="342"/>
      <point x="609" y="365"/>
      <point x="564" y="365" type="curve" smooth="yes"/>
      <point x="512" y="365"/>
      <point x="488" y="336"/>
      <point x="478" y="336" type="curve" smooth="yes"/>
      <point x="472" y="336"/>
      <point x="459" y="356"/>
      <point x="459" y="365" type="curve" smooth="yes"/>
      <point x="459" y="389"/>
      <point x="528" y="407"/>
    </contour>
  </outline>
</glyph>
<glyph name="threequarters" format="1">
  <advance width="738"/>
  <unicode hex="00BE"/>
  <outline>
    <contour>
      <point x="154" y="706" type="curve" smooth="yes"/>
      <point x="223" y="706"/>
      <point x="272" y="672"/>
      <point x="272" y="603" type="curve" smooth="yes"/>
      <point x="272" y="563"/>
      <point x="243" y="537"/>
      <point x="212" y="524" type="curve"/>
      <point x="212" y="520" type="line"/>
      <point x="247" y="511"/>
      <point x="285" y="475"/>
      <point x="285" y="414" type="curve" smooth="yes"/>
      <point x="285" y="325"/>
      <point x="213" y="293"/>
      <point x="155" y="293" type="curve" smooth="yes"/>
      <point x="88" y="293"/>
      <point x="39" y="312"/>
      <point x="39" y="326" type="curve" smooth="yes"/>
      <point x="39" y="337"/>
      <point x="53" y="355"/>
      <point x="59" y="355" type="curve" smooth="yes"/>
      <point x="70" y="355"/>
      <point x="100" y="335"/>
      <point x="150" y="335" type="curve" smooth="yes"/>
      <point x="185" y="335"/>
      <point x="234" y="352"/>
      <point x="234" y="414" type="curve" smooth="yes"/>
      <point x="234" y="474"/>
      <point x="199" y="491"/>
      <point x="147" y="491" type="curve" smooth="yes"/>
      <point x="129" y="491" type="line" smooth="yes"/>
      <point x="121" y="491"/>
      <point x="117" y="497"/>
      <point x="117" y="509" type="curve" smooth="yes"/>
      <point x="117" y="515" type="line" smooth="yes"/>
      <point x="117" y="527"/>
      <point x="121" y="533"/>
      <point x="129" y="533" type="curve" smooth="yes"/>
      <point x="145" y="533" type="line" smooth="yes"/>
      <point x="205" y="533"/>
      <point x="222" y="581"/>
      <point x="222" y="608" type="curve" smooth="yes"/>
      <point x="222" y="630"/>
      <point x="209" y="664"/>
      <point x="153" y="664" type="curve" smooth="yes"/>
      <point x="101" y="664"/>
      <point x="80" y="645"/>
      <point x="70" y="645" type="curve" smooth="yes"/>
      <point x="63" y="645"/>
      <point x="51" y="666"/>
      <point x="51" y="675" type="curve" smooth="yes"/>
      <point x="51" y="693"/>
      <point x="119" y="706"/>
    </contour>
    <contour>
      <point x="595" y="703" type="curve" smooth="yes"/>
      <point x="608" y="703" type="line" smooth="yes"/>
      <point x="617" y="703"/>
      <point x="622" y="701"/>
      <point x="622" y="696" type="curve" smooth="yes"/>
      <point x="622" y="693"/>
      <point x="620" y="690"/>
      <point x="618" y="686" type="curve" smooth="yes"/>
      <point x="212" y="15" type="line" smooth="yes"/>
      <point x="205" y="3"/>
      <point x="196" y="-2"/>
      <point x="182" y="-2" type="curve" smooth="yes"/>
      <point x="169" y="-2" type="line" smooth="yes"/>
      <point x="160" y="-2"/>
      <point x="155" y="0"/>
      <point x="155" y="5" type="curve" smooth="yes"/>
      <point x="155" y="7"/>
      <point x="156" y="11"/>
      <point x="159" y="15" type="curve" smooth="yes"/>
      <point x="565" y="686" type="line" smooth="yes"/>
      <point x="572" y="698"/>
      <point x="581" y="703"/>
    </contour>
    <contour>
      <point x="621" y="404" type="curve" smooth="yes"/>
      <point x="630" y="404" type="line" smooth="yes"/>
      <point x="642" y="404"/>
      <point x="647" y="399"/>
      <point x="647" y="391" type="curve" smooth="yes"/>
      <point x="647" y="129" type="line"/>
      <point x="686" y="129" type="line" smooth="yes"/>
      <point x="694" y="129"/>
      <point x="697" y="124"/>
      <point x="697" y="112" type="curve" smooth="yes"/>
      <point x="697" y="105" type="line" smooth="yes"/>
      <point x="697" y="93"/>
      <point x="694" y="87"/>
      <point x="686" y="87" type="curve" smooth="yes"/>
      <point x="647" y="87" type="line"/>
      <point x="647" y="11" type="line" smooth="yes"/>
      <point x="647" y="3"/>
      <point x="642" y="-2"/>
      <point x="630" y="-2" type="curve" smooth="yes"/>
      <point x="617" y="-2" type="line" smooth="yes"/>
      <point x="605" y="-2"/>
      <point x="599" y="3"/>
      <point x="599" y="11" type="curve" smooth="yes"/>
      <point x="599" y="87" type="line"/>
      <point x="424" y="87" type="line" smooth="yes"/>
      <point x="418" y="87"/>
      <point x="410" y="106"/>
      <point x="410" y="117" type="curve" smooth="yes"/>
      <point x="410" y="119"/>
      <point x="410" y="122"/>
      <point x="411" y="124" type="curve" smooth="yes"/>
      <point x="601" y="396" type="line" smooth="yes"/>
      <point x="605" y="401"/>
      <point x="613" y="404"/>
    </contour>
    <contour>
      <point x="598" y="324" type="line"/>
      <point x="467" y="129" type="line"/>
      <point x="599" y="129" type="line"/>
      <point x="599" y="260" type="line"/>
      <point x="601" y="322" type="line"/>
    </contour>
  </outline>
</glyph>
<glyph name="questiondown" format="1">
  <advance width="425"/>
  <unicode hex="00BF"/>
  <outline>
    <contour>
      <point x="253" y="525" type="curve" smooth="yes"/>
      <point x="270" y="525" type="line" smooth="yes"/>
      <point x="298" y="525"/>
      <point x="310" y="517"/>
      <point x="310" y="503" type="curve" smooth="yes"/>
      <point x="310" y="437" type="line" smooth="yes"/>
      <point x="310" y="423"/>
      <point x="298" y="415"/>
      <point x="270" y="415" type="curve" smooth="yes"/>
      <point x="253" y="415" type="line" smooth="yes"/>
      <point x="225" y="415"/>
      <point x="213" y="423"/>
      <point x="213" y="437" type="curve" smooth="yes"/>
      <point x="213" y="503" type="line" smooth="yes"/>
      <point x="213" y="517"/>
      <point x="225" y="525"/>
    </contour>
    <contour>
      <point x="250" y="321" type="curve" smooth="yes"/>
      <point x="265" y="321" type="line" smooth="yes"/>
      <point x="286" y="321"/>
      <point x="295" y="312"/>
      <point x="295" y="298" type="curve" smooth="yes"/>
      <point x="295" y="253"/>
      <point x="264" y="194"/>
      <point x="209" y="139" type="curve" smooth="yes"/>
      <point x="158" y="88"/>
      <point x="114" y="45"/>
      <point x="114" y="-5" type="curve" smooth="yes"/>
      <point x="114" y="-75"/>
      <point x="157" y="-109"/>
      <point x="240" y="-109" type="curve" smooth="yes"/>
      <point x="303" y="-109"/>
      <point x="349" y="-75"/>
      <point x="364" y="-75" type="curve" smooth="yes"/>
      <point x="374" y="-75"/>
      <point x="396" y="-112"/>
      <point x="396" y="-126" type="curve" smooth="yes"/>
      <point x="396" y="-160"/>
      <point x="297" y="-183"/>
      <point x="224" y="-183" type="curve" smooth="yes"/>
      <point x="91" y="-183"/>
      <point x="19" y="-105"/>
      <point x="19" y="-15" type="curve" smooth="yes"/>
      <point x="19" y="120"/>
      <point x="202" y="185"/>
      <point x="217" y="301" type="curve" smooth="yes"/>
      <point x="219" y="314"/>
      <point x="226" y="321"/>
    </contour>
  </outline>
</glyph>
<glyph name="Agrave" format="1">
  <advance width="613"/>
  <unicode hex="00C0"/>
  <outline>
    <contour>
      <point x="302" y="877" type="move" name="Anchor-1"/>
    </contour>
    <contour>
      <point x="310" y="0" type="move" name="Anchor-0"/>
    </contour>
    <contour>
      <point x="237" y="909" type="curve" smooth="yes"/>
      <point x="269" y="909"/>
      <point x="288" y="902"/>
      <point x="299" y="883" type="curve" smooth="yes"/>
      <point x="345" y="803"/>
      <point x="357" y="782"/>
      <point x="357" y="772" type="curve" smooth="yes"/>
      <point x="357" y="765"/>
      <point x="350" y="762"/>
      <point x="334" y="762" type="curve" smooth="yes"/>
      <point x="313" y="762"/>
      <point x="294" y="768"/>
      <point x="283" y="780" type="curve" smooth="yes"/>
      <point x="199" y="876"/>
      <point x="189" y="885"/>
      <point x="189" y="896" type="curve" smooth="yes"/>
      <point x="189" y="906"/>
      <point x="205" y="909"/>
    </contour>
    <contour>
      <point x="292" y="702" type="curve" smooth="yes"/>
      <point x="321" y="702" type="line" smooth="yes"/>
      <point x="341" y="702"/>
      <point x="357" y="698"/>
      <point x="361" y="686" type="curve" smooth="yes"/>
      <point x="598" y="28" type="line" smooth="yes"/>
      <point x="600" y="23"/>
      <point x="601" y="19"/>
      <point x="601" y="15" type="curve" smooth="yes"/>
      <point x="601" y="5"/>
      <point x="588" y="-2"/>
      <point x="558" y="-2" type="curve" smooth="yes"/>
      <point x="550" y="-2" type="line" smooth="yes"/>
      <point x="530" y="-2"/>
      <point x="514" y="2"/>
      <point x="510" y="14" type="curve" smooth="yes"/>
      <point x="451" y="178" type="line"/>
      <point x="157" y="178" type="line"/>
      <point x="100" y="14" type="line" smooth="yes"/>
      <point x="96" y="2"/>
      <point x="80" y="-2"/>
      <point x="60" y="-2" type="curve" smooth="yes"/>
      <point x="55" y="-2" type="line" smooth="yes"/>
      <point x="25" y="-2"/>
      <point x="12" y="4"/>
      <point x="12" y="15" type="curve" smooth="yes"/>
      <point x="12" y="19"/>
      <point x="13" y="23"/>
      <point x="15" y="29" type="curve" smooth="yes"/>
      <point x="252" y="686" type="line" smooth="yes"/>
      <point x="256" y="698"/>
      <point x="272" y="702"/>
    </contour>
    <contour>
      <point x="307" y="610" type="curve"/>
      <point x="305" y="610" type="line"/>
      <point x="301" y="591"/>
      <point x="297" y="571"/>
      <point x="290" y="552" type="curve" smooth="yes"/>
      <point x="185" y="254" type="line"/>
      <point x="424" y="254" type="line"/>
      <point x="319" y="552" type="line" smooth="yes"/>
      <point x="313" y="570"/>
      <point x="310" y="591"/>
    </contour>
  </outline>
</glyph>
<glyph name="Atilde" format="1">
  <advance width="613"/>
  <unicode hex="00C3"/>
  <outline>
    <contour>
      <point x="317" y="877" type="move" name="Anchor-1"/>
    </contour>
    <contour>
      <point x="310" y="0" type="move" name="Anchor-0"/>
    </contour>
    <contour>
      <point x="432" y="849" type="curve" smooth="yes"/>
      <point x="445" y="858"/>
      <point x="458" y="854"/>
      <point x="466" y="845" type="curve" smooth="yes"/>
      <point x="481" y="827"/>
      <point x="476" y="814"/>
      <point x="464" y="803" type="curve" smooth="yes"/>
      <point x="434" y="781"/>
      <point x="402" y="762"/>
      <point x="361" y="762" type="curve" smooth="yes"/>
      <point x="324" y="762"/>
      <point x="305" y="770"/>
      <point x="288" y="778" type="curve" smooth="yes"/>
      <point x="271" y="786"/>
      <point x="261" y="792"/>
      <point x="242" y="792" type="curve" smooth="yes"/>
      <point x="220" y="792"/>
      <point x="199" y="781"/>
      <point x="187" y="773" type="curve" smooth="yes"/>
      <point x="170" y="762"/>
      <point x="157" y="765"/>
      <point x="146" y="780" type="curve" smooth="yes"/>
      <point x="135" y="795"/>
      <point x="139" y="808"/>
      <point x="150" y="816" type="curve" smooth="yes"/>
      <point x="179" y="836"/>
      <point x="213" y="856"/>
      <point x="254" y="856" type="curve" smooth="yes"/>
      <point x="291" y="856"/>
      <point x="308" y="845"/>
      <point x="324" y="837" type="curve" smooth="yes"/>
      <point x="338" y="830"/>
      <point x="354" y="826"/>
      <point x="374" y="826" type="curve" smooth="yes"/>
      <point x="396" y="826"/>
      <point x="414" y="837"/>
    </contour>
    <contour>
      <point x="292" y="702" type="curve" smooth="yes"/>
      <point x="321" y="702" type="line" smooth="yes"/>
      <point x="341" y="702"/>
      <point x="357" y="698"/>
      <point x="361" y="686" type="curve" smooth="yes"/>
      <point x="598" y="28" type="line" smooth="yes"/>
      <point x="600" y="23"/>
      <point x="601" y="19"/>
      <point x="601" y="15" type="curve" smooth="yes"/>
      <point x="601" y="5"/>
      <point x="588" y="-2"/>
      <point x="558" y="-2" type="curve" smooth="yes"/>
      <point x="550" y="-2" type="line" smooth="yes"/>
      <point x="530" y="-2"/>
      <point x="514" y="2"/>
      <point x="510" y="14" type="curve" smooth="yes"/>
      <point x="451" y="178" type="line"/>
      <point x="157" y="178" type="line"/>
      <point x="100" y="14" type="line" smooth="yes"/>
      <point x="96" y="2"/>
      <point x="80" y="-2"/>
      <point x="60" y="-2" type="curve" smooth="yes"/>
      <point x="55" y="-2" type="line" smooth="yes"/>
      <point x="25" y="-2"/>
      <point x="12" y="4"/>
      <point x="12" y="15" type="curve" smooth="yes"/>
      <point x="12" y="19"/>
      <point x="13" y="23"/>
      <point x="15" y="29" type="curve" smooth="yes"/>
      <point x="252" y="686" type="line" smooth="yes"/>
      <point x="256" y="698"/>
      <point x="272" y="702"/>
    </contour>
    <contour>
      <point x="307" y="610" type="curve"/>
      <point x="305" y="610" type="line"/>
      <point x="301" y="591"/>
      <point x="297" y="571"/>
      <point x="290" y="552" type="curve" smooth="yes"/>
      <point x="185" y="254" type="line"/>
      <point x="424" y="254" type="line"/>
      <point x="319" y="552" type="line" smooth="yes"/>
      <point x="313" y="570"/>
      <point x="310" y="591"/>
    </contour>
  </outline>
</glyph>
<glyph name="Ccedilla" format="1">
  <advance width="619"/>
  <unicode hex="00C7"/>
  <outline>
    <contour>
      <point x="355" y="700" type="move" name="Anchor-1"/>
    </contour>
    <contour>
      <point x="341" y="-203" type="move" name="Anchor-0"/>
    </contour>
    <contour>
      <point x="586" y="66" type="curve" smooth="yes"/>
      <point x="586" y="39"/>
      <point x="498" y="-5"/>
      <point x="383" y="-6" type="curve"/>
      <point x="371" y="-49" type="line"/>
      <point x="375" y="-49" type="line" smooth="yes"/>
      <point x="397" y="-49"/>
      <point x="460" y="-56"/>
      <point x="460" y="-121" type="curve" smooth="yes"/>
      <point x="460" y="-199"/>
      <point x="395" y="-210"/>
      <point x="345" y="-210" type="curve" smooth="yes"/>
      <point x="300" y="-210"/>
      <point x="230" y="-194"/>
      <point x="230" y="-167" type="curve" smooth="yes"/>
      <point x="230" y="-155"/>
      <point x="234" y="-141"/>
      <point x="249" y="-141" type="curve" smooth="yes"/>
      <point x="265" y="-141"/>
      <point x="294" y="-161"/>
      <point x="332" y="-161" type="curve" smooth="yes"/>
      <point x="356" y="-161"/>
      <point x="389" y="-157"/>
      <point x="389" y="-126" type="curve" smooth="yes"/>
      <point x="389" y="-81"/>
      <point x="323" y="-95"/>
      <point x="323" y="-68" type="curve" smooth="yes"/>
      <point x="323" y="-60"/>
      <point x="325" y="-53"/>
      <point x="340" y="-5" type="curve"/>
      <point x="148" y="8"/>
      <point x="57" y="121"/>
      <point x="57" y="350" type="curve" smooth="yes"/>
      <point x="57" y="589"/>
      <point x="167" y="706"/>
      <point x="381" y="706" type="curve" smooth="yes"/>
      <point x="480" y="706"/>
      <point x="572" y="671"/>
      <point x="572" y="644" type="curve" smooth="yes"/>
      <point x="572" y="627"/>
      <point x="551" y="586"/>
      <point x="538" y="586" type="curve" smooth="yes"/>
      <point x="527" y="586"/>
      <point x="479" y="630"/>
      <point x="383" y="630" type="curve" smooth="yes"/>
      <point x="223" y="630"/>
      <point x="148" y="546"/>
      <point x="148" y="349" type="curve" smooth="yes"/>
      <point x="148" y="157"/>
      <point x="222" y="70"/>
      <point x="379" y="70" type="curve" smooth="yes"/>
      <point x="482" y="70"/>
      <point x="538" y="120"/>
      <point x="551" y="120" type="curve" smooth="yes"/>
      <point x="564" y="120"/>
      <point x="586" y="78"/>
    </contour>
  </outline>
</glyph>
<glyph name="Egrave" format="1">
  <advance width="546"/>
  <unicode hex="00C8"/>
  <outline>
    <contour>
      <point x="291" y="877" type="move" name="Anchor-1"/>
    </contour>
    <contour>
      <point x="300" y="0" type="move" name="Anchor-0"/>
    </contour>
    <contour>
      <point x="226" y="909" type="curve" smooth="yes"/>
      <point x="258" y="909"/>
      <point x="277" y="902"/>
      <point x="288" y="883" type="curve" smooth="yes"/>
      <point x="334" y="803"/>
      <point x="346" y="782"/>
      <point x="346" y="772" type="curve" smooth="yes"/>
      <point x="346" y="765"/>
      <point x="339" y="762"/>
      <point x="323" y="762" type="curve" smooth="yes"/>
      <point x="302" y="762"/>
      <point x="283" y="768"/>
      <point x="272" y="780" type="curve" smooth="yes"/>
      <point x="188" y="876"/>
      <point x="178" y="885"/>
      <point x="178" y="896" type="curve" smooth="yes"/>
      <point x="178" y="906"/>
      <point x="194" y="909"/>
    </contour>
    <contour>
      <point x="127" y="700" type="curve" smooth="yes"/>
      <point x="476" y="700" type="line" smooth="yes"/>
      <point x="490" y="700"/>
      <point x="496" y="691"/>
      <point x="496" y="670" type="curve" smooth="yes"/>
      <point x="496" y="654" type="line" smooth="yes"/>
      <point x="496" y="633"/>
      <point x="490" y="624"/>
      <point x="476" y="624" type="curve" smooth="yes"/>
      <point x="185" y="624" type="line"/>
      <point x="185" y="396" type="line"/>
      <point x="446" y="396" type="line" smooth="yes"/>
      <point x="460" y="396"/>
      <point x="466" y="387"/>
      <point x="466" y="366" type="curve" smooth="yes"/>
      <point x="466" y="350" type="line" smooth="yes"/>
      <point x="466" y="329"/>
      <point x="460" y="320"/>
      <point x="446" y="320" type="curve" smooth="yes"/>
      <point x="185" y="320" type="line"/>
      <point x="185" y="76" type="line"/>
      <point x="477" y="76" type="line" smooth="yes"/>
      <point x="491" y="76"/>
      <point x="497" y="67"/>
      <point x="497" y="46" type="curve" smooth="yes"/>
      <point x="497" y="30" type="line" smooth="yes"/>
      <point x="497" y="9"/>
      <point x="491" y="0"/>
      <point x="477" y="0" type="curve" smooth="yes"/>
      <point x="127" y="0" type="line" smooth="yes"/>
      <point x="106" y="0"/>
      <point x="97" y="9"/>
      <point x="97" y="30" type="curve" smooth="yes"/>
      <point x="97" y="670" type="line" smooth="yes"/>
      <point x="97" y="691"/>
      <point x="106" y="700"/>
    </contour>
  </outline>
</glyph>
<glyph name="Edieresis" format="1">
  <advance width="546"/>
  <unicode hex="00CB"/>
  <outline>
    <contour>
      <point x="293" y="877" type="move" name="Anchor-1"/>
    </contour>
    <contour>
      <point x="300" y="0" type="move" name="Anchor-0"/>
    </contour>
    <contour>
      <point x="226" y="879" type="curve" smooth="yes"/>
      <point x="254" y="879"/>
      <point x="266" y="871"/>
      <point x="266" y="857" type="curve" smooth="yes"/>
      <point x="266" y="806" type="line" smooth="yes"/>
      <point x="266" y="793"/>
      <point x="254" y="784"/>
      <point x="222" y="784" type="curve" smooth="yes"/>
      <point x="194" y="784"/>
      <point x="182" y="792"/>
      <point x="182" y="806" type="curve" smooth="yes"/>
      <point x="182" y="857" type="line" smooth="yes"/>
      <point x="182" y="870"/>
      <point x="194" y="879"/>
    </contour>
    <contour>
      <point x="370" y="879" type="curve" smooth="yes"/>
      <point x="398" y="879"/>
      <point x="410" y="871"/>
      <point x="410" y="857" type="curve" smooth="yes"/>
      <point x="410" y="806" type="line" smooth="yes"/>
      <point x="410" y="793"/>
      <point x="398" y="784"/>
      <point x="366" y="784" type="curve" smooth="yes"/>
      <point x="338" y="784"/>
      <point x="326" y="792"/>
      <point x="326" y="806" type="curve" smooth="yes"/>
      <point x="326" y="857" type="line" smooth="yes"/>
      <point x="326" y="870"/>
      <point x="338" y="879"/>
    </contour>
    <contour>
      <point x="127" y="700" type="curve" smooth="yes"/>
      <point x="476" y="700" type="line" smooth="yes"/>
      <point x="490" y="700"/>
      <point x="496" y="691"/>
      <point x="496" y="670" type="curve" smooth="yes"/>
      <point x="496" y="654" type="line" smooth="yes"/>
      <point x="496" y="633"/>
      <point x="490" y="624"/>
      <point x="476" y="624" type="curve" smooth="yes"/>
      <point x="185" y="624" type="line"/>
      <point x="185" y="396" type="line"/>
      <point x="446" y="396" type="line" smooth="yes"/>
      <point x="460" y="396"/>
      <point x="466" y="387"/>
      <point x="466" y="366" type="curve" smooth="yes"/>
      <point x="466" y="350" type="line" smooth="yes"/>
      <point x="466" y="329"/>
      <point x="460" y="320"/>
      <point x="446" y="320" type="curve" smooth="yes"/>
      <point x="185" y="320" type="line"/>
      <point x="185" y="76" type="line"/>
      <point x="477" y="76" type="line" smooth="yes"/>
      <point x="491" y="76"/>
      <point x="497" y="67"/>
      <point x="497" y="46" type="curve" smooth="yes"/>
      <point x="497" y="30" type="line" smooth="yes"/>
      <point x="497" y="9"/>
      <point x="491" y="0"/>
      <point x="477" y="0" type="curve" smooth="yes"/>
      <point x="127" y="0" type="line" smooth="yes"/>
      <point x="106" y="0"/>
      <point x="97" y="9"/>
      <point x="97" y="30" type="curve" smooth="yes"/>
      <point x="97" y="670" type="line" smooth="yes"/>
      <point x="97" y="691"/>
      <point x="106" y="700"/>
    </contour>
  </outline>
</glyph>
<glyph name="Igrave" format="1">
  <advance width="282"/>
  <unicode hex="00CC"/>
  <outline>
    <contour>
      <point x="136" y="877" type="move" name="Anchor-1"/>
    </contour>
    <contour>
      <point x="140" y="0" type="move" name="Anchor-0"/>
    </contour>
    <contour>
      <point x="71" y="909" type="curve" smooth="yes"/>
      <point x="103" y="909"/>
      <point x="122" y="902"/>
      <point x="133" y="883" type="curve" smooth="yes"/>
      <point x="179" y="803"/>
      <point x="191" y="782"/>
      <point x="191" y="772" type="curve" smooth="yes"/>
      <point x="191" y="765"/>
      <point x="184" y="762"/>
      <point x="168" y="762" type="curve" smooth="yes"/>
      <point x="147" y="762"/>
      <point x="128" y="768"/>
      <point x="117" y="780" type="curve" smooth="yes"/>
      <point x="33" y="876"/>
      <point x="23" y="885"/>
      <point x="23" y="896" type="curve" smooth="yes"/>
      <point x="23" y="906"/>
      <point x="39" y="909"/>
    </contour>
    <contour>
      <point x="137" y="702" type="curve" smooth="yes"/>
      <point x="145" y="702" type="line" smooth="yes"/>
      <point x="173" y="702"/>
      <point x="185" y="694"/>
      <point x="185" y="680" type="curve" smooth="yes"/>
      <point x="185" y="20" type="line" smooth="yes"/>
      <point x="185" y="6"/>
      <point x="173" y="-2"/>
      <point x="145" y="-2" type="curve" smooth="yes"/>
      <point x="137" y="-2" type="line" smooth="yes"/>
      <point x="109" y="-2"/>
      <point x="97" y="6"/>
      <point x="97" y="20" type="curve" smooth="yes"/>
      <point x="97" y="680" type="line" smooth="yes"/>
      <point x="97" y="694"/>
      <point x="109" y="702"/>
    </contour>
  </outline>
</glyph>
<glyph name="Iacute" format="1">
  <advance width="282"/>
  <unicode hex="00CD"/>
  <outline>
    <contour>
      <point x="147" y="877" type="move" name="Anchor-1"/>
    </contour>
    <contour>
      <point x="140" y="0" type="move" name="Anchor-0"/>
    </contour>
    <contour>
      <point x="221" y="909" type="curve" smooth="yes"/>
      <point x="253" y="909"/>
      <point x="269" y="906"/>
      <point x="269" y="896" type="curve" smooth="yes"/>
      <point x="269" y="885"/>
      <point x="259" y="876"/>
      <point x="175" y="780" type="curve" smooth="yes"/>
      <point x="164" y="768"/>
      <point x="145" y="762"/>
      <point x="124" y="762" type="curve" smooth="yes"/>
      <point x="108" y="762"/>
      <point x="101" y="765"/>
      <point x="101" y="772" type="curve" smooth="yes"/>
      <point x="101" y="782"/>
      <point x="113" y="803"/>
      <point x="159" y="883" type="curve" smooth="yes"/>
      <point x="170" y="902"/>
      <point x="189" y="909"/>
    </contour>
    <contour>
      <point x="137" y="702" type="curve" smooth="yes"/>
      <point x="145" y="702" type="line" smooth="yes"/>
      <point x="173" y="702"/>
      <point x="185" y="694"/>
      <point x="185" y="680" type="curve" smooth="yes"/>
      <point x="185" y="20" type="line" smooth="yes"/>
      <point x="185" y="6"/>
      <point x="173" y="-2"/>
      <point x="145" y="-2" type="curve" smooth="yes"/>
      <point x="137" y="-2" type="line" smooth="yes"/>
      <point x="109" y="-2"/>
      <point x="97" y="6"/>
      <point x="97" y="20" type="curve" smooth="yes"/>
      <point x="97" y="680" type="line" smooth="yes"/>
      <point x="97" y="694"/>
      <point x="109" y="702"/>
    </contour>
  </outline>
</glyph>
<glyph name="Icircumflex" format="1">
  <advance width="282"/>
  <unicode hex="00CE"/>
  <outline>
    <contour>
      <point x="300" y="793" type="move" name="Anchor-1"/>
    </contour>
    <contour>
      <point x="140" y="0" type="move" name="Anchor-0"/>
    </contour>
    <contour>
      <point x="128" y="895" type="curve" smooth="yes"/>
      <point x="153" y="895" type="line" smooth="yes"/>
      <point x="173" y="895"/>
      <point x="189" y="888"/>
      <point x="199" y="873" type="curve" smooth="yes"/>
      <point x="256" y="785" type="line" smooth="yes"/>
      <point x="260" y="779"/>
      <point x="262" y="773"/>
      <point x="262" y="768" type="curve" smooth="yes"/>
      <point x="262" y="759"/>
      <point x="254" y="753"/>
      <point x="238" y="753" type="curve" smooth="yes"/>
      <point x="236" y="753" type="line" smooth="yes"/>
      <point x="223" y="753"/>
      <point x="213" y="757"/>
      <point x="203" y="766" type="curve" smooth="yes"/>
      <point x="140" y="840" type="line"/>
      <point x="79" y="766" type="line" smooth="yes"/>
      <point x="69" y="757"/>
      <point x="59" y="753"/>
      <point x="45" y="753" type="curve" smooth="yes"/>
      <point x="43" y="753" type="line" smooth="yes"/>
      <point x="28" y="753"/>
      <point x="20" y="758"/>
      <point x="20" y="767" type="curve" smooth="yes"/>
      <point x="20" y="772"/>
      <point x="22" y="778"/>
      <point x="26" y="785" type="curve" smooth="yes"/>
      <point x="82" y="873" type="line" smooth="yes"/>
      <point x="92" y="888"/>
      <point x="108" y="895"/>
    </contour>
    <contour>
      <point x="137" y="702" type="curve" smooth="yes"/>
      <point x="145" y="702" type="line" smooth="yes"/>
      <point x="173" y="702"/>
      <point x="185" y="694"/>
      <point x="185" y="680" type="curve" smooth="yes"/>
      <point x="185" y="20" type="line" smooth="yes"/>
      <point x="185" y="6"/>
      <point x="173" y="-2"/>
      <point x="145" y="-2" type="curve" smooth="yes"/>
      <point x="137" y="-2" type="line" smooth="yes"/>
      <point x="109" y="-2"/>
      <point x="97" y="6"/>
      <point x="97" y="20" type="curve" smooth="yes"/>
      <point x="97" y="680" type="line" smooth="yes"/>
      <point x="97" y="694"/>
      <point x="109" y="702"/>
    </contour>
  </outline>
</glyph>
<glyph name="Eth" format="1">
  <advance width="696"/>
  <unicode hex="00D0"/>
  <outline>
    <contour>
      <point x="115" y="700" type="curve" smooth="yes"/>
      <point x="330" y="700" type="line" smooth="yes"/>
      <point x="502" y="700"/>
      <point x="641" y="609"/>
      <point x="641" y="350" type="curve" smooth="yes"/>
      <point x="641" y="90"/>
      <point x="502" y="0"/>
      <point x="330" y="0" type="curve" smooth="yes"/>
      <point x="115" y="0" type="line" smooth="yes"/>
      <point x="94" y="0"/>
      <point x="85" y="9"/>
      <point x="85" y="30" type="curve" smooth="yes"/>
      <point x="85" y="320" type="line"/>
      <point x="20" y="320" type="line" smooth="yes"/>
      <point x="6" y="320"/>
      <point x="0" y="329"/>
      <point x="0" y="350" type="curve" smooth="yes"/>
      <point x="0" y="366" type="line" smooth="yes"/>
      <point x="0" y="387"/>
      <point x="6" y="396"/>
      <point x="20" y="396" type="curve" smooth="yes"/>
      <point x="85" y="396" type="line"/>
      <point x="85" y="670" type="line" smooth="yes"/>
      <point x="85" y="691"/>
      <point x="94" y="700"/>
    </contour>
    <contour>
      <point x="173" y="624" type="line"/>
      <point x="173" y="396" type="line"/>
      <point x="283" y="396" type="line" smooth="yes"/>
      <point x="297" y="396"/>
      <point x="303" y="387"/>
      <point x="303" y="366" type="curve" smooth="yes"/>
      <point x="303" y="350" type="line" smooth="yes"/>
      <point x="303" y="329"/>
      <point x="297" y="320"/>
      <point x="283" y="320" type="curve" smooth="yes"/>
      <point x="173" y="320" type="line"/>
      <point x="173" y="76" type="line"/>
      <point x="323" y="76" type="line" smooth="yes"/>
      <point x="448" y="76"/>
      <point x="550" y="150"/>
      <point x="550" y="350" type="curve" smooth="yes"/>
      <point x="550" y="549"/>
      <point x="448" y="624"/>
      <point x="323" y="624" type="curve" smooth="yes"/>
    </contour>
  </outline>
</glyph>
<glyph name="Ntilde" format="1">
  <advance width="719"/>
  <unicode hex="00D1"/>
  <outline>
    <contour>
      <point x="370" y="877" type="move" name="Anchor-1"/>
    </contour>
    <contour>
      <point x="360" y="0" type="move" name="Anchor-0"/>
    </contour>
    <contour>
      <point x="485" y="849" type="curve" smooth="yes"/>
      <point x="498" y="858"/>
      <point x="511" y="854"/>
      <point x="519" y="845" type="curve" smooth="yes"/>
      <point x="534" y="827"/>
      <point x="529" y="814"/>
      <point x="517" y="803" type="curve" smooth="yes"/>
      <point x="487" y="781"/>
      <point x="455" y="762"/>
      <point x="414" y="762" type="curve" smooth="yes"/>
      <point x="377" y="762"/>
      <point x="358" y="770"/>
      <point x="341" y="778" type="curve" smooth="yes"/>
      <point x="324" y="786"/>
      <point x="314" y="792"/>
      <point x="295" y="792" type="curve" smooth="yes"/>
      <point x="273" y="792"/>
      <point x="252" y="781"/>
      <point x="240" y="773" type="curve" smooth="yes"/>
      <point x="223" y="762"/>
      <point x="210" y="765"/>
      <point x="199" y="780" type="curve" smooth="yes"/>
      <point x="188" y="795"/>
      <point x="192" y="808"/>
      <point x="203" y="816" type="curve" smooth="yes"/>
      <point x="232" y="836"/>
      <point x="266" y="856"/>
      <point x="307" y="856" type="curve" smooth="yes"/>
      <point x="344" y="856"/>
      <point x="361" y="845"/>
      <point x="377" y="837" type="curve" smooth="yes"/>
      <point x="391" y="830"/>
      <point x="407" y="826"/>
      <point x="427" y="826" type="curve" smooth="yes"/>
      <point x="449" y="826"/>
      <point x="467" y="837"/>
    </contour>
    <contour>
      <point x="582" y="702" type="curve" smooth="yes"/>
      <point x="589" y="702" type="line" smooth="yes"/>
      <point x="617" y="702"/>
      <point x="629" y="694"/>
      <point x="629" y="680" type="curve" smooth="yes"/>
      <point x="629" y="20" type="line" smooth="yes"/>
      <point x="629" y="6"/>
      <point x="617" y="-2"/>
      <point x="589" y="-2" type="curve" smooth="yes"/>
      <point x="569" y="-2" type="line" smooth="yes"/>
      <point x="550" y="-2"/>
      <point x="540" y="3"/>
      <point x="534" y="12" type="curve" smooth="yes"/>
      <point x="204" y="510" type="line"/>
      <point x="177" y="561" type="line"/>
      <point x="177" y="20" type="line" smooth="yes"/>
      <point x="177" y="6"/>
      <point x="165" y="-2"/>
      <point x="137" y="-2" type="curve" smooth="yes"/>
      <point x="130" y="-2" type="line" smooth="yes"/>
      <point x="102" y="-2"/>
      <point x="90" y="6"/>
      <point x="90" y="20" type="curve" smooth="yes"/>
      <point x="90" y="680" type="line" smooth="yes"/>
      <point x="90" y="694"/>
      <point x="102" y="702"/>
      <point x="130" y="702" type="curve" smooth="yes"/>
      <point x="151" y="702" type="line" smooth="yes"/>
      <point x="173" y="702"/>
      <point x="183" y="697"/>
      <point x="193" y="683" type="curve" smooth="yes"/>
      <point x="512" y="201" type="line"/>
      <point x="542" y="145" type="line"/>
      <point x="542" y="680" type="line" smooth="yes"/>
      <point x="542" y="694"/>
      <point x="554" y="702"/>
    </contour>
  </outline>
</glyph>
<glyph name="Ograve" format="1">
  <advance width="731"/>
  <unicode hex="00D2"/>
  <outline>
    <contour>
      <point x="361" y="877" type="move" name="Anchor-1"/>
    </contour>
    <contour>
      <point x="367" y="0" type="move" name="Anchor-0"/>
    </contour>
    <contour>
      <point x="296" y="909" type="curve" smooth="yes"/>
      <point x="328" y="909"/>
      <point x="347" y="902"/>
      <point x="358" y="883" type="curve" smooth="yes"/>
      <point x="404" y="803"/>
      <point x="416" y="782"/>
      <point x="416" y="772" type="curve" smooth="yes"/>
      <point x="416" y="765"/>
      <point x="409" y="762"/>
      <point x="393" y="762" type="curve" smooth="yes"/>
      <point x="372" y="762"/>
      <point x="353" y="768"/>
      <point x="342" y="780" type="curve" smooth="yes"/>
      <point x="258" y="876"/>
      <point x="248" y="885"/>
      <point x="248" y="896" type="curve" smooth="yes"/>
      <point x="248" y="906"/>
      <point x="264" y="909"/>
    </contour>
    <contour>
      <point x="365" y="706" type="curve" smooth="yes"/>
      <point x="566" y="706"/>
      <point x="674" y="586"/>
      <point x="674" y="352" type="curve" smooth="yes"/>
      <point x="674" y="118"/>
      <point x="566" y="-6"/>
      <point x="365" y="-6" type="curve" smooth="yes"/>
      <point x="165" y="-6"/>
      <point x="57" y="118"/>
      <point x="57" y="352" type="curve" smooth="yes"/>
      <point x="57" y="586"/>
      <point x="165" y="706"/>
    </contour>
    <contour>
      <point x="365" y="630" type="curve" smooth="yes"/>
      <point x="224" y="630"/>
      <point x="148" y="536"/>
      <point x="148" y="352" type="curve" smooth="yes"/>
      <point x="148" y="168"/>
      <point x="224" y="70"/>
      <point x="365" y="70" type="curve" smooth="yes"/>
      <point x="506" y="70"/>
      <point x="583" y="168"/>
      <point x="583" y="352" type="curve" smooth="yes"/>
      <point x="583" y="536"/>
      <point x="506" y="630"/>
    </contour>
  </outline>
</glyph>
<glyph name="Oacute" format="1">
  <advance width="731"/>
  <unicode hex="00D3"/>
  <outline>
    <contour>
      <point x="372" y="877" type="move" name="Anchor-1"/>
    </contour>
    <contour>
      <point x="367" y="0" type="move" name="Anchor-0"/>
    </contour>
    <contour>
      <point x="446" y="909" type="curve" smooth="yes"/>
      <point x="478" y="909"/>
      <point x="494" y="906"/>
      <point x="494" y="896" type="curve" smooth="yes"/>
      <point x="494" y="885"/>
      <point x="484" y="876"/>
      <point x="400" y="780" type="curve" smooth="yes"/>
      <point x="389" y="768"/>
      <point x="370" y="762"/>
      <point x="349" y="762" type="curve" smooth="yes"/>
      <point x="333" y="762"/>
      <point x="326" y="765"/>
      <point x="326" y="772" type="curve" smooth="yes"/>
      <point x="326" y="782"/>
      <point x="338" y="803"/>
      <point x="384" y="883" type="curve" smooth="yes"/>
      <point x="395" y="902"/>
      <point x="414" y="909"/>
    </contour>
    <contour>
      <point x="365" y="706" type="curve" smooth="yes"/>
      <point x="566" y="706"/>
      <point x="674" y="586"/>
      <point x="674" y="352" type="curve" smooth="yes"/>
      <point x="674" y="118"/>
      <point x="566" y="-6"/>
      <point x="365" y="-6" type="curve" smooth="yes"/>
      <point x="165" y="-6"/>
      <point x="57" y="118"/>
      <point x="57" y="352" type="curve" smooth="yes"/>
      <point x="57" y="586"/>
      <point x="165" y="706"/>
    </contour>
    <contour>
      <point x="365" y="630" type="curve" smooth="yes"/>
      <point x="224" y="630"/>
      <point x="148" y="536"/>
      <point x="148" y="352" type="curve" smooth="yes"/>
      <point x="148" y="168"/>
      <point x="224" y="70"/>
      <point x="365" y="70" type="curve" smooth="yes"/>
      <point x="506" y="70"/>
      <point x="583" y="168"/>
      <point x="583" y="352" type="curve" smooth="yes"/>
      <point x="583" y="536"/>
      <point x="506" y="630"/>
    </contour>
  </outline>
</glyph>
